# Original BLACKGLASS source; generator version tailored_lofts_v1
o SM_BG_Tire
s 1
v 40.000000 0.000000 -50.000000
v 38.637033 10.352762 -50.000000
v 34.641016 20.000000 -50.000000
v 28.284271 28.284271 -50.000000
v 20.000000 34.641016 -50.000000
v 10.352762 38.637033 -50.000000
v 0.000000 40.000000 -50.000000
v -10.352762 38.637033 -50.000000
v -20.000000 34.641016 -50.000000
v -28.284271 28.284271 -50.000000
v -34.641016 20.000000 -50.000000
v -38.637033 10.352762 -50.000000
v -40.000000 0.000000 -50.000000
v -38.637033 -10.352762 -50.000000
v -34.641016 -20.000000 -50.000000
v -28.284271 -28.284271 -50.000000
v -20.000000 -34.641016 -50.000000
v -10.352762 -38.637033 -50.000000
v -0.000000 -40.000000 -50.000000
v 10.352762 -38.637033 -50.000000
v 20.000000 -34.641016 -50.000000
v 28.284271 -28.284271 -50.000000
v 34.641016 -20.000000 -50.000000
v 38.637033 -10.352762 -50.000000
v 46.000000 0.000000 -43.000000
v 44.432588 11.905676 -43.000000
v 39.837169 23.000000 -43.000000
v 32.526912 32.526912 -43.000000
v 23.000000 39.837169 -43.000000
v 11.905676 44.432588 -43.000000
v 0.000000 46.000000 -43.000000
v -11.905676 44.432588 -43.000000
v -23.000000 39.837169 -43.000000
v -32.526912 32.526912 -43.000000
v -39.837169 23.000000 -43.000000
v -44.432588 11.905676 -43.000000
v -46.000000 0.000000 -43.000000
v -44.432588 -11.905676 -43.000000
v -39.837169 -23.000000 -43.000000
v -32.526912 -32.526912 -43.000000
v -23.000000 -39.837169 -43.000000
v -11.905676 -44.432588 -43.000000
v -0.000000 -46.000000 -43.000000
v 11.905676 -44.432588 -43.000000
v 23.000000 -39.837169 -43.000000
v 32.526912 -32.526912 -43.000000
v 39.837169 -23.000000 -43.000000
v 44.432588 -11.905676 -43.000000
v 50.000000 0.000000 -25.000000
v 48.296291 12.940952 -25.000000
v 43.301270 25.000000 -25.000000
v 35.355339 35.355339 -25.000000
v 25.000000 43.301270 -25.000000
v 12.940952 48.296291 -25.000000
v 0.000000 50.000000 -25.000000
v -12.940952 48.296291 -25.000000
v -25.000000 43.301270 -25.000000
v -35.355339 35.355339 -25.000000
v -43.301270 25.000000 -25.000000
v -48.296291 12.940952 -25.000000
v -50.000000 0.000000 -25.000000
v -48.296291 -12.940952 -25.000000
v -43.301270 -25.000000 -25.000000
v -35.355339 -35.355339 -25.000000
v -25.000000 -43.301270 -25.000000
v -12.940952 -48.296291 -25.000000
v -0.000000 -50.000000 -25.000000
v 12.940952 -48.296291 -25.000000
v 25.000000 -43.301270 -25.000000
v 35.355339 -35.355339 -25.000000
v 43.301270 -25.000000 -25.000000
v 48.296291 -12.940952 -25.000000
v 50.000000 0.000000 25.000000
v 48.296291 12.940952 25.000000
v 43.301270 25.000000 25.000000
v 35.355339 35.355339 25.000000
v 25.000000 43.301270 25.000000
v 12.940952 48.296291 25.000000
v 0.000000 50.000000 25.000000
v -12.940952 48.296291 25.000000
v -25.000000 43.301270 25.000000
v -35.355339 35.355339 25.000000
v -43.301270 25.000000 25.000000
v -48.296291 12.940952 25.000000
v -50.000000 0.000000 25.000000
v -48.296291 -12.940952 25.000000
v -43.301270 -25.000000 25.000000
v -35.355339 -35.355339 25.000000
v -25.000000 -43.301270 25.000000
v -12.940952 -48.296291 25.000000
v -0.000000 -50.000000 25.000000
v 12.940952 -48.296291 25.000000
v 25.000000 -43.301270 25.000000
v 35.355339 -35.355339 25.000000
v 43.301270 -25.000000 25.000000
v 48.296291 -12.940952 25.000000
v 46.000000 0.000000 43.000000
v 44.432588 11.905676 43.000000
v 39.837169 23.000000 43.000000
v 32.526912 32.526912 43.000000
v 23.000000 39.837169 43.000000
v 11.905676 44.432588 43.000000
v 0.000000 46.000000 43.000000
v -11.905676 44.432588 43.000000
v -23.000000 39.837169 43.000000
v -32.526912 32.526912 43.000000
v -39.837169 23.000000 43.000000
v -44.432588 11.905676 43.000000
v -46.000000 0.000000 43.000000
v -44.432588 -11.905676 43.000000
v -39.837169 -23.000000 43.000000
v -32.526912 -32.526912 43.000000
v -23.000000 -39.837169 43.000000
v -11.905676 -44.432588 43.000000
v -0.000000 -46.000000 43.000000
v 11.905676 -44.432588 43.000000
v 23.000000 -39.837169 43.000000
v 32.526912 -32.526912 43.000000
v 39.837169 -23.000000 43.000000
v 44.432588 -11.905676 43.000000
v 40.000000 0.000000 50.000000
v 38.637033 10.352762 50.000000
v 34.641016 20.000000 50.000000
v 28.284271 28.284271 50.000000
v 20.000000 34.641016 50.000000
v 10.352762 38.637033 50.000000
v 0.000000 40.000000 50.000000
v -10.352762 38.637033 50.000000
v -20.000000 34.641016 50.000000
v -28.284271 28.284271 50.000000
v -34.641016 20.000000 50.000000
v -38.637033 10.352762 50.000000
v -40.000000 0.000000 50.000000
v -38.637033 -10.352762 50.000000
v -34.641016 -20.000000 50.000000
v -28.284271 -28.284271 50.000000
v -20.000000 -34.641016 50.000000
v -10.352762 -38.637033 50.000000
v -0.000000 -40.000000 50.000000
v 10.352762 -38.637033 50.000000
v 20.000000 -34.641016 50.000000
v 28.284271 -28.284271 50.000000
v 34.641016 -20.000000 50.000000
v 38.637033 -10.352762 50.000000
v -0.000000 -0.000000 -50.000000
v -0.000000 -0.000000 50.000000
vt 0.000000 0.000000
vt 0.041667 0.000000
vt 0.083333 0.000000
vt 0.125000 0.000000
vt 0.166667 0.000000
vt 0.208333 0.000000
vt 0.250000 0.000000
vt 0.291667 0.000000
vt 0.333333 0.000000
vt 0.375000 0.000000
vt 0.416667 0.000000
vt 0.458333 0.000000
vt 0.500000 0.000000
vt 0.541667 0.000000
vt 0.583333 0.000000
vt 0.625000 0.000000
vt 0.666667 0.000000
vt 0.708333 0.000000
vt 0.750000 0.000000
vt 0.791667 0.000000
vt 0.833333 0.000000
vt 0.875000 0.000000
vt 0.916667 0.000000
vt 0.958333 0.000000
vt 0.000000 0.070000
vt 0.041667 0.070000
vt 0.083333 0.070000
vt 0.125000 0.070000
vt 0.166667 0.070000
vt 0.208333 0.070000
vt 0.250000 0.070000
vt 0.291667 0.070000
vt 0.333333 0.070000
vt 0.375000 0.070000
vt 0.416667 0.070000
vt 0.458333 0.070000
vt 0.500000 0.070000
vt 0.541667 0.070000
vt 0.583333 0.070000
vt 0.625000 0.070000
vt 0.666667 0.070000
vt 0.708333 0.070000
vt 0.750000 0.070000
vt 0.791667 0.070000
vt 0.833333 0.070000
vt 0.875000 0.070000
vt 0.916667 0.070000
vt 0.958333 0.070000
vt 0.000000 0.250000
vt 0.041667 0.250000
vt 0.083333 0.250000
vt 0.125000 0.250000
vt 0.166667 0.250000
vt 0.208333 0.250000
vt 0.250000 0.250000
vt 0.291667 0.250000
vt 0.333333 0.250000
vt 0.375000 0.250000
vt 0.416667 0.250000
vt 0.458333 0.250000
vt 0.500000 0.250000
vt 0.541667 0.250000
vt 0.583333 0.250000
vt 0.625000 0.250000
vt 0.666667 0.250000
vt 0.708333 0.250000
vt 0.750000 0.250000
vt 0.791667 0.250000
vt 0.833333 0.250000
vt 0.875000 0.250000
vt 0.916667 0.250000
vt 0.958333 0.250000
vt 0.000000 0.750000
vt 0.041667 0.750000
vt 0.083333 0.750000
vt 0.125000 0.750000
vt 0.166667 0.750000
vt 0.208333 0.750000
vt 0.250000 0.750000
vt 0.291667 0.750000
vt 0.333333 0.750000
vt 0.375000 0.750000
vt 0.416667 0.750000
vt 0.458333 0.750000
vt 0.500000 0.750000
vt 0.541667 0.750000
vt 0.583333 0.750000
vt 0.625000 0.750000
vt 0.666667 0.750000
vt 0.708333 0.750000
vt 0.750000 0.750000
vt 0.791667 0.750000
vt 0.833333 0.750000
vt 0.875000 0.750000
vt 0.916667 0.750000
vt 0.958333 0.750000
vt 0.000000 0.930000
vt 0.041667 0.930000
vt 0.083333 0.930000
vt 0.125000 0.930000
vt 0.166667 0.930000
vt 0.208333 0.930000
vt 0.250000 0.930000
vt 0.291667 0.930000
vt 0.333333 0.930000
vt 0.375000 0.930000
vt 0.416667 0.930000
vt 0.458333 0.930000
vt 0.500000 0.930000
vt 0.541667 0.930000
vt 0.583333 0.930000
vt 0.625000 0.930000
vt 0.666667 0.930000
vt 0.708333 0.930000
vt 0.750000 0.930000
vt 0.791667 0.930000
vt 0.833333 0.930000
vt 0.875000 0.930000
vt 0.916667 0.930000
vt 0.958333 0.930000
vt 0.000000 1.000000
vt 0.041667 1.000000
vt 0.083333 1.000000
vt 0.125000 1.000000
vt 0.166667 1.000000
vt 0.208333 1.000000
vt 0.250000 1.000000
vt 0.291667 1.000000
vt 0.333333 1.000000
vt 0.375000 1.000000
vt 0.416667 1.000000
vt 0.458333 1.000000
vt 0.500000 1.000000
vt 0.541667 1.000000
vt 0.583333 1.000000
vt 0.625000 1.000000
vt 0.666667 1.000000
vt 0.708333 1.000000
vt 0.750000 1.000000
vt 0.791667 1.000000
vt 0.833333 1.000000
vt 0.875000 1.000000
vt 0.916667 1.000000
vt 0.958333 1.000000
vt 0.561142 0.000000
vt 0.561142 1.000000
vn 0.217598 0.010459 -0.975983
vn 0.207476 0.066421 -0.975983
vn 0.183216 0.117856 -0.975983
vn 0.146470 0.161260 -0.975983
vn 0.099742 0.193674 -0.975983
vn 0.046216 0.212890 -0.975983
vn -0.010459 0.217598 -0.975983
vn -0.066421 0.207476 -0.975983
vn -0.117856 0.183216 -0.975983
vn -0.161260 0.146470 -0.975983
vn -0.193674 0.099742 -0.975983
vn -0.212890 0.046216 -0.975983
vn -0.217598 -0.010459 -0.975983
vn -0.207476 -0.066421 -0.975983
vn -0.183216 -0.117856 -0.975983
vn -0.146470 -0.161260 -0.975983
vn -0.099742 -0.193674 -0.975983
vn -0.046216 -0.212890 -0.975983
vn 0.010459 -0.217598 -0.975983
vn 0.066421 -0.207476 -0.975983
vn 0.117856 -0.183216 -0.975983
vn 0.161260 -0.146470 -0.975983
vn 0.193674 -0.099742 -0.975983
vn 0.212890 -0.046216 -0.975983
vn 0.931178 0.021841 -0.363909
vn 0.893796 0.262104 -0.363909
vn 0.795504 0.484504 -0.363909
vn 0.642999 0.673887 -0.363909
vn 0.446674 0.817345 -0.363909
vn 0.219910 0.905102 -0.363909
vn -0.021841 0.931178 -0.363909
vn -0.262104 0.893796 -0.363909
vn -0.484504 0.795504 -0.363909
vn -0.673887 0.642999 -0.363909
vn -0.817345 0.446674 -0.363909
vn -0.905102 0.219910 -0.363909
vn -0.931178 -0.021841 -0.363909
vn -0.893796 -0.262104 -0.363909
vn -0.795504 -0.484504 -0.363909
vn -0.642999 -0.673887 -0.363909
vn -0.446674 -0.817345 -0.363909
vn -0.219910 -0.905102 -0.363909
vn 0.021841 -0.931178 -0.363909
vn 0.262104 -0.893796 -0.363909
vn 0.484504 -0.795504 -0.363909
vn 0.673887 -0.642999 -0.363909
vn 0.817345 -0.446674 -0.363909
vn 0.905102 -0.219910 -0.363909
vn 0.998107 0.021693 -0.057553
vn 0.958483 0.279283 -0.057553
vn 0.853539 0.517840 -0.057553
vn 0.690429 0.721107 -0.057553
vn 0.480267 0.875232 -0.057553
vn 0.237375 0.969712 -0.057553
vn -0.021693 0.998107 -0.057553
vn -0.279283 0.958483 -0.057553
vn -0.517840 0.853539 -0.057553
vn -0.721107 0.690429 -0.057553
vn -0.875232 0.480267 -0.057553
vn -0.969712 0.237375 -0.057553
vn -0.998107 -0.021693 -0.057553
vn -0.958483 -0.279283 -0.057553
vn -0.853539 -0.517840 -0.057553
vn -0.690429 -0.721107 -0.057553
vn -0.480267 -0.875232 -0.057553
vn -0.237375 -0.969712 -0.057553
vn 0.021693 -0.998107 -0.057553
vn 0.279283 -0.958483 -0.057553
vn 0.517840 -0.853539 -0.057553
vn 0.721107 -0.690429 -0.057553
vn 0.875232 -0.480267 -0.057553
vn 0.969712 -0.237375 -0.057553
vn 0.998107 -0.021693 0.057553
vn 0.969712 0.237375 0.057553
vn 0.875232 0.480267 0.057553
vn 0.721107 0.690429 0.057553
vn 0.517840 0.853539 0.057553
vn 0.279283 0.958483 0.057553
vn 0.021693 0.998107 0.057553
vn -0.237375 0.969712 0.057553
vn -0.480267 0.875232 0.057553
vn -0.690429 0.721107 0.057553
vn -0.853539 0.517840 0.057553
vn -0.958483 0.279283 0.057553
vn -0.998107 0.021693 0.057553
vn -0.969712 -0.237375 0.057553
vn -0.875232 -0.480267 0.057553
vn -0.721107 -0.690429 0.057553
vn -0.517840 -0.853539 0.057553
vn -0.279283 -0.958483 0.057553
vn -0.021693 -0.998107 0.057553
vn 0.237375 -0.969712 0.057553
vn 0.480267 -0.875232 0.057553
vn 0.690429 -0.721107 0.057553
vn 0.853539 -0.517840 0.057553
vn 0.958483 -0.279283 0.057553
vn 0.931178 -0.021841 0.363909
vn 0.905102 0.219910 0.363909
vn 0.817345 0.446674 0.363909
vn 0.673887 0.642999 0.363909
vn 0.484504 0.795504 0.363909
vn 0.262104 0.893796 0.363909
vn 0.021841 0.931178 0.363909
vn -0.219910 0.905102 0.363909
vn -0.446674 0.817345 0.363909
vn -0.642999 0.673887 0.363909
vn -0.795504 0.484504 0.363909
vn -0.893796 0.262104 0.363909
vn -0.931178 0.021841 0.363909
vn -0.905102 -0.219910 0.363909
vn -0.817345 -0.446674 0.363909
vn -0.673887 -0.642999 0.363909
vn -0.484504 -0.795504 0.363909
vn -0.262104 -0.893796 0.363909
vn -0.021841 -0.931178 0.363909
vn 0.219910 -0.905102 0.363909
vn 0.446674 -0.817345 0.363909
vn 0.642999 -0.673887 0.363909
vn 0.795504 -0.484504 0.363909
vn 0.893796 -0.262104 0.363909
vn 0.217598 -0.010459 0.975983
vn 0.212890 0.046216 0.975983
vn 0.193674 0.099742 0.975983
vn 0.161260 0.146470 0.975983
vn 0.117856 0.183216 0.975983
vn 0.066421 0.207476 0.975983
vn 0.010459 0.217598 0.975983
vn -0.046216 0.212890 0.975983
vn -0.099742 0.193674 0.975983
vn -0.146470 0.161260 0.975983
vn -0.183216 0.117856 0.975983
vn -0.207476 0.066421 0.975983
vn -0.217598 0.010459 0.975983
vn -0.212890 -0.046216 0.975983
vn -0.193674 -0.099742 0.975983
vn -0.161260 -0.146470 0.975983
vn -0.117856 -0.183216 0.975983
vn -0.066421 -0.207476 0.975983
vn -0.010459 -0.217598 0.975983
vn 0.046216 -0.212890 0.975983
vn 0.099742 -0.193674 0.975983
vn 0.146470 -0.161260 0.975983
vn 0.183216 -0.117856 0.975983
vn 0.207476 -0.066421 0.975983
vn 0.000000 0.000000 -1.000000
vn 0.000000 0.000000 1.000000
f 1/1/1 2/2/2 26/26/26
f 1/1/1 26/26/26 25/25/25
f 2/2/2 3/3/3 27/27/27
f 2/2/2 27/27/27 26/26/26
f 3/3/3 4/4/4 28/28/28
f 3/3/3 28/28/28 27/27/27
f 4/4/4 5/5/5 29/29/29
f 4/4/4 29/29/29 28/28/28
f 5/5/5 6/6/6 30/30/30
f 5/5/5 30/30/30 29/29/29
f 6/6/6 7/7/7 31/31/31
f 6/6/6 31/31/31 30/30/30
f 7/7/7 8/8/8 32/32/32
f 7/7/7 32/32/32 31/31/31
f 8/8/8 9/9/9 33/33/33
f 8/8/8 33/33/33 32/32/32
f 9/9/9 10/10/10 34/34/34
f 9/9/9 34/34/34 33/33/33
f 10/10/10 11/11/11 35/35/35
f 10/10/10 35/35/35 34/34/34
f 11/11/11 12/12/12 36/36/36
f 11/11/11 36/36/36 35/35/35
f 12/12/12 13/13/13 37/37/37
f 12/12/12 37/37/37 36/36/36
f 13/13/13 14/14/14 38/38/38
f 13/13/13 38/38/38 37/37/37
f 14/14/14 15/15/15 39/39/39
f 14/14/14 39/39/39 38/38/38
f 15/15/15 16/16/16 40/40/40
f 15/15/15 40/40/40 39/39/39
f 16/16/16 17/17/17 41/41/41
f 16/16/16 41/41/41 40/40/40
f 17/17/17 18/18/18 42/42/42
f 17/17/17 42/42/42 41/41/41
f 18/18/18 19/19/19 43/43/43
f 18/18/18 43/43/43 42/42/42
f 19/19/19 20/20/20 44/44/44
f 19/19/19 44/44/44 43/43/43
f 20/20/20 21/21/21 45/45/45
f 20/20/20 45/45/45 44/44/44
f 21/21/21 22/22/22 46/46/46
f 21/21/21 46/46/46 45/45/45
f 22/22/22 23/23/23 47/47/47
f 22/22/22 47/47/47 46/46/46
f 23/23/23 24/24/24 48/48/48
f 23/23/23 48/48/48 47/47/47
f 24/24/24 1/1/1 25/25/25
f 24/24/24 25/25/25 48/48/48
f 25/25/25 26/26/26 50/50/50
f 25/25/25 50/50/50 49/49/49
f 26/26/26 27/27/27 51/51/51
f 26/26/26 51/51/51 50/50/50
f 27/27/27 28/28/28 52/52/52
f 27/27/27 52/52/52 51/51/51
f 28/28/28 29/29/29 53/53/53
f 28/28/28 53/53/53 52/52/52
f 29/29/29 30/30/30 54/54/54
f 29/29/29 54/54/54 53/53/53
f 30/30/30 31/31/31 55/55/55
f 30/30/30 55/55/55 54/54/54
f 31/31/31 32/32/32 56/56/56
f 31/31/31 56/56/56 55/55/55
f 32/32/32 33/33/33 57/57/57
f 32/32/32 57/57/57 56/56/56
f 33/33/33 34/34/34 58/58/58
f 33/33/33 58/58/58 57/57/57
f 34/34/34 35/35/35 59/59/59
f 34/34/34 59/59/59 58/58/58
f 35/35/35 36/36/36 60/60/60
f 35/35/35 60/60/60 59/59/59
f 36/36/36 37/37/37 61/61/61
f 36/36/36 61/61/61 60/60/60
f 37/37/37 38/38/38 62/62/62
f 37/37/37 62/62/62 61/61/61
f 38/38/38 39/39/39 63/63/63
f 38/38/38 63/63/63 62/62/62
f 39/39/39 40/40/40 64/64/64
f 39/39/39 64/64/64 63/63/63
f 40/40/40 41/41/41 65/65/65
f 40/40/40 65/65/65 64/64/64
f 41/41/41 42/42/42 66/66/66
f 41/41/41 66/66/66 65/65/65
f 42/42/42 43/43/43 67/67/67
f 42/42/42 67/67/67 66/66/66
f 43/43/43 44/44/44 68/68/68
f 43/43/43 68/68/68 67/67/67
f 44/44/44 45/45/45 69/69/69
f 44/44/44 69/69/69 68/68/68
f 45/45/45 46/46/46 70/70/70
f 45/45/45 70/70/70 69/69/69
f 46/46/46 47/47/47 71/71/71
f 46/46/46 71/71/71 70/70/70
f 47/47/47 48/48/48 72/72/72
f 47/47/47 72/72/72 71/71/71
f 48/48/48 25/25/25 49/49/49
f 48/48/48 49/49/49 72/72/72
f 49/49/49 50/50/50 74/74/74
f 49/49/49 74/74/74 73/73/73
f 50/50/50 51/51/51 75/75/75
f 50/50/50 75/75/75 74/74/74
f 51/51/51 52/52/52 76/76/76
f 51/51/51 76/76/76 75/75/75
f 52/52/52 53/53/53 77/77/77
f 52/52/52 77/77/77 76/76/76
f 53/53/53 54/54/54 78/78/78
f 53/53/53 78/78/78 77/77/77
f 54/54/54 55/55/55 79/79/79
f 54/54/54 79/79/79 78/78/78
f 55/55/55 56/56/56 80/80/80
f 55/55/55 80/80/80 79/79/79
f 56/56/56 57/57/57 81/81/81
f 56/56/56 81/81/81 80/80/80
f 57/57/57 58/58/58 82/82/82
f 57/57/57 82/82/82 81/81/81
f 58/58/58 59/59/59 83/83/83
f 58/58/58 83/83/83 82/82/82
f 59/59/59 60/60/60 84/84/84
f 59/59/59 84/84/84 83/83/83
f 60/60/60 61/61/61 85/85/85
f 60/60/60 85/85/85 84/84/84
f 61/61/61 62/62/62 86/86/86
f 61/61/61 86/86/86 85/85/85
f 62/62/62 63/63/63 87/87/87
f 62/62/62 87/87/87 86/86/86
f 63/63/63 64/64/64 88/88/88
f 63/63/63 88/88/88 87/87/87
f 64/64/64 65/65/65 89/89/89
f 64/64/64 89/89/89 88/88/88
f 65/65/65 66/66/66 90/90/90
f 65/65/65 90/90/90 89/89/89
f 66/66/66 67/67/67 91/91/91
f 66/66/66 91/91/91 90/90/90
f 67/67/67 68/68/68 92/92/92
f 67/67/67 92/92/92 91/91/91
f 68/68/68 69/69/69 93/93/93
f 68/68/68 93/93/93 92/92/92
f 69/69/69 70/70/70 94/94/94
f 69/69/69 94/94/94 93/93/93
f 70/70/70 71/71/71 95/95/95
f 70/70/70 95/95/95 94/94/94
f 71/71/71 72/72/72 96/96/96
f 71/71/71 96/96/96 95/95/95
f 72/72/72 49/49/49 73/73/73
f 72/72/72 73/73/73 96/96/96
f 73/73/73 74/74/74 98/98/98
f 73/73/73 98/98/98 97/97/97
f 74/74/74 75/75/75 99/99/99
f 74/74/74 99/99/99 98/98/98
f 75/75/75 76/76/76 100/100/100
f 75/75/75 100/100/100 99/99/99
f 76/76/76 77/77/77 101/101/101
f 76/76/76 101/101/101 100/100/100
f 77/77/77 78/78/78 102/102/102
f 77/77/77 102/102/102 101/101/101
f 78/78/78 79/79/79 103/103/103
f 78/78/78 103/103/103 102/102/102
f 79/79/79 80/80/80 104/104/104
f 79/79/79 104/104/104 103/103/103
f 80/80/80 81/81/81 105/105/105
f 80/80/80 105/105/105 104/104/104
f 81/81/81 82/82/82 106/106/106
f 81/81/81 106/106/106 105/105/105
f 82/82/82 83/83/83 107/107/107
f 82/82/82 107/107/107 106/106/106
f 83/83/83 84/84/84 108/108/108
f 83/83/83 108/108/108 107/107/107
f 84/84/84 85/85/85 109/109/109
f 84/84/84 109/109/109 108/108/108
f 85/85/85 86/86/86 110/110/110
f 85/85/85 110/110/110 109/109/109
f 86/86/86 87/87/87 111/111/111
f 86/86/86 111/111/111 110/110/110
f 87/87/87 88/88/88 112/112/112
f 87/87/87 112/112/112 111/111/111
f 88/88/88 89/89/89 113/113/113
f 88/88/88 113/113/113 112/112/112
f 89/89/89 90/90/90 114/114/114
f 89/89/89 114/114/114 113/113/113
f 90/90/90 91/91/91 115/115/115
f 90/90/90 115/115/115 114/114/114
f 91/91/91 92/92/92 116/116/116
f 91/91/91 116/116/116 115/115/115
f 92/92/92 93/93/93 117/117/117
f 92/92/92 117/117/117 116/116/116
f 93/93/93 94/94/94 118/118/118
f 93/93/93 118/118/118 117/117/117
f 94/94/94 95/95/95 119/119/119
f 94/94/94 119/119/119 118/118/118
f 95/95/95 96/96/96 120/120/120
f 95/95/95 120/120/120 119/119/119
f 96/96/96 73/73/73 97/97/97
f 96/96/96 97/97/97 120/120/120
f 97/97/97 98/98/98 122/122/122
f 97/97/97 122/122/122 121/121/121
f 98/98/98 99/99/99 123/123/123
f 98/98/98 123/123/123 122/122/122
f 99/99/99 100/100/100 124/124/124
f 99/99/99 124/124/124 123/123/123
f 100/100/100 101/101/101 125/125/125
f 100/100/100 125/125/125 124/124/124
f 101/101/101 102/102/102 126/126/126
f 101/101/101 126/126/126 125/125/125
f 102/102/102 103/103/103 127/127/127
f 102/102/102 127/127/127 126/126/126
f 103/103/103 104/104/104 128/128/128
f 103/103/103 128/128/128 127/127/127
f 104/104/104 105/105/105 129/129/129
f 104/104/104 129/129/129 128/128/128
f 105/105/105 106/106/106 130/130/130
f 105/105/105 130/130/130 129/129/129
f 106/106/106 107/107/107 131/131/131
f 106/106/106 131/131/131 130/130/130
f 107/107/107 108/108/108 132/132/132
f 107/107/107 132/132/132 131/131/131
f 108/108/108 109/109/109 133/133/133
f 108/108/108 133/133/133 132/132/132
f 109/109/109 110/110/110 134/134/134
f 109/109/109 134/134/134 133/133/133
f 110/110/110 111/111/111 135/135/135
f 110/110/110 135/135/135 134/134/134
f 111/111/111 112/112/112 136/136/136
f 111/111/111 136/136/136 135/135/135
f 112/112/112 113/113/113 137/137/137
f 112/112/112 137/137/137 136/136/136
f 113/113/113 114/114/114 138/138/138
f 113/113/113 138/138/138 137/137/137
f 114/114/114 115/115/115 139/139/139
f 114/114/114 139/139/139 138/138/138
f 115/115/115 116/116/116 140/140/140
f 115/115/115 140/140/140 139/139/139
f 116/116/116 117/117/117 141/141/141
f 116/116/116 141/141/141 140/140/140
f 117/117/117 118/118/118 142/142/142
f 117/117/117 142/142/142 141/141/141
f 118/118/118 119/119/119 143/143/143
f 118/118/118 143/143/143 142/142/142
f 119/119/119 120/120/120 144/144/144
f 119/119/119 144/144/144 143/143/143
f 120/120/120 97/97/97 121/121/121
f 120/120/120 121/121/121 144/144/144
f 145/145/145 2/2/2 1/1/1
f 145/145/145 3/3/3 2/2/2
f 145/145/145 4/4/4 3/3/3
f 145/145/145 5/5/5 4/4/4
f 145/145/145 6/6/6 5/5/5
f 145/145/145 7/7/7 6/6/6
f 145/145/145 8/8/8 7/7/7
f 145/145/145 9/9/9 8/8/8
f 145/145/145 10/10/10 9/9/9
f 145/145/145 11/11/11 10/10/10
f 145/145/145 12/12/12 11/11/11
f 145/145/145 13/13/13 12/12/12
f 145/145/145 14/14/14 13/13/13
f 145/145/145 15/15/15 14/14/14
f 145/145/145 16/16/16 15/15/15
f 145/145/145 17/17/17 16/16/16
f 145/145/145 18/18/18 17/17/17
f 145/145/145 19/19/19 18/18/18
f 145/145/145 20/20/20 19/19/19
f 145/145/145 21/21/21 20/20/20
f 145/145/145 22/22/22 21/21/21
f 145/145/145 23/23/23 22/22/22
f 145/145/145 24/24/24 23/23/23
f 145/145/145 1/1/1 24/24/24
f 146/146/146 121/121/121 122/122/122
f 146/146/146 122/122/122 123/123/123
f 146/146/146 123/123/123 124/124/124
f 146/146/146 124/124/124 125/125/125
f 146/146/146 125/125/125 126/126/126
f 146/146/146 126/126/126 127/127/127
f 146/146/146 127/127/127 128/128/128
f 146/146/146 128/128/128 129/129/129
f 146/146/146 129/129/129 130/130/130
f 146/146/146 130/130/130 131/131/131
f 146/146/146 131/131/131 132/132/132
f 146/146/146 132/132/132 133/133/133
f 146/146/146 133/133/133 134/134/134
f 146/146/146 134/134/134 135/135/135
f 146/146/146 135/135/135 136/136/136
f 146/146/146 136/136/136 137/137/137
f 146/146/146 137/137/137 138/138/138
f 146/146/146 138/138/138 139/139/139
f 146/146/146 139/139/139 140/140/140
f 146/146/146 140/140/140 141/141/141
f 146/146/146 141/141/141 142/142/142
f 146/146/146 142/142/142 143/143/143
f 146/146/146 143/143/143 144/144/144
f 146/146/146 144/144/144 121/121/121
