# Original BLACKGLASS source; generator version tailored_lofts_v1
o SM_BG_VanBody
s 1
v 44.000000 0.000000 -50.000000
v 43.662324 32.584225 -50.000000
v 42.615795 37.718735 -50.000000
v 40.738487 40.738487 -50.000000
v 37.718735 42.615795 -50.000000
v 32.584225 43.662324 -50.000000
v 0.010979 44.000000 -50.000000
v -32.584225 43.662324 -50.000000
v -37.718735 42.615795 -50.000000
v -40.738487 40.738487 -50.000000
v -42.615795 37.718735 -50.000000
v -43.662324 32.584225 -50.000000
v -44.000000 0.012807 -50.000000
v -43.662324 -32.584225 -50.000000
v -42.615795 -37.718735 -50.000000
v -40.738487 -40.738487 -50.000000
v -37.718735 -42.615795 -50.000000
v -32.584225 -43.662324 -50.000000
v -0.014015 -44.000000 -50.000000
v 32.584225 -43.662324 -50.000000
v 37.718735 -42.615795 -50.000000
v 40.738487 -40.738487 -50.000000
v 42.615795 -37.718735 -50.000000
v 43.662324 -32.584225 -50.000000
v 49.000000 0.000000 -43.000000
v 48.623952 35.546427 -43.000000
v 47.458499 41.147711 -43.000000
v 45.367861 44.441986 -43.000000
v 42.004955 46.489958 -43.000000
v 36.286978 47.631626 -43.000000
v 0.012227 48.000000 -43.000000
v -36.286978 47.631626 -43.000000
v -42.004955 46.489958 -43.000000
v -45.367861 44.441986 -43.000000
v -47.458499 41.147711 -43.000000
v -48.623952 35.546427 -43.000000
v -49.000000 0.013972 -43.000000
v -48.623952 -35.546427 -43.000000
v -47.458499 -41.147711 -43.000000
v -45.367861 -44.441986 -43.000000
v -42.004955 -46.489958 -43.000000
v -36.286978 -47.631626 -43.000000
v -0.015607 -48.000000 -43.000000
v 36.286978 -47.631626 -43.000000
v 42.004955 -46.489958 -43.000000
v 45.367861 -44.441986 -43.000000
v 47.458499 -41.147711 -43.000000
v 48.623952 -35.546427 -43.000000
v 50.000000 0.000000 20.000000
v 49.616277 37.027528 20.000000
v 48.427040 42.862199 20.000000
v 46.293736 46.293736 20.000000
v 42.862199 48.427040 20.000000
v 37.027528 49.616277 20.000000
v 0.012476 50.000000 20.000000
v -37.027528 49.616277 20.000000
v -42.862199 48.427040 20.000000
v -46.293736 46.293736 20.000000
v -48.427040 42.862199 20.000000
v -49.616277 37.027528 20.000000
v -50.000000 0.014554 20.000000
v -49.616277 -37.027528 20.000000
v -48.427040 -42.862199 20.000000
v -46.293736 -46.293736 20.000000
v -42.862199 -48.427040 20.000000
v -37.027528 -49.616277 20.000000
v -0.015926 -50.000000 20.000000
v 37.027528 -49.616277 20.000000
v 42.862199 -48.427040 20.000000
v 46.293736 -46.293736 20.000000
v 48.427040 -42.862199 20.000000
v 49.616277 -37.027528 20.000000
v 47.000000 0.000000 45.000000
v 46.631626 36.286978 45.000000
v 45.489958 42.004955 45.000000
v 43.441986 45.367861 45.000000
v 40.147711 47.458499 45.000000
v 34.546427 48.623952 45.000000
v -0.988023 49.000000 45.000000
v -36.546427 48.623952 45.000000
v -42.147711 47.458499 45.000000
v -45.441986 45.367861 45.000000
v -47.489958 42.004955 45.000000
v -48.631626 36.286978 45.000000
v -49.000000 0.014263 45.000000
v -48.631626 -36.286978 45.000000
v -47.489958 -42.004955 45.000000
v -45.441986 -45.367861 45.000000
v -42.147711 -47.458499 45.000000
v -36.546427 -48.623952 45.000000
v -1.015289 -49.000000 45.000000
v 34.546427 -48.623952 45.000000
v 40.147711 -47.458499 45.000000
v 43.441986 -45.367861 45.000000
v 45.489958 -42.004955 45.000000
v 46.631626 -36.286978 45.000000
v 44.000000 0.000000 50.000000
v 43.654650 33.324775 50.000000
v 42.584336 38.575979 50.000000
v 40.664362 41.664362 50.000000
v 37.575979 43.584336 50.000000
v 32.324775 44.654650 50.000000
v -0.988772 45.000000 50.000000
v -34.324775 44.654650 50.000000
v -39.575979 43.584336 50.000000
v -42.664362 41.664362 50.000000
v -44.584336 38.575979 50.000000
v -45.654650 33.324775 50.000000
v -46.000000 0.013098 50.000000
v -45.654650 -33.324775 50.000000
v -44.584336 -38.575979 50.000000
v -42.664362 -41.664362 50.000000
v -39.575979 -43.584336 50.000000
v -34.324775 -44.654650 50.000000
v -1.014333 -45.000000 50.000000
v 32.324775 -44.654650 50.000000
v 37.575979 -43.584336 50.000000
v 40.664362 -41.664362 50.000000
v 42.584336 -38.575979 50.000000
v 43.654650 -33.324775 50.000000
v -0.000126 0.000534 -50.000000
v -1.000129 0.000546 50.000000
vt 0.000000 0.000000
vt 0.102037 0.000000
vt 0.115310 0.000000
vt 0.125000 0.000000
vt 0.134690 0.000000
vt 0.147963 0.000000
vt 0.249960 0.000000
vt 0.352037 0.000000
vt 0.365310 0.000000
vt 0.375000 0.000000
vt 0.384690 0.000000
vt 0.397963 0.000000
vt 0.499954 0.000000
vt 0.602037 0.000000
vt 0.615310 0.000000
vt 0.625000 0.000000
vt 0.634690 0.000000
vt 0.647963 0.000000
vt 0.749949 0.000000
vt 0.852037 0.000000
vt 0.865310 0.000000
vt 0.875000 0.000000
vt 0.884690 0.000000
vt 0.897963 0.000000
vt 0.000000 0.070000
vt 0.100468 0.070000
vt 0.113684 0.070000
vt 0.123359 0.070000
vt 0.133059 0.070000
vt 0.146386 0.070000
vt 0.249959 0.070000
vt 0.353614 0.070000
vt 0.366941 0.070000
vt 0.376641 0.070000
vt 0.386316 0.070000
vt 0.399532 0.070000
vt 0.499955 0.070000
vt 0.600468 0.070000
vt 0.613684 0.070000
vt 0.623359 0.070000
vt 0.633059 0.070000
vt 0.646386 0.070000
vt 0.749948 0.070000
vt 0.853614 0.070000
vt 0.866941 0.070000
vt 0.876641 0.070000
vt 0.886316 0.070000
vt 0.899532 0.070000
vt 0.000000 0.700000
vt 0.102037 0.700000
vt 0.115310 0.700000
vt 0.125000 0.700000
vt 0.134690 0.700000
vt 0.147963 0.700000
vt 0.249960 0.700000
vt 0.352037 0.700000
vt 0.365310 0.700000
vt 0.375000 0.700000
vt 0.384690 0.700000
vt 0.397963 0.700000
vt 0.499954 0.700000
vt 0.602037 0.700000
vt 0.615310 0.700000
vt 0.625000 0.700000
vt 0.634690 0.700000
vt 0.647963 0.700000
vt 0.749949 0.700000
vt 0.852037 0.700000
vt 0.865310 0.700000
vt 0.875000 0.700000
vt 0.884690 0.700000
vt 0.897963 0.700000
vt 0.000000 0.950000
vt 0.105246 0.950000
vt 0.118664 0.950000
vt 0.128451 0.950000
vt 0.138251 0.950000
vt 0.151686 0.950000
vt 0.253209 0.950000
vt 0.352581 0.950000
vt 0.365578 0.950000
vt 0.375130 0.950000
vt 0.384742 0.950000
vt 0.397975 0.950000
vt 0.499954 0.950000
vt 0.602025 0.950000
vt 0.615258 0.950000
vt 0.624870 0.950000
vt 0.634422 0.950000
vt 0.647419 0.950000
vt 0.746703 0.950000
vt 0.848314 0.950000
vt 0.861749 0.950000
vt 0.871549 0.950000
vt 0.881336 0.950000
vt 0.894754 0.950000
vt 0.000000 1.000000
vt 0.103770 1.000000
vt 0.117146 1.000000
vt 0.126933 1.000000
vt 0.136761 1.000000
vt 0.150277 1.000000
vt 0.253497 1.000000
vt 0.354301 1.000000
vt 0.367335 1.000000
vt 0.376887 1.000000
vt 0.386479 1.000000
vt 0.399648 1.000000
vt 0.499955 1.000000
vt 0.600352 1.000000
vt 0.613521 1.000000
vt 0.623113 1.000000
vt 0.632665 1.000000
vt 0.645699 1.000000
vt 0.746413 1.000000
vt 0.849723 1.000000
vt 0.863239 1.000000
vt 0.873067 1.000000
vt 0.882854 1.000000
vt 0.896230 1.000000
vt 0.287043 0.000000
vt 0.499913 1.000000
vn 0.204724 0.000764 -0.978819
vn 0.156445 0.009208 -0.987644
vn 0.149108 0.065310 -0.986662
vn 0.103934 0.123613 -0.986873
vn 0.052856 0.180353 -0.982181
vn 0.005962 0.251682 -0.967792
vn -0.000770 0.212043 -0.977260
vn -0.009311 0.160157 -0.987048
vn -0.065524 0.151785 -0.986239
vn -0.122254 0.104290 -0.987004
vn -0.175765 0.052252 -0.983045
vn -0.241468 0.005804 -0.970391
vn -0.204748 -0.000764 -0.978814
vn -0.156441 -0.009205 -0.987644
vn -0.149108 -0.065310 -0.986662
vn -0.103934 -0.123612 -0.986873
vn -0.052855 -0.180350 -0.982181
vn -0.005962 -0.251676 -0.967793
vn 0.000770 -0.212045 -0.977260
vn 0.009310 -0.160152 -0.987048
vn 0.065523 -0.151783 -0.986240
vn 0.122252 -0.104289 -0.987005
vn 0.175763 -0.052251 -0.983045
vn 0.241473 -0.005802 -0.970390
vn 0.996559 0.002884 -0.082839
vn 0.991310 0.052814 -0.120477
vn 0.915654 0.386905 -0.109006
vn 0.650880 0.751165 -0.110030
vn 0.289495 0.952514 -0.094390
vn 0.025785 0.997437 -0.066743
vn -0.002844 0.996510 -0.083430
vn -0.051341 0.992368 -0.112111
vn -0.378130 0.919730 -0.105423
vn -0.742511 0.661279 -0.106709
vn -0.950532 0.296969 -0.091091
vn -0.997827 0.026510 -0.060325
vn -0.996560 -0.002883 -0.082823
vn -0.991310 -0.052798 -0.120482
vn -0.915654 -0.386905 -0.109006
vn -0.650880 -0.751165 -0.110030
vn -0.289495 -0.952514 -0.094390
vn -0.025787 -0.997437 -0.066744
vn 0.002844 -0.996510 -0.083427
vn 0.051338 -0.992369 -0.112112
vn 0.378130 -0.919730 -0.105423
vn 0.742511 -0.661279 -0.106709
vn 0.950532 -0.296969 -0.091091
vn 0.997827 -0.026501 -0.060322
vn 0.999738 -0.001498 0.022849
vn 0.999462 0.030962 0.010793
vn 0.948682 0.315884 0.014843
vn 0.728980 0.684495 0.007446
vn 0.360073 0.932922 -0.001980
vn 0.043738 0.999038 -0.003170
vn 0.001425 0.999934 -0.011438
vn -0.030750 0.999372 -0.017617
vn -0.314325 0.949231 -0.012685
vn -0.682405 0.730923 -0.008669
vn -0.932210 0.361906 -0.002867
vn -0.999021 0.043901 0.005433
vn -0.999999 0.001499 0.000021
vn -0.999508 -0.030953 -0.004987
vn -0.948778 -0.315916 -0.004291
vn -0.728980 -0.684495 -0.007446
vn -0.360059 -0.932885 -0.009153
vn -0.043741 -0.999035 -0.003946
vn -0.001425 -0.999934 -0.011360
vn 0.030748 -0.999387 -0.016735
vn 0.314347 -0.949297 -0.004517
vn 0.682405 -0.730923 0.008669
vn 0.932007 -0.361827 0.021090
vn 0.998358 -0.043858 0.036837
vn 0.981005 -0.002360 0.193970
vn 0.984759 0.026820 0.171845
vn 0.932172 0.290181 0.216449
vn 0.727803 0.643633 0.236727
vn 0.372058 0.901579 0.220744
vn 0.048922 0.973692 0.222556
vn 0.002407 0.986943 0.161051
vn -0.027760 0.992185 0.121645
vn -0.300406 0.938786 0.168631
vn -0.661047 0.727256 0.184702
vn -0.914186 0.367065 0.171837
vn -0.983548 0.048021 0.174148
vn -0.991564 0.002386 0.129599
vn -0.994368 -0.027072 0.102464
vn -0.943391 -0.293674 0.154170
vn -0.735623 -0.650549 0.188798
vn -0.374058 -0.906425 0.196146
vn -0.048963 -0.974432 0.219282
vn -0.002408 -0.986979 0.160828
vn 0.027751 -0.991973 0.123364
vn 0.299367 -0.935539 0.187473
vn 0.655239 -0.720866 0.225864
vn 0.903413 -0.362740 0.228614
vn 0.971753 -0.047430 0.231186
vn 0.153724 -0.000550 0.988114
vn 0.184169 0.004389 0.982885
vn 0.130471 0.038350 0.990710
vn 0.089095 0.075101 0.993188
vn 0.046996 0.107607 0.993082
vn 0.006576 0.112515 0.993628
vn 0.000546 0.148275 0.988946
vn -0.004262 0.176388 0.984311
vn -0.037884 0.127084 0.991168
vn -0.075343 0.088117 0.993257
vn -0.109564 0.047170 0.992860
vn -0.115222 0.006654 0.993317
vn -0.153706 0.000550 0.988117
vn -0.184175 -0.004387 0.982884
vn -0.130471 -0.038350 0.990710
vn -0.089095 -0.075100 0.993188
vn -0.046995 -0.107606 0.993082
vn -0.006576 -0.112513 0.993628
vn -0.000546 -0.148268 0.988947
vn 0.004262 -0.176386 0.984312
vn 0.037883 -0.127082 0.991169
vn 0.075342 -0.088116 0.993257
vn 0.109563 -0.047170 0.992860
vn 0.115218 -0.006652 0.993318
vn 0.000000 0.000000 -1.000000
vn 0.000000 0.000000 1.000000
f 1/1/1 2/2/2 26/26/26
f 1/1/1 26/26/26 25/25/25
f 2/2/2 3/3/3 27/27/27
f 2/2/2 27/27/27 26/26/26
f 3/3/3 4/4/4 28/28/28
f 3/3/3 28/28/28 27/27/27
f 4/4/4 5/5/5 29/29/29
f 4/4/4 29/29/29 28/28/28
f 5/5/5 6/6/6 30/30/30
f 5/5/5 30/30/30 29/29/29
f 6/6/6 7/7/7 31/31/31
f 6/6/6 31/31/31 30/30/30
f 7/7/7 8/8/8 32/32/32
f 7/7/7 32/32/32 31/31/31
f 8/8/8 9/9/9 33/33/33
f 8/8/8 33/33/33 32/32/32
f 9/9/9 10/10/10 34/34/34
f 9/9/9 34/34/34 33/33/33
f 10/10/10 11/11/11 35/35/35
f 10/10/10 35/35/35 34/34/34
f 11/11/11 12/12/12 36/36/36
f 11/11/11 36/36/36 35/35/35
f 12/12/12 13/13/13 37/37/37
f 12/12/12 37/37/37 36/36/36
f 13/13/13 14/14/14 38/38/38
f 13/13/13 38/38/38 37/37/37
f 14/14/14 15/15/15 39/39/39
f 14/14/14 39/39/39 38/38/38
f 15/15/15 16/16/16 40/40/40
f 15/15/15 40/40/40 39/39/39
f 16/16/16 17/17/17 41/41/41
f 16/16/16 41/41/41 40/40/40
f 17/17/17 18/18/18 42/42/42
f 17/17/17 42/42/42 41/41/41
f 18/18/18 19/19/19 43/43/43
f 18/18/18 43/43/43 42/42/42
f 19/19/19 20/20/20 44/44/44
f 19/19/19 44/44/44 43/43/43
f 20/20/20 21/21/21 45/45/45
f 20/20/20 45/45/45 44/44/44
f 21/21/21 22/22/22 46/46/46
f 21/21/21 46/46/46 45/45/45
f 22/22/22 23/23/23 47/47/47
f 22/22/22 47/47/47 46/46/46
f 23/23/23 24/24/24 48/48/48
f 23/23/23 48/48/48 47/47/47
f 24/24/24 1/1/1 25/25/25
f 24/24/24 25/25/25 48/48/48
f 25/25/25 26/26/26 50/50/50
f 25/25/25 50/50/50 49/49/49
f 26/26/26 27/27/27 51/51/51
f 26/26/26 51/51/51 50/50/50
f 27/27/27 28/28/28 52/52/52
f 27/27/27 52/52/52 51/51/51
f 28/28/28 29/29/29 53/53/53
f 28/28/28 53/53/53 52/52/52
f 29/29/29 30/30/30 54/54/54
f 29/29/29 54/54/54 53/53/53
f 30/30/30 31/31/31 55/55/55
f 30/30/30 55/55/55 54/54/54
f 31/31/31 32/32/32 56/56/56
f 31/31/31 56/56/56 55/55/55
f 32/32/32 33/33/33 57/57/57
f 32/32/32 57/57/57 56/56/56
f 33/33/33 34/34/34 58/58/58
f 33/33/33 58/58/58 57/57/57
f 34/34/34 35/35/35 59/59/59
f 34/34/34 59/59/59 58/58/58
f 35/35/35 36/36/36 60/60/60
f 35/35/35 60/60/60 59/59/59
f 36/36/36 37/37/37 61/61/61
f 36/36/36 61/61/61 60/60/60
f 37/37/37 38/38/38 62/62/62
f 37/37/37 62/62/62 61/61/61
f 38/38/38 39/39/39 63/63/63
f 38/38/38 63/63/63 62/62/62
f 39/39/39 40/40/40 64/64/64
f 39/39/39 64/64/64 63/63/63
f 40/40/40 41/41/41 65/65/65
f 40/40/40 65/65/65 64/64/64
f 41/41/41 42/42/42 66/66/66
f 41/41/41 66/66/66 65/65/65
f 42/42/42 43/43/43 67/67/67
f 42/42/42 67/67/67 66/66/66
f 43/43/43 44/44/44 68/68/68
f 43/43/43 68/68/68 67/67/67
f 44/44/44 45/45/45 69/69/69
f 44/44/44 69/69/69 68/68/68
f 45/45/45 46/46/46 70/70/70
f 45/45/45 70/70/70 69/69/69
f 46/46/46 47/47/47 71/71/71
f 46/46/46 71/71/71 70/70/70
f 47/47/47 48/48/48 72/72/72
f 47/47/47 72/72/72 71/71/71
f 48/48/48 25/25/25 49/49/49
f 48/48/48 49/49/49 72/72/72
f 49/49/49 50/50/50 74/74/74
f 49/49/49 74/74/74 73/73/73
f 50/50/50 51/51/51 75/75/75
f 50/50/50 75/75/75 74/74/74
f 51/51/51 52/52/52 76/76/76
f 51/51/51 76/76/76 75/75/75
f 52/52/52 53/53/53 77/77/77
f 52/52/52 77/77/77 76/76/76
f 53/53/53 54/54/54 78/78/78
f 53/53/53 78/78/78 77/77/77
f 54/54/54 55/55/55 79/79/79
f 54/54/54 79/79/79 78/78/78
f 55/55/55 56/56/56 80/80/80
f 55/55/55 80/80/80 79/79/79
f 56/56/56 57/57/57 81/81/81
f 56/56/56 81/81/81 80/80/80
f 57/57/57 58/58/58 82/82/82
f 57/57/57 82/82/82 81/81/81
f 58/58/58 59/59/59 83/83/83
f 58/58/58 83/83/83 82/82/82
f 59/59/59 60/60/60 84/84/84
f 59/59/59 84/84/84 83/83/83
f 60/60/60 61/61/61 85/85/85
f 60/60/60 85/85/85 84/84/84
f 61/61/61 62/62/62 86/86/86
f 61/61/61 86/86/86 85/85/85
f 62/62/62 63/63/63 87/87/87
f 62/62/62 87/87/87 86/86/86
f 63/63/63 64/64/64 88/88/88
f 63/63/63 88/88/88 87/87/87
f 64/64/64 65/65/65 89/89/89
f 64/64/64 89/89/89 88/88/88
f 65/65/65 66/66/66 90/90/90
f 65/65/65 90/90/90 89/89/89
f 66/66/66 67/67/67 91/91/91
f 66/66/66 91/91/91 90/90/90
f 67/67/67 68/68/68 92/92/92
f 67/67/67 92/92/92 91/91/91
f 68/68/68 69/69/69 93/93/93
f 68/68/68 93/93/93 92/92/92
f 69/69/69 70/70/70 94/94/94
f 69/69/69 94/94/94 93/93/93
f 70/70/70 71/71/71 95/95/95
f 70/70/70 95/95/95 94/94/94
f 71/71/71 72/72/72 96/96/96
f 71/71/71 96/96/96 95/95/95
f 72/72/72 49/49/49 73/73/73
f 72/72/72 73/73/73 96/96/96
f 73/73/73 74/74/74 98/98/98
f 73/73/73 98/98/98 97/97/97
f 74/74/74 75/75/75 99/99/99
f 74/74/74 99/99/99 98/98/98
f 75/75/75 76/76/76 100/100/100
f 75/75/75 100/100/100 99/99/99
f 76/76/76 77/77/77 101/101/101
f 76/76/76 101/101/101 100/100/100
f 77/77/77 78/78/78 102/102/102
f 77/77/77 102/102/102 101/101/101
f 78/78/78 79/79/79 103/103/103
f 78/78/78 103/103/103 102/102/102
f 79/79/79 80/80/80 104/104/104
f 79/79/79 104/104/104 103/103/103
f 80/80/80 81/81/81 105/105/105
f 80/80/80 105/105/105 104/104/104
f 81/81/81 82/82/82 106/106/106
f 81/81/81 106/106/106 105/105/105
f 82/82/82 83/83/83 107/107/107
f 82/82/82 107/107/107 106/106/106
f 83/83/83 84/84/84 108/108/108
f 83/83/83 108/108/108 107/107/107
f 84/84/84 85/85/85 109/109/109
f 84/84/84 109/109/109 108/108/108
f 85/85/85 86/86/86 110/110/110
f 85/85/85 110/110/110 109/109/109
f 86/86/86 87/87/87 111/111/111
f 86/86/86 111/111/111 110/110/110
f 87/87/87 88/88/88 112/112/112
f 87/87/87 112/112/112 111/111/111
f 88/88/88 89/89/89 113/113/113
f 88/88/88 113/113/113 112/112/112
f 89/89/89 90/90/90 114/114/114
f 89/89/89 114/114/114 113/113/113
f 90/90/90 91/91/91 115/115/115
f 90/90/90 115/115/115 114/114/114
f 91/91/91 92/92/92 116/116/116
f 91/91/91 116/116/116 115/115/115
f 92/92/92 93/93/93 117/117/117
f 92/92/92 117/117/117 116/116/116
f 93/93/93 94/94/94 118/118/118
f 93/93/93 118/118/118 117/117/117
f 94/94/94 95/95/95 119/119/119
f 94/94/94 119/119/119 118/118/118
f 95/95/95 96/96/96 120/120/120
f 95/95/95 120/120/120 119/119/119
f 96/96/96 73/73/73 97/97/97
f 96/96/96 97/97/97 120/120/120
f 121/121/121 2/2/2 1/1/1
f 121/121/121 3/3/3 2/2/2
f 121/121/121 4/4/4 3/3/3
f 121/121/121 5/5/5 4/4/4
f 121/121/121 6/6/6 5/5/5
f 121/121/121 7/7/7 6/6/6
f 121/121/121 8/8/8 7/7/7
f 121/121/121 9/9/9 8/8/8
f 121/121/121 10/10/10 9/9/9
f 121/121/121 11/11/11 10/10/10
f 121/121/121 12/12/12 11/11/11
f 121/121/121 13/13/13 12/12/12
f 121/121/121 14/14/14 13/13/13
f 121/121/121 15/15/15 14/14/14
f 121/121/121 16/16/16 15/15/15
f 121/121/121 17/17/17 16/16/16
f 121/121/121 18/18/18 17/17/17
f 121/121/121 19/19/19 18/18/18
f 121/121/121 20/20/20 19/19/19
f 121/121/121 21/21/21 20/20/20
f 121/121/121 22/22/22 21/21/21
f 121/121/121 23/23/23 22/22/22
f 121/121/121 24/24/24 23/23/23
f 121/121/121 1/1/1 24/24/24
f 122/122/122 97/97/97 98/98/98
f 122/122/122 98/98/98 99/99/99
f 122/122/122 99/99/99 100/100/100
f 122/122/122 100/100/100 101/101/101
f 122/122/122 101/101/101 102/102/102
f 122/122/122 102/102/102 103/103/103
f 122/122/122 103/103/103 104/104/104
f 122/122/122 104/104/104 105/105/105
f 122/122/122 105/105/105 106/106/106
f 122/122/122 106/106/106 107/107/107
f 122/122/122 107/107/107 108/108/108
f 122/122/122 108/108/108 109/109/109
f 122/122/122 109/109/109 110/110/110
f 122/122/122 110/110/110 111/111/111
f 122/122/122 111/111/111 112/112/112
f 122/122/122 112/112/112 113/113/113
f 122/122/122 113/113/113 114/114/114
f 122/122/122 114/114/114 115/115/115
f 122/122/122 115/115/115 116/116/116
f 122/122/122 116/116/116 117/117/117
f 122/122/122 117/117/117 118/118/118
f 122/122/122 118/118/118 119/119/119
f 122/122/122 119/119/119 120/120/120
f 122/122/122 120/120/120 97/97/97
