# Original BLACKGLASS source; generator version tailored_lofts_v1
o SM_BG_Boot
s 1
v 42.000000 0.000000 -50.000000
v 41.360182 20.798863 -50.000000
v 39.411444 28.252095 -50.000000
v 36.044975 33.193850 -50.000000
v 30.976508 36.476158 -50.000000
v 23.332167 38.376177 -50.000000
v 2.000001 39.000000 -50.000000
v -19.332167 38.376177 -50.000000
v -26.976508 36.476158 -50.000000
v -32.044975 33.193850 -50.000000
v -35.411444 28.252095 -50.000000
v -37.360182 20.798863 -50.000000
v -38.000000 0.000002 -50.000000
v -37.360182 -20.798863 -50.000000
v -35.411444 -28.252095 -50.000000
v -32.044975 -33.193850 -50.000000
v -26.976508 -36.476158 -50.000000
v -19.332167 -38.376177 -50.000000
v 1.999998 -39.000000 -50.000000
v 23.332167 -38.376177 -50.000000
v 30.976508 -36.476158 -50.000000
v 36.044975 -33.193850 -50.000000
v 39.411444 -28.252095 -50.000000
v 41.360182 -20.798863 -50.000000
v 52.000000 0.000000 -44.000000
v 51.216223 25.598601 -44.000000
v 48.829019 34.771809 -44.000000
v 44.705094 40.853970 -44.000000
v 38.496222 44.893733 -44.000000
v 29.131905 47.232218 -44.000000
v 3.000001 48.000000 -44.000000
v -23.131905 47.232218 -44.000000
v -32.496222 44.893733 -44.000000
v -38.705094 40.853970 -44.000000
v -42.829019 34.771809 -44.000000
v -45.216223 25.598601 -44.000000
v -46.000000 0.000002 -44.000000
v -45.216223 -25.598601 -44.000000
v -42.829019 -34.771809 -44.000000
v -38.705094 -40.853970 -44.000000
v -32.496222 -44.893733 -44.000000
v -23.131905 -47.232218 -44.000000
v 2.999998 -48.000000 -44.000000
v 29.131905 -47.232218 -44.000000
v 38.496222 -44.893733 -44.000000
v 44.705094 -40.853970 -44.000000
v 48.829019 -34.771809 -44.000000
v 51.216223 -25.598601 -44.000000
v 52.000000 0.000000 -21.000000
v 51.216223 25.598601 -21.000000
v 48.829019 34.771809 -21.000000
v 44.705094 40.853970 -21.000000
v 38.496222 44.893733 -21.000000
v 29.131905 47.232218 -21.000000
v 3.000001 48.000000 -21.000000
v -23.131905 47.232218 -21.000000
v -32.496222 44.893733 -21.000000
v -38.705094 40.853970 -21.000000
v -42.829019 34.771809 -21.000000
v -45.216223 25.598601 -21.000000
v -46.000000 0.000002 -21.000000
v -45.216223 -25.598601 -21.000000
v -42.829019 -34.771809 -21.000000
v -38.705094 -40.853970 -21.000000
v -32.496222 -44.893733 -21.000000
v -23.131905 -47.232218 -21.000000
v 2.999998 -48.000000 -21.000000
v 29.131905 -47.232218 -21.000000
v 38.496222 -44.893733 -21.000000
v 44.705094 -40.853970 -21.000000
v 48.829019 -34.771809 -21.000000
v 51.216223 -25.598601 -21.000000
v 44.000000 0.000000 2.000000
v 43.296200 22.932080 2.000000
v 41.152588 31.149746 2.000000
v 37.449472 36.598348 2.000000
v 31.874158 40.217302 2.000000
v 23.465384 42.312196 2.000000
v 0.000001 43.000000 2.000000
v -23.465384 42.312196 2.000000
v -31.874158 40.217302 2.000000
v -37.449472 36.598348 2.000000
v -41.152588 31.149746 2.000000
v -43.296200 22.932080 2.000000
v -44.000000 0.000002 2.000000
v -43.296200 -22.932080 2.000000
v -41.152588 -31.149746 2.000000
v -37.449472 -36.598348 2.000000
v -31.874158 -40.217302 2.000000
v -23.465384 -42.312196 2.000000
v -0.000002 -43.000000 2.000000
v 23.465384 -42.312196 2.000000
v 31.874158 -40.217302 2.000000
v 37.449472 -36.598348 2.000000
v 41.152588 -31.149746 2.000000
v 43.296200 -22.932080 2.000000
v 24.000000 0.000000 19.000000
v 23.472150 20.265559 19.000000
v 21.864441 27.527682 19.000000
v 19.087104 32.342726 19.000000
v 14.905619 35.540872 19.000000
v 8.599038 37.392173 19.000000
v -8.999999 38.000000 19.000000
v -26.599038 37.392173 19.000000
v -32.905619 35.540872 19.000000
v -37.087104 32.342726 19.000000
v -39.864441 27.527682 19.000000
v -41.472150 20.265559 19.000000
v -42.000000 0.000002 19.000000
v -41.472150 -20.265559 19.000000
v -39.864441 -27.527682 19.000000
v -37.087104 -32.342726 19.000000
v -32.905619 -35.540872 19.000000
v -26.599038 -37.392173 19.000000
v -9.000002 -38.000000 19.000000
v 8.599038 -37.392173 19.000000
v 14.905619 -35.540872 19.000000
v 19.087104 -32.342726 19.000000
v 21.864441 -27.527682 19.000000
v 23.472150 -20.265559 19.000000
v 16.000000 0.000000 44.000000
v 15.520136 18.132342 44.000000
v 14.058583 24.630031 44.000000
v 11.533731 28.938228 44.000000
v 7.732381 31.799727 44.000000
v 1.999126 33.456155 44.000000
v -13.999999 34.000000 44.000000
v -29.999126 33.456155 44.000000
v -35.732381 31.799727 44.000000
v -39.533731 28.938228 44.000000
v -42.058583 24.630031 44.000000
v -43.520136 18.132342 44.000000
v -44.000000 0.000001 44.000000
v -43.520136 -18.132342 44.000000
v -42.058583 -24.630031 44.000000
v -39.533731 -28.938228 44.000000
v -35.732381 -31.799727 44.000000
v -29.999126 -33.456155 44.000000
v -14.000001 -34.000000 44.000000
v 1.999126 -33.456155 44.000000
v 7.732381 -31.799727 44.000000
v 11.533731 -28.938228 44.000000
v 14.058583 -24.630031 44.000000
v 15.520136 -18.132342 44.000000
v 11.000000 0.000000 50.000000
v 10.600114 15.999126 50.000000
v 9.382152 21.732381 50.000000
v 7.278109 25.533731 50.000000
v 4.110317 28.058583 50.000000
v -0.667395 29.520136 50.000000
v -13.999999 30.000000 50.000000
v -27.332605 29.520136 50.000000
v -32.110317 28.058583 50.000000
v -35.278109 25.533731 50.000000
v -37.382152 21.732381 50.000000
v -38.600114 15.999126 50.000000
v -39.000000 0.000001 50.000000
v -38.600114 -15.999126 50.000000
v -37.382152 -21.732381 50.000000
v -35.278109 -25.533731 50.000000
v -32.110317 -28.058583 50.000000
v -27.332605 -29.520136 50.000000
v -14.000001 -30.000000 50.000000
v -0.667395 -29.520136 50.000000
v 4.110317 -28.058583 50.000000
v 7.278109 -25.533731 50.000000
v 9.382152 -21.732381 50.000000
v 10.600114 -15.999126 50.000000
v 2.000000 0.000000 -50.000000
v -14.000000 0.000000 50.000000
vt 0.000000 0.000000
vt 0.074157 0.000000
vt 0.098986 0.000000
vt 0.118450 0.000000
vt 0.137948 0.000000
vt 0.163058 0.000000
vt 0.241845 0.000000
vt 0.324269 0.000000
vt 0.351348 0.000000
vt 0.372198 0.000000
vt 0.392823 0.000000
vt 0.419152 0.000000
vt 0.500000 0.000000
vt 0.580848 0.000000
vt 0.607177 0.000000
vt 0.627802 0.000000
vt 0.648652 0.000000
vt 0.675731 0.000000
vt 0.758155 0.000000
vt 0.836942 0.000000
vt 0.862052 0.000000
vt 0.881550 0.000000
vt 0.901014 0.000000
vt 0.925843 0.000000
vt 0.000000 0.060000
vt 0.073768 0.060000
vt 0.098487 0.060000
vt 0.117841 0.060000
vt 0.137186 0.060000
vt 0.162040 0.060000
vt 0.240066 0.060000
vt 0.322481 0.060000
vt 0.349719 0.060000
vt 0.370702 0.060000
vt 0.391466 0.060000
vt 0.418012 0.060000
vt 0.500000 0.060000
vt 0.581988 0.060000
vt 0.608534 0.060000
vt 0.629298 0.060000
vt 0.650281 0.060000
vt 0.677519 0.060000
vt 0.759934 0.060000
vt 0.837960 0.060000
vt 0.862814 0.060000
vt 0.882159 0.060000
vt 0.901513 0.060000
vt 0.926232 0.060000
vt 0.000000 0.290000
vt 0.073768 0.290000
vt 0.098487 0.290000
vt 0.117841 0.290000
vt 0.137186 0.290000
vt 0.162040 0.290000
vt 0.240066 0.290000
vt 0.322481 0.290000
vt 0.349719 0.290000
vt 0.370702 0.290000
vt 0.391466 0.290000
vt 0.418012 0.290000
vt 0.500000 0.290000
vt 0.581988 0.290000
vt 0.608534 0.290000
vt 0.629298 0.290000
vt 0.650281 0.290000
vt 0.677519 0.290000
vt 0.759934 0.290000
vt 0.837960 0.290000
vt 0.862814 0.290000
vt 0.882159 0.290000
vt 0.901513 0.290000
vt 0.926232 0.290000
vt 0.000000 0.520000
vt 0.077523 0.520000
vt 0.103120 0.520000
vt 0.123171 0.520000
vt 0.143337 0.520000
vt 0.169412 0.520000
vt 0.250000 0.520000
vt 0.330588 0.520000
vt 0.356663 0.520000
vt 0.376829 0.520000
vt 0.396880 0.520000
vt 0.422477 0.520000
vt 0.500000 0.520000
vt 0.577523 0.520000
vt 0.603120 0.520000
vt 0.623171 0.520000
vt 0.643337 0.520000
vt 0.669412 0.520000
vt 0.750000 0.520000
vt 0.830588 0.520000
vt 0.856663 0.520000
vt 0.876829 0.520000
vt 0.896880 0.520000
vt 0.922477 0.520000
vt 0.000000 0.690000
vt 0.113353 0.690000
vt 0.143169 0.690000
vt 0.165147 0.690000
vt 0.186798 0.690000
vt 0.214025 0.690000
vt 0.287013 0.690000
vt 0.348406 0.690000
vt 0.368875 0.690000
vt 0.385859 0.690000
vt 0.403816 0.690000
vt 0.427659 0.690000
vt 0.500000 0.690000
vt 0.572341 0.690000
vt 0.596184 0.690000
vt 0.614141 0.690000
vt 0.631125 0.690000
vt 0.651594 0.690000
vt 0.712987 0.690000
vt 0.785975 0.690000
vt 0.813202 0.690000
vt 0.834853 0.690000
vt 0.856831 0.690000
vt 0.886647 0.690000
vt 0.000000 0.940000
vt 0.137329 0.940000
vt 0.167452 0.940000
vt 0.189638 0.940000
vt 0.212037 0.940000
vt 0.240501 0.940000
vt 0.312167 0.940000
vt 0.366338 0.940000
vt 0.384258 0.940000
vt 0.399434 0.940000
vt 0.415684 0.940000
vt 0.437170 0.940000
vt 0.500000 0.940000
vt 0.562830 0.940000
vt 0.584316 0.940000
vt 0.600566 0.940000
vt 0.615742 0.940000
vt 0.633662 0.940000
vt 0.687833 0.940000
vt 0.759499 0.940000
vt 0.787963 0.940000
vt 0.810362 0.940000
vt 0.832548 0.940000
vt 0.862671 0.940000
vt 0.000000 1.000000
vt 0.156872 1.000000
vt 0.185138 1.000000
vt 0.205807 1.000000
vt 0.226850 1.000000
vt 0.253598 1.000000
vt 0.319491 1.000000
vt 0.368879 1.000000
vt 0.385701 1.000000
vt 0.400288 1.000000
vt 0.416189 1.000000
vt 0.437463 1.000000
vt 0.500000 1.000000
vt 0.562537 1.000000
vt 0.583811 1.000000
vt 0.599712 1.000000
vt 0.614299 1.000000
vt 0.631121 1.000000
vt 0.680509 1.000000
vt 0.746402 1.000000
vt 0.773150 1.000000
vt 0.794193 1.000000
vt 0.814862 1.000000
vt 0.843128 1.000000
vt 0.000000 0.000000
vt 0.500000 1.000000
vn 0.170082 0.001984 -0.985428
vn 0.142568 0.018955 -0.989604
vn 0.129121 0.065962 -0.989433
vn 0.093517 0.111665 -0.989336
vn 0.052004 0.152657 -0.986910
vn 0.011580 0.193869 -0.980959
vn -0.001986 0.177978 -0.984032
vn -0.018928 0.149251 -0.988618
vn -0.066379 0.136195 -0.988456
vn -0.112945 0.099149 -0.988642
vn -0.154911 0.055322 -0.986378
vn -0.197336 0.012358 -0.980258
vn -0.180137 -0.002101 -0.983639
vn -0.149600 -0.019890 -0.988547
vn -0.134861 -0.068894 -0.988467
vn -0.096492 -0.115217 -0.988643
vn -0.052909 -0.155314 -0.986447
vn -0.011624 -0.194606 -0.980813
vn 0.001985 -0.177862 -0.984053
vn 0.018810 -0.148326 -0.988760
vn 0.064958 -0.133279 -0.988947
vn 0.108890 -0.095590 -0.989447
vn 0.147399 -0.052639 -0.987675
vn 0.185368 -0.011608 -0.982601
vn 0.950303 0.006133 -0.311268
vn 0.916764 0.102785 -0.385978
vn 0.843389 0.397292 -0.361737
vn 0.625484 0.695463 -0.353697
vn 0.329871 0.890145 -0.314368
vn 0.068866 0.968926 -0.237569
vn -0.005946 0.959034 -0.283227
vn -0.100110 0.931013 -0.350987
vn -0.389418 0.861927 -0.324708
vn -0.691919 0.648846 -0.316619
vn -0.895234 0.345919 -0.280886
vn -0.974691 0.072234 -0.211563
vn -0.967320 -0.006243 -0.253480
vn -0.941954 -0.105609 -0.318698
vn -0.860989 -0.405583 -0.306921
vn -0.635078 -0.706130 -0.313140
vn -0.332356 -0.896850 -0.291889
vn -0.068959 -0.970245 -0.232097
vn 0.005947 -0.959179 -0.282737
vn 0.099931 -0.929353 -0.355412
vn 0.386536 -0.855547 -0.344426
vn 0.682564 -0.640074 -0.352721
vn 0.881012 -0.340424 -0.328526
vn 0.963330 -0.071392 -0.258646
vn 0.985717 -0.000522 0.168412
vn 0.985184 0.088352 0.146992
vn 0.907227 0.384189 0.171284
vn 0.692153 0.701858 0.168282
vn 0.377463 0.914409 0.146214
vn 0.087897 0.987754 0.128907
vn 0.000516 0.994406 0.105627
vn -0.085348 0.992493 0.087598
vn -0.374654 0.922644 0.091452
vn -0.694864 0.714621 0.080506
vn -0.916696 0.394614 0.062841
vn -0.994400 0.092280 0.051500
vn -0.999089 0.000529 0.042683
vn -0.995185 -0.089249 0.040506
vn -0.918975 -0.389164 0.063527
vn -0.699545 -0.709353 0.086340
vn -0.379550 -0.919463 0.102612
vn -0.088000 -0.988911 0.119630
vn -0.000516 -0.994283 0.106771
vn 0.085246 -0.991305 0.100239
vn 0.372375 -0.917032 0.142790
vn 0.686573 -0.706095 0.173342
vn 0.902618 -0.388554 0.185220
vn 0.976568 -0.090625 0.195197
vn 0.825528 -0.002700 0.564355
vn 0.844789 0.068704 0.530671
vn 0.777484 0.311173 0.546525
vn 0.623401 0.601141 0.500001
vn 0.367176 0.842025 0.395190
vn 0.093672 0.955552 0.279545
vn 0.002560 0.970749 0.240083
vn -0.078563 0.971135 0.225220
vn -0.361836 0.908952 0.207079
vn -0.680519 0.710505 0.179100
vn -0.906375 0.398416 0.140533
vn -0.989362 0.097633 0.107844
vn -0.995163 0.003255 0.098180
vn -0.991677 -0.080649 0.100366
vn -0.920279 -0.368324 0.131999
vn -0.709124 -0.683803 0.171922
vn -0.391203 -0.897125 0.205249
vn -0.094865 -0.967722 0.233486
vn -0.002559 -0.970231 0.242168
vn 0.077572 -0.958879 0.273007
vn 0.338414 -0.850114 0.403463
vn 0.591861 -0.617941 0.517542
vn 0.749403 -0.329416 0.574352
vn 0.794845 -0.078437 0.601722
vn 0.826072 0.000010 0.563564
vn 0.796740 0.064448 0.600876
vn 0.766281 0.288109 0.574288
vn 0.633346 0.569520 0.523946
vn 0.384499 0.828308 0.407513
vn 0.094915 0.962863 0.252755
vn -0.000816 0.976410 0.215923
vn -0.098512 0.974042 0.203810
vn -0.421261 0.895343 0.144565
vn -0.744362 0.662522 0.083603
vn -0.936767 0.348581 0.030957
vn -0.996865 0.078722 -0.007881
vn -0.999996 -0.000013 0.002984
vn -0.996474 -0.080605 0.023289
vn -0.935073 -0.351572 0.045113
vn -0.740331 -0.665723 0.093396
vn -0.416505 -0.897258 0.146465
vn -0.096390 -0.977832 0.185888
vn 0.000817 -0.977034 0.213083
vn 0.097118 -0.960261 0.261661
vn 0.392083 -0.833327 0.389663
vn 0.647533 -0.576338 0.498533
vn 0.786814 -0.292782 0.543325
vn 0.847627 -0.066937 0.526353
vn 0.924241 -0.005779 0.381767
vn 0.927934 0.057393 0.368299
vn 0.873995 0.285845 0.392971
vn 0.720252 0.572828 0.391286
vn 0.441082 0.826674 0.349367
vn 0.122122 0.948258 0.293074
vn 0.007897 0.969346 0.245571
vn -0.078434 0.972062 0.221234
vn -0.382946 0.897545 0.218553
vn -0.707129 0.681568 0.188239
vn -0.915574 0.374486 0.146576
vn -0.985384 0.097278 0.139838
vn -0.996329 0.006229 0.085383
vn -0.996712 -0.061647 0.052588
vn -0.944867 -0.309024 0.108307
vn -0.772457 -0.614347 0.160897
vn -0.460314 -0.862719 0.209349
vn -0.123546 -0.959322 0.253845
vn -0.007904 -0.970268 0.241904
vn 0.078000 -0.966690 0.243774
vn 0.370630 -0.868678 0.328683
vn 0.663510 -0.639526 0.388280
vn 0.846128 -0.346081 0.405333
vn 0.908838 -0.089721 0.407386
vn 0.275339 -0.002636 0.961344
vn 0.299615 0.015766 0.953930
vn 0.242103 0.072236 0.967558
vn 0.181994 0.133430 0.974205
vn 0.110025 0.188736 0.975845
vn 0.031747 0.210390 0.977102
vn 0.003249 0.254910 0.966959
vn -0.020416 0.280207 0.959722
vn -0.089833 0.217764 0.971859
vn -0.158671 0.156694 0.974818
vn -0.214656 0.090665 0.972472
vn -0.233376 0.025457 0.972053
vn -0.275339 0.002636 0.961344
vn -0.299615 -0.015766 0.953930
vn -0.242103 -0.072236 0.967558
vn -0.181994 -0.133430 0.974205
vn -0.110025 -0.188736 0.975845
vn -0.031747 -0.210390 0.977102
vn -0.003249 -0.254910 0.966959
vn 0.020416 -0.280207 0.959722
vn 0.089833 -0.217764 0.971859
vn 0.158671 -0.156694 0.974818
vn 0.214656 -0.090665 0.972472
vn 0.233376 -0.025457 0.972053
vn 0.000000 0.000000 -1.000000
vn 0.000000 0.000000 1.000000
f 1/1/1 2/2/2 26/26/26
f 1/1/1 26/26/26 25/25/25
f 2/2/2 3/3/3 27/27/27
f 2/2/2 27/27/27 26/26/26
f 3/3/3 4/4/4 28/28/28
f 3/3/3 28/28/28 27/27/27
f 4/4/4 5/5/5 29/29/29
f 4/4/4 29/29/29 28/28/28
f 5/5/5 6/6/6 30/30/30
f 5/5/5 30/30/30 29/29/29
f 6/6/6 7/7/7 31/31/31
f 6/6/6 31/31/31 30/30/30
f 7/7/7 8/8/8 32/32/32
f 7/7/7 32/32/32 31/31/31
f 8/8/8 9/9/9 33/33/33
f 8/8/8 33/33/33 32/32/32
f 9/9/9 10/10/10 34/34/34
f 9/9/9 34/34/34 33/33/33
f 10/10/10 11/11/11 35/35/35
f 10/10/10 35/35/35 34/34/34
f 11/11/11 12/12/12 36/36/36
f 11/11/11 36/36/36 35/35/35
f 12/12/12 13/13/13 37/37/37
f 12/12/12 37/37/37 36/36/36
f 13/13/13 14/14/14 38/38/38
f 13/13/13 38/38/38 37/37/37
f 14/14/14 15/15/15 39/39/39
f 14/14/14 39/39/39 38/38/38
f 15/15/15 16/16/16 40/40/40
f 15/15/15 40/40/40 39/39/39
f 16/16/16 17/17/17 41/41/41
f 16/16/16 41/41/41 40/40/40
f 17/17/17 18/18/18 42/42/42
f 17/17/17 42/42/42 41/41/41
f 18/18/18 19/19/19 43/43/43
f 18/18/18 43/43/43 42/42/42
f 19/19/19 20/20/20 44/44/44
f 19/19/19 44/44/44 43/43/43
f 20/20/20 21/21/21 45/45/45
f 20/20/20 45/45/45 44/44/44
f 21/21/21 22/22/22 46/46/46
f 21/21/21 46/46/46 45/45/45
f 22/22/22 23/23/23 47/47/47
f 22/22/22 47/47/47 46/46/46
f 23/23/23 24/24/24 48/48/48
f 23/23/23 48/48/48 47/47/47
f 24/24/24 1/1/1 25/25/25
f 24/24/24 25/25/25 48/48/48
f 25/25/25 26/26/26 50/50/50
f 25/25/25 50/50/50 49/49/49
f 26/26/26 27/27/27 51/51/51
f 26/26/26 51/51/51 50/50/50
f 27/27/27 28/28/28 52/52/52
f 27/27/27 52/52/52 51/51/51
f 28/28/28 29/29/29 53/53/53
f 28/28/28 53/53/53 52/52/52
f 29/29/29 30/30/30 54/54/54
f 29/29/29 54/54/54 53/53/53
f 30/30/30 31/31/31 55/55/55
f 30/30/30 55/55/55 54/54/54
f 31/31/31 32/32/32 56/56/56
f 31/31/31 56/56/56 55/55/55
f 32/32/32 33/33/33 57/57/57
f 32/32/32 57/57/57 56/56/56
f 33/33/33 34/34/34 58/58/58
f 33/33/33 58/58/58 57/57/57
f 34/34/34 35/35/35 59/59/59
f 34/34/34 59/59/59 58/58/58
f 35/35/35 36/36/36 60/60/60
f 35/35/35 60/60/60 59/59/59
f 36/36/36 37/37/37 61/61/61
f 36/36/36 61/61/61 60/60/60
f 37/37/37 38/38/38 62/62/62
f 37/37/37 62/62/62 61/61/61
f 38/38/38 39/39/39 63/63/63
f 38/38/38 63/63/63 62/62/62
f 39/39/39 40/40/40 64/64/64
f 39/39/39 64/64/64 63/63/63
f 40/40/40 41/41/41 65/65/65
f 40/40/40 65/65/65 64/64/64
f 41/41/41 42/42/42 66/66/66
f 41/41/41 66/66/66 65/65/65
f 42/42/42 43/43/43 67/67/67
f 42/42/42 67/67/67 66/66/66
f 43/43/43 44/44/44 68/68/68
f 43/43/43 68/68/68 67/67/67
f 44/44/44 45/45/45 69/69/69
f 44/44/44 69/69/69 68/68/68
f 45/45/45 46/46/46 70/70/70
f 45/45/45 70/70/70 69/69/69
f 46/46/46 47/47/47 71/71/71
f 46/46/46 71/71/71 70/70/70
f 47/47/47 48/48/48 72/72/72
f 47/47/47 72/72/72 71/71/71
f 48/48/48 25/25/25 49/49/49
f 48/48/48 49/49/49 72/72/72
f 49/49/49 50/50/50 74/74/74
f 49/49/49 74/74/74 73/73/73
f 50/50/50 51/51/51 75/75/75
f 50/50/50 75/75/75 74/74/74
f 51/51/51 52/52/52 76/76/76
f 51/51/51 76/76/76 75/75/75
f 52/52/52 53/53/53 77/77/77
f 52/52/52 77/77/77 76/76/76
f 53/53/53 54/54/54 78/78/78
f 53/53/53 78/78/78 77/77/77
f 54/54/54 55/55/55 79/79/79
f 54/54/54 79/79/79 78/78/78
f 55/55/55 56/56/56 80/80/80
f 55/55/55 80/80/80 79/79/79
f 56/56/56 57/57/57 81/81/81
f 56/56/56 81/81/81 80/80/80
f 57/57/57 58/58/58 82/82/82
f 57/57/57 82/82/82 81/81/81
f 58/58/58 59/59/59 83/83/83
f 58/58/58 83/83/83 82/82/82
f 59/59/59 60/60/60 84/84/84
f 59/59/59 84/84/84 83/83/83
f 60/60/60 61/61/61 85/85/85
f 60/60/60 85/85/85 84/84/84
f 61/61/61 62/62/62 86/86/86
f 61/61/61 86/86/86 85/85/85
f 62/62/62 63/63/63 87/87/87
f 62/62/62 87/87/87 86/86/86
f 63/63/63 64/64/64 88/88/88
f 63/63/63 88/88/88 87/87/87
f 64/64/64 65/65/65 89/89/89
f 64/64/64 89/89/89 88/88/88
f 65/65/65 66/66/66 90/90/90
f 65/65/65 90/90/90 89/89/89
f 66/66/66 67/67/67 91/91/91
f 66/66/66 91/91/91 90/90/90
f 67/67/67 68/68/68 92/92/92
f 67/67/67 92/92/92 91/91/91
f 68/68/68 69/69/69 93/93/93
f 68/68/68 93/93/93 92/92/92
f 69/69/69 70/70/70 94/94/94
f 69/69/69 94/94/94 93/93/93
f 70/70/70 71/71/71 95/95/95
f 70/70/70 95/95/95 94/94/94
f 71/71/71 72/72/72 96/96/96
f 71/71/71 96/96/96 95/95/95
f 72/72/72 49/49/49 73/73/73
f 72/72/72 73/73/73 96/96/96
f 73/73/73 74/74/74 98/98/98
f 73/73/73 98/98/98 97/97/97
f 74/74/74 75/75/75 99/99/99
f 74/74/74 99/99/99 98/98/98
f 75/75/75 76/76/76 100/100/100
f 75/75/75 100/100/100 99/99/99
f 76/76/76 77/77/77 101/101/101
f 76/76/76 101/101/101 100/100/100
f 77/77/77 78/78/78 102/102/102
f 77/77/77 102/102/102 101/101/101
f 78/78/78 79/79/79 103/103/103
f 78/78/78 103/103/103 102/102/102
f 79/79/79 80/80/80 104/104/104
f 79/79/79 104/104/104 103/103/103
f 80/80/80 81/81/81 105/105/105
f 80/80/80 105/105/105 104/104/104
f 81/81/81 82/82/82 106/106/106
f 81/81/81 106/106/106 105/105/105
f 82/82/82 83/83/83 107/107/107
f 82/82/82 107/107/107 106/106/106
f 83/83/83 84/84/84 108/108/108
f 83/83/83 108/108/108 107/107/107
f 84/84/84 85/85/85 109/109/109
f 84/84/84 109/109/109 108/108/108
f 85/85/85 86/86/86 110/110/110
f 85/85/85 110/110/110 109/109/109
f 86/86/86 87/87/87 111/111/111
f 86/86/86 111/111/111 110/110/110
f 87/87/87 88/88/88 112/112/112
f 87/87/87 112/112/112 111/111/111
f 88/88/88 89/89/89 113/113/113
f 88/88/88 113/113/113 112/112/112
f 89/89/89 90/90/90 114/114/114
f 89/89/89 114/114/114 113/113/113
f 90/90/90 91/91/91 115/115/115
f 90/90/90 115/115/115 114/114/114
f 91/91/91 92/92/92 116/116/116
f 91/91/91 116/116/116 115/115/115
f 92/92/92 93/93/93 117/117/117
f 92/92/92 117/117/117 116/116/116
f 93/93/93 94/94/94 118/118/118
f 93/93/93 118/118/118 117/117/117
f 94/94/94 95/95/95 119/119/119
f 94/94/94 119/119/119 118/118/118
f 95/95/95 96/96/96 120/120/120
f 95/95/95 120/120/120 119/119/119
f 96/96/96 73/73/73 97/97/97
f 96/96/96 97/97/97 120/120/120
f 97/97/97 98/98/98 122/122/122
f 97/97/97 122/122/122 121/121/121
f 98/98/98 99/99/99 123/123/123
f 98/98/98 123/123/123 122/122/122
f 99/99/99 100/100/100 124/124/124
f 99/99/99 124/124/124 123/123/123
f 100/100/100 101/101/101 125/125/125
f 100/100/100 125/125/125 124/124/124
f 101/101/101 102/102/102 126/126/126
f 101/101/101 126/126/126 125/125/125
f 102/102/102 103/103/103 127/127/127
f 102/102/102 127/127/127 126/126/126
f 103/103/103 104/104/104 128/128/128
f 103/103/103 128/128/128 127/127/127
f 104/104/104 105/105/105 129/129/129
f 104/104/104 129/129/129 128/128/128
f 105/105/105 106/106/106 130/130/130
f 105/105/105 130/130/130 129/129/129
f 106/106/106 107/107/107 131/131/131
f 106/106/106 131/131/131 130/130/130
f 107/107/107 108/108/108 132/132/132
f 107/107/107 132/132/132 131/131/131
f 108/108/108 109/109/109 133/133/133
f 108/108/108 133/133/133 132/132/132
f 109/109/109 110/110/110 134/134/134
f 109/109/109 134/134/134 133/133/133
f 110/110/110 111/111/111 135/135/135
f 110/110/110 135/135/135 134/134/134
f 111/111/111 112/112/112 136/136/136
f 111/111/111 136/136/136 135/135/135
f 112/112/112 113/113/113 137/137/137
f 112/112/112 137/137/137 136/136/136
f 113/113/113 114/114/114 138/138/138
f 113/113/113 138/138/138 137/137/137
f 114/114/114 115/115/115 139/139/139
f 114/114/114 139/139/139 138/138/138
f 115/115/115 116/116/116 140/140/140
f 115/115/115 140/140/140 139/139/139
f 116/116/116 117/117/117 141/141/141
f 116/116/116 141/141/141 140/140/140
f 117/117/117 118/118/118 142/142/142
f 117/117/117 142/142/142 141/141/141
f 118/118/118 119/119/119 143/143/143
f 118/118/118 143/143/143 142/142/142
f 119/119/119 120/120/120 144/144/144
f 119/119/119 144/144/144 143/143/143
f 120/120/120 97/97/97 121/121/121
f 120/120/120 121/121/121 144/144/144
f 121/121/121 122/122/122 146/146/146
f 121/121/121 146/146/146 145/145/145
f 122/122/122 123/123/123 147/147/147
f 122/122/122 147/147/147 146/146/146
f 123/123/123 124/124/124 148/148/148
f 123/123/123 148/148/148 147/147/147
f 124/124/124 125/125/125 149/149/149
f 124/124/124 149/149/149 148/148/148
f 125/125/125 126/126/126 150/150/150
f 125/125/125 150/150/150 149/149/149
f 126/126/126 127/127/127 151/151/151
f 126/126/126 151/151/151 150/150/150
f 127/127/127 128/128/128 152/152/152
f 127/127/127 152/152/152 151/151/151
f 128/128/128 129/129/129 153/153/153
f 128/128/128 153/153/153 152/152/152
f 129/129/129 130/130/130 154/154/154
f 129/129/129 154/154/154 153/153/153
f 130/130/130 131/131/131 155/155/155
f 130/130/130 155/155/155 154/154/154
f 131/131/131 132/132/132 156/156/156
f 131/131/131 156/156/156 155/155/155
f 132/132/132 133/133/133 157/157/157
f 132/132/132 157/157/157 156/156/156
f 133/133/133 134/134/134 158/158/158
f 133/133/133 158/158/158 157/157/157
f 134/134/134 135/135/135 159/159/159
f 134/134/134 159/159/159 158/158/158
f 135/135/135 136/136/136 160/160/160
f 135/135/135 160/160/160 159/159/159
f 136/136/136 137/137/137 161/161/161
f 136/136/136 161/161/161 160/160/160
f 137/137/137 138/138/138 162/162/162
f 137/137/137 162/162/162 161/161/161
f 138/138/138 139/139/139 163/163/163
f 138/138/138 163/163/163 162/162/162
f 139/139/139 140/140/140 164/164/164
f 139/139/139 164/164/164 163/163/163
f 140/140/140 141/141/141 165/165/165
f 140/140/140 165/165/165 164/164/164
f 141/141/141 142/142/142 166/166/166
f 141/141/141 166/166/166 165/165/165
f 142/142/142 143/143/143 167/167/167
f 142/142/142 167/167/167 166/166/166
f 143/143/143 144/144/144 168/168/168
f 143/143/143 168/168/168 167/167/167
f 144/144/144 121/121/121 145/145/145
f 144/144/144 145/145/145 168/168/168
f 169/169/169 2/2/2 1/1/1
f 169/169/169 3/3/3 2/2/2
f 169/169/169 4/4/4 3/3/3
f 169/169/169 5/5/5 4/4/4
f 169/169/169 6/6/6 5/5/5
f 169/169/169 7/7/7 6/6/6
f 169/169/169 8/8/8 7/7/7
f 169/169/169 9/9/9 8/8/8
f 169/169/169 10/10/10 9/9/9
f 169/169/169 11/11/11 10/10/10
f 169/169/169 12/12/12 11/11/11
f 169/169/169 13/13/13 12/12/12
f 169/169/169 14/14/14 13/13/13
f 169/169/169 15/15/15 14/14/14
f 169/169/169 16/16/16 15/15/15
f 169/169/169 17/17/17 16/16/16
f 169/169/169 18/18/18 17/17/17
f 169/169/169 19/19/19 18/18/18
f 169/169/169 20/20/20 19/19/19
f 169/169/169 21/21/21 20/20/20
f 169/169/169 22/22/22 21/21/21
f 169/169/169 23/23/23 22/22/22
f 169/169/169 24/24/24 23/23/23
f 169/169/169 1/1/1 24/24/24
f 170/170/170 145/145/145 146/146/146
f 170/170/170 146/146/146 147/147/147
f 170/170/170 147/147/147 148/148/148
f 170/170/170 148/148/148 149/149/149
f 170/170/170 149/149/149 150/150/150
f 170/170/170 150/150/150 151/151/151
f 170/170/170 151/151/151 152/152/152
f 170/170/170 152/152/152 153/153/153
f 170/170/170 153/153/153 154/154/154
f 170/170/170 154/154/154 155/155/155
f 170/170/170 155/155/155 156/156/156
f 170/170/170 156/156/156 157/157/157
f 170/170/170 157/157/157 158/158/158
f 170/170/170 158/158/158 159/159/159
f 170/170/170 159/159/159 160/160/160
f 170/170/170 160/160/160 161/161/161
f 170/170/170 161/161/161 162/162/162
f 170/170/170 162/162/162 163/163/163
f 170/170/170 163/163/163 164/164/164
f 170/170/170 164/164/164 165/165/165
f 170/170/170 165/165/165 166/166/166
f 170/170/170 166/166/166 167/167/167
f 170/170/170 167/167/167 168/168/168
f 170/170/170 168/168/168 145/145/145
