# Original BLACKGLASS source; generator version tailored_lofts_v1
o SM_BG_Collar
s 1
v 35.000000 0.000000 -50.000000
v 34.189118 20.276732 -50.000000
v 31.744101 30.221458 -50.000000
v 27.611376 37.285212 -50.000000
v 21.622540 42.159709 -50.000000
v 13.191143 45.043575 -50.000000
v -4.000000 46.000000 -50.000000
v -21.191143 45.043575 -50.000000
v -29.622540 42.159709 -50.000000
v -35.611376 37.285212 -50.000000
v -39.744101 30.221458 -50.000000
v -42.189118 20.276732 -50.000000
v -43.000000 0.000000 -50.000000
v -42.189118 -20.276732 -50.000000
v -39.744101 -30.221458 -50.000000
v -35.611376 -37.285212 -50.000000
v -29.622540 -42.159709 -50.000000
v -21.191143 -45.043575 -50.000000
v -4.000000 -46.000000 -50.000000
v 13.191143 -45.043575 -50.000000
v 21.622540 -42.159709 -50.000000
v 27.611376 -37.285212 -50.000000
v 31.744101 -30.221458 -50.000000
v 34.189118 -20.276732 -50.000000
v 45.000000 0.000000 -35.000000
v 44.001991 22.039927 -35.000000
v 40.992740 32.849411 -35.000000
v 35.906309 40.527405 -35.000000
v 28.535434 45.825771 -35.000000
v 18.158330 48.960407 -35.000000
v -3.000000 50.000000 -35.000000
v -24.158330 48.960407 -35.000000
v -34.535434 45.825771 -35.000000
v -41.906309 40.527405 -35.000000
v -46.992740 32.849411 -35.000000
v -50.001991 22.039927 -35.000000
v -51.000000 0.000000 -35.000000
v -50.001991 -22.039927 -35.000000
v -46.992740 -32.849411 -35.000000
v -41.906309 -40.527405 -35.000000
v -34.535434 -45.825771 -35.000000
v -24.158330 -48.960407 -35.000000
v -3.000000 -50.000000 -35.000000
v 18.158330 -48.960407 -35.000000
v 28.535434 -45.825771 -35.000000
v 35.906309 -40.527405 -35.000000
v 40.992740 -32.849411 -35.000000
v 44.001991 -22.039927 -35.000000
v 45.000000 0.000000 25.000000
v 44.022783 20.276732 25.000000
v 41.076225 30.221458 25.000000
v 36.095760 37.285212 25.000000
v 28.878446 42.159709 25.000000
v 18.717531 45.043575 25.000000
v -2.000000 46.000000 25.000000
v -22.717531 45.043575 25.000000
v -32.878446 42.159709 25.000000
v -40.095760 37.285212 25.000000
v -45.076225 30.221458 25.000000
v -48.022783 20.276732 25.000000
v -49.000000 0.000000 25.000000
v -48.022783 -20.276732 25.000000
v -45.076225 -30.221458 25.000000
v -40.095760 -37.285212 25.000000
v -32.878446 -42.159709 25.000000
v -22.717531 -45.043575 25.000000
v -2.000000 -46.000000 25.000000
v 18.717531 -45.043575 25.000000
v 28.878446 -42.159709 25.000000
v 36.095760 -37.285212 25.000000
v 41.076225 -30.221458 25.000000
v 44.022783 -20.276732 25.000000
v 31.000000 0.000000 48.000000
v 30.272285 16.309546 48.000000
v 28.078040 24.308564 48.000000
v 24.369183 29.990279 48.000000
v 18.994587 33.911071 48.000000
v 11.427949 36.230701 48.000000
v -4.000000 37.000000 48.000000
v -19.427949 36.230701 48.000000
v -26.994587 33.911071 48.000000
v -32.369183 29.990279 48.000000
v -36.078040 24.308564 48.000000
v -38.272285 16.309546 48.000000
v -39.000000 0.000000 48.000000
v -38.272285 -16.309546 48.000000
v -36.078040 -24.308564 48.000000
v -32.369183 -29.990279 48.000000
v -26.994587 -33.911071 48.000000
v -19.427949 -36.230701 48.000000
v -4.000000 -37.000000 48.000000
v 11.427949 -36.230701 48.000000
v 18.994587 -33.911071 48.000000
v 24.369183 -29.990279 48.000000
v 28.078040 -24.308564 48.000000
v 30.272285 -16.309546 48.000000
v 28.000000 0.000000 50.000000
v 27.334661 14.987150 50.000000
v 25.328493 22.337599 50.000000
v 21.937539 27.558635 50.000000
v 17.023623 31.161524 50.000000
v 10.105553 33.293077 50.000000
v -4.000000 34.000000 50.000000
v -18.105553 33.293077 50.000000
v -25.023623 31.161524 50.000000
v -29.937539 27.558635 50.000000
v -33.328493 22.337599 50.000000
v -35.334661 14.987150 50.000000
v -36.000000 0.000000 50.000000
v -35.334661 -14.987150 50.000000
v -33.328493 -22.337599 50.000000
v -29.937539 -27.558635 50.000000
v -25.023623 -31.161524 50.000000
v -18.105553 -33.293077 50.000000
v -4.000000 -34.000000 50.000000
v 10.105553 -33.293077 50.000000
v 17.023623 -31.161524 50.000000
v 21.937539 -27.558635 50.000000
v 25.328493 -22.337599 50.000000
v 27.334661 -14.987150 50.000000
v -4.000000 0.000000 -50.000000
v -4.000000 0.000000 50.000000
vt 0.000000 0.000000
vt 0.085198 0.000000
vt 0.121090 0.000000
vt 0.148551 0.000000
vt 0.174578 0.000000
vt 0.204659 0.000000
vt 0.263805 0.000000
vt 0.319986 0.000000
vt 0.347480 0.000000
vt 0.371346 0.000000
vt 0.396529 0.000000
vt 0.428695 0.000000
vt 0.500000 0.000000
vt 0.571305 0.000000
vt 0.603471 0.000000
vt 0.628654 0.000000
vt 0.652520 0.000000
vt 0.680014 0.000000
vt 0.736195 0.000000
vt 0.795341 0.000000
vt 0.825422 0.000000
vt 0.851449 0.000000
vt 0.878910 0.000000
vt 0.914802 0.000000
vt 0.000000 0.150000
vt 0.073904 0.150000
vt 0.107519 0.150000
vt 0.134611 0.150000
vt 0.161360 0.150000
vt 0.193476 0.150000
vt 0.259538 0.150000
vt 0.322953 0.150000
vt 0.352785 0.150000
vt 0.377662 0.150000
vt 0.402903 0.150000
vt 0.433925 0.150000
vt 0.500000 0.150000
vt 0.566075 0.150000
vt 0.597097 0.150000
vt 0.622338 0.150000
vt 0.647215 0.150000
vt 0.677047 0.150000
vt 0.740462 0.150000
vt 0.806524 0.150000
vt 0.838640 0.150000
vt 0.865389 0.150000
vt 0.892481 0.150000
vt 0.926096 0.150000
vt 0.000000 0.750000
vt 0.068696 0.750000
vt 0.100954 0.750000
vt 0.127580 0.750000
vt 0.154416 0.750000
vt 0.187320 0.750000
vt 0.256915 0.750000
vt 0.324344 0.750000
vt 0.355414 0.750000
vt 0.380778 0.750000
vt 0.406000 0.750000
vt 0.436414 0.750000
vt 0.500000 0.750000
vt 0.563586 0.750000
vt 0.594000 0.750000
vt 0.619222 0.750000
vt 0.644586 0.750000
vt 0.675656 0.750000
vt 0.743085 0.750000
vt 0.812680 0.750000
vt 0.845584 0.750000
vt 0.872420 0.750000
vt 0.899046 0.750000
vt 0.931304 0.750000
vt 0.000000 0.980000
vt 0.078650 0.980000
vt 0.113568 0.980000
vt 0.141399 0.980000
vt 0.168738 0.980000
vt 0.201371 0.980000
vt 0.267139 0.980000
vt 0.328337 0.980000
vt 0.357003 0.980000
vt 0.381069 0.980000
vt 0.405636 0.980000
vt 0.435886 0.980000
vt 0.500000 0.980000
vt 0.564114 0.980000
vt 0.594364 0.980000
vt 0.618931 0.980000
vt 0.642997 0.980000
vt 0.671663 0.980000
vt 0.732861 0.980000
vt 0.798629 0.980000
vt 0.831262 0.980000
vt 0.858601 0.980000
vt 0.886432 0.980000
vt 0.921350 0.980000
vt 0.000000 1.000000
vt 0.079820 1.000000
vt 0.115027 1.000000
vt 0.142998 1.000000
vt 0.170423 1.000000
vt 0.203098 1.000000
vt 0.268638 1.000000
vt 0.329273 1.000000
vt 0.357682 1.000000
vt 0.381581 1.000000
vt 0.406025 1.000000
vt 0.436155 1.000000
vt 0.500000 1.000000
vt 0.563845 1.000000
vt 0.593975 1.000000
vt 0.618419 1.000000
vt 0.642318 1.000000
vt 0.670727 1.000000
vt 0.731362 1.000000
vt 0.796902 1.000000
vt 0.829577 1.000000
vt 0.857002 1.000000
vt 0.884973 1.000000
vt 0.920180 1.000000
vt 0.500000 0.000000
vt 0.500000 1.000000
vn 0.391737 0.006246 -0.920056
vn 0.352668 0.053850 -0.934198
vn 0.325456 0.153776 -0.932969
vn 0.253688 0.257453 -0.932395
vn 0.155445 0.353863 -0.922289
vn 0.046027 0.441240 -0.896208
vn -0.007844 0.419045 -0.907932
vn -0.070192 0.362280 -0.929423
vn -0.190481 0.317905 -0.928791
vn -0.293250 0.227349 -0.928610
vn -0.370220 0.127590 -0.920140
vn -0.431357 0.035111 -0.901498
vn -0.411418 -0.006560 -0.911423
vn -0.368815 -0.056316 -0.927795
vn -0.339143 -0.160243 -0.926987
vn -0.261929 -0.265816 -0.927758
vn -0.158469 -0.360747 -0.919102
vn -0.046282 -0.443679 -0.894990
vn 0.007836 -0.418647 -0.908115
vn 0.069586 -0.359154 -0.930681
vn 0.186084 -0.310566 -0.932160
vn 0.282948 -0.219362 -0.933713
vn 0.354075 -0.122026 -0.927222
vn 0.409979 -0.033371 -0.911484
vn 0.991281 0.009544 -0.131418
vn 0.978255 0.142325 -0.150868
vn 0.894793 0.430456 -0.118548
vn 0.690111 0.719128 -0.081254
vn 0.396836 0.917126 -0.037421
vn 0.110102 0.993918 0.002129
vn -0.009206 0.999955 0.002233
vn -0.152979 0.988181 -0.009828
vn -0.455749 0.889940 -0.017328
vn -0.742773 0.668398 -0.039139
vn -0.925321 0.374681 -0.058271
vn -0.992936 0.102640 -0.059530
vn -0.996829 -0.009597 -0.078989
vn -0.985035 -0.143311 -0.095748
vn -0.898964 -0.432462 -0.069570
vn -0.691753 -0.720839 -0.043229
vn -0.397068 -0.917663 -0.015187
vn -0.110098 -0.993883 0.008616
vn 0.009206 -0.999955 0.002233
vn 0.152963 -0.988081 -0.017278
vn 0.455444 -0.889344 -0.040483
vn 0.741121 -0.666911 -0.077254
vn 0.921706 -0.373218 -0.105676
vn 0.988793 -0.102211 -0.108816
vn 0.987827 -0.008417 0.155331
vn 0.984917 0.106967 0.135999
vn 0.909526 0.383496 0.160292
vn 0.720000 0.673059 0.169091
vn 0.436105 0.884361 0.166489
vn 0.144560 0.975754 0.164338
vn 0.008726 0.988901 0.148321
vn -0.106738 0.984273 0.140764
vn -0.383414 0.909947 0.158082
vn -0.673576 0.720611 0.164360
vn -0.885473 0.436456 0.159511
vn -0.976903 0.144642 0.157290
vn -0.990704 0.008441 0.135774
vn -0.986441 -0.107132 0.124327
vn -0.911562 -0.384354 0.146037
vn -0.721334 -0.674306 0.158080
vn -0.436541 -0.885243 0.160550
vn -0.144590 -0.975951 0.163134
vn -0.008725 -0.988753 0.149305
vn 0.106682 -0.983760 0.144345
vn 0.382767 -0.908411 0.168163
vn 0.671624 -0.718523 0.180683
vn 0.882199 -0.434843 0.180654
vn 0.972111 -0.143933 0.185159
vn 0.829757 -0.013375 0.557965
vn 0.828497 0.075742 0.554847
vn 0.767659 0.293399 0.569752
vn 0.628135 0.538806 0.561368
vn 0.406252 0.750744 0.520906
vn 0.150728 0.870038 0.469378
vn 0.014586 0.904265 0.426722
vn -0.087849 0.904262 0.417843
vn -0.334462 0.826241 0.453279
vn -0.589411 0.649955 0.479743
vn -0.778874 0.399260 0.483680
vn -0.867621 0.142348 0.476415
vn -0.890328 0.014351 0.455094
vn -0.889356 -0.081306 0.449928
vn -0.821439 -0.313954 0.476101
vn -0.663700 -0.569312 0.485166
vn -0.420065 -0.776270 0.470054
vn -0.152469 -0.880085 0.449670
vn -0.014603 -0.905310 0.424500
vn 0.087341 -0.899032 0.429084
vn 0.326240 -0.805931 0.494008
vn 0.562193 -0.619941 0.547368
vn 0.730793 -0.374613 0.570619
vn 0.809216 -0.132766 0.572313
vn 0.084010 -0.001321 0.996464
vn 0.089714 0.007891 0.995936
vn 0.073130 0.026988 0.996957
vn 0.055399 0.045882 0.997410
vn 0.034663 0.061772 0.997488
vn 0.012386 0.068652 0.997564
vn 0.001407 0.079805 0.996809
vn -0.008440 0.085275 0.996322
vn -0.028766 0.069285 0.997182
vn -0.048715 0.052288 0.997443
vn -0.065331 0.032592 0.997331
vn -0.072428 0.011617 0.997306
vn -0.084010 0.001321 0.996464
vn -0.089714 -0.007891 0.995936
vn -0.073130 -0.026988 0.996957
vn -0.055399 -0.045882 0.997410
vn -0.034663 -0.061772 0.997488
vn -0.012386 -0.068652 0.997564
vn -0.001407 -0.079805 0.996809
vn 0.008440 -0.085275 0.996322
vn 0.028766 -0.069285 0.997182
vn 0.048715 -0.052288 0.997443
vn 0.065331 -0.032592 0.997331
vn 0.072428 -0.011617 0.997306
vn 0.000000 0.000000 -1.000000
vn 0.000000 0.000000 1.000000
f 1/1/1 2/2/2 26/26/26
f 1/1/1 26/26/26 25/25/25
f 2/2/2 3/3/3 27/27/27
f 2/2/2 27/27/27 26/26/26
f 3/3/3 4/4/4 28/28/28
f 3/3/3 28/28/28 27/27/27
f 4/4/4 5/5/5 29/29/29
f 4/4/4 29/29/29 28/28/28
f 5/5/5 6/6/6 30/30/30
f 5/5/5 30/30/30 29/29/29
f 6/6/6 7/7/7 31/31/31
f 6/6/6 31/31/31 30/30/30
f 7/7/7 8/8/8 32/32/32
f 7/7/7 32/32/32 31/31/31
f 8/8/8 9/9/9 33/33/33
f 8/8/8 33/33/33 32/32/32
f 9/9/9 10/10/10 34/34/34
f 9/9/9 34/34/34 33/33/33
f 10/10/10 11/11/11 35/35/35
f 10/10/10 35/35/35 34/34/34
f 11/11/11 12/12/12 36/36/36
f 11/11/11 36/36/36 35/35/35
f 12/12/12 13/13/13 37/37/37
f 12/12/12 37/37/37 36/36/36
f 13/13/13 14/14/14 38/38/38
f 13/13/13 38/38/38 37/37/37
f 14/14/14 15/15/15 39/39/39
f 14/14/14 39/39/39 38/38/38
f 15/15/15 16/16/16 40/40/40
f 15/15/15 40/40/40 39/39/39
f 16/16/16 17/17/17 41/41/41
f 16/16/16 41/41/41 40/40/40
f 17/17/17 18/18/18 42/42/42
f 17/17/17 42/42/42 41/41/41
f 18/18/18 19/19/19 43/43/43
f 18/18/18 43/43/43 42/42/42
f 19/19/19 20/20/20 44/44/44
f 19/19/19 44/44/44 43/43/43
f 20/20/20 21/21/21 45/45/45
f 20/20/20 45/45/45 44/44/44
f 21/21/21 22/22/22 46/46/46
f 21/21/21 46/46/46 45/45/45
f 22/22/22 23/23/23 47/47/47
f 22/22/22 47/47/47 46/46/46
f 23/23/23 24/24/24 48/48/48
f 23/23/23 48/48/48 47/47/47
f 24/24/24 1/1/1 25/25/25
f 24/24/24 25/25/25 48/48/48
f 25/25/25 26/26/26 50/50/50
f 25/25/25 50/50/50 49/49/49
f 26/26/26 27/27/27 51/51/51
f 26/26/26 51/51/51 50/50/50
f 27/27/27 28/28/28 52/52/52
f 27/27/27 52/52/52 51/51/51
f 28/28/28 29/29/29 53/53/53
f 28/28/28 53/53/53 52/52/52
f 29/29/29 30/30/30 54/54/54
f 29/29/29 54/54/54 53/53/53
f 30/30/30 31/31/31 55/55/55
f 30/30/30 55/55/55 54/54/54
f 31/31/31 32/32/32 56/56/56
f 31/31/31 56/56/56 55/55/55
f 32/32/32 33/33/33 57/57/57
f 32/32/32 57/57/57 56/56/56
f 33/33/33 34/34/34 58/58/58
f 33/33/33 58/58/58 57/57/57
f 34/34/34 35/35/35 59/59/59
f 34/34/34 59/59/59 58/58/58
f 35/35/35 36/36/36 60/60/60
f 35/35/35 60/60/60 59/59/59
f 36/36/36 37/37/37 61/61/61
f 36/36/36 61/61/61 60/60/60
f 37/37/37 38/38/38 62/62/62
f 37/37/37 62/62/62 61/61/61
f 38/38/38 39/39/39 63/63/63
f 38/38/38 63/63/63 62/62/62
f 39/39/39 40/40/40 64/64/64
f 39/39/39 64/64/64 63/63/63
f 40/40/40 41/41/41 65/65/65
f 40/40/40 65/65/65 64/64/64
f 41/41/41 42/42/42 66/66/66
f 41/41/41 66/66/66 65/65/65
f 42/42/42 43/43/43 67/67/67
f 42/42/42 67/67/67 66/66/66
f 43/43/43 44/44/44 68/68/68
f 43/43/43 68/68/68 67/67/67
f 44/44/44 45/45/45 69/69/69
f 44/44/44 69/69/69 68/68/68
f 45/45/45 46/46/46 70/70/70
f 45/45/45 70/70/70 69/69/69
f 46/46/46 47/47/47 71/71/71
f 46/46/46 71/71/71 70/70/70
f 47/47/47 48/48/48 72/72/72
f 47/47/47 72/72/72 71/71/71
f 48/48/48 25/25/25 49/49/49
f 48/48/48 49/49/49 72/72/72
f 49/49/49 50/50/50 74/74/74
f 49/49/49 74/74/74 73/73/73
f 50/50/50 51/51/51 75/75/75
f 50/50/50 75/75/75 74/74/74
f 51/51/51 52/52/52 76/76/76
f 51/51/51 76/76/76 75/75/75
f 52/52/52 53/53/53 77/77/77
f 52/52/52 77/77/77 76/76/76
f 53/53/53 54/54/54 78/78/78
f 53/53/53 78/78/78 77/77/77
f 54/54/54 55/55/55 79/79/79
f 54/54/54 79/79/79 78/78/78
f 55/55/55 56/56/56 80/80/80
f 55/55/55 80/80/80 79/79/79
f 56/56/56 57/57/57 81/81/81
f 56/56/56 81/81/81 80/80/80
f 57/57/57 58/58/58 82/82/82
f 57/57/57 82/82/82 81/81/81
f 58/58/58 59/59/59 83/83/83
f 58/58/58 83/83/83 82/82/82
f 59/59/59 60/60/60 84/84/84
f 59/59/59 84/84/84 83/83/83
f 60/60/60 61/61/61 85/85/85
f 60/60/60 85/85/85 84/84/84
f 61/61/61 62/62/62 86/86/86
f 61/61/61 86/86/86 85/85/85
f 62/62/62 63/63/63 87/87/87
f 62/62/62 87/87/87 86/86/86
f 63/63/63 64/64/64 88/88/88
f 63/63/63 88/88/88 87/87/87
f 64/64/64 65/65/65 89/89/89
f 64/64/64 89/89/89 88/88/88
f 65/65/65 66/66/66 90/90/90
f 65/65/65 90/90/90 89/89/89
f 66/66/66 67/67/67 91/91/91
f 66/66/66 91/91/91 90/90/90
f 67/67/67 68/68/68 92/92/92
f 67/67/67 92/92/92 91/91/91
f 68/68/68 69/69/69 93/93/93
f 68/68/68 93/93/93 92/92/92
f 69/69/69 70/70/70 94/94/94
f 69/69/69 94/94/94 93/93/93
f 70/70/70 71/71/71 95/95/95
f 70/70/70 95/95/95 94/94/94
f 71/71/71 72/72/72 96/96/96
f 71/71/71 96/96/96 95/95/95
f 72/72/72 49/49/49 73/73/73
f 72/72/72 73/73/73 96/96/96
f 73/73/73 74/74/74 98/98/98
f 73/73/73 98/98/98 97/97/97
f 74/74/74 75/75/75 99/99/99
f 74/74/74 99/99/99 98/98/98
f 75/75/75 76/76/76 100/100/100
f 75/75/75 100/100/100 99/99/99
f 76/76/76 77/77/77 101/101/101
f 76/76/76 101/101/101 100/100/100
f 77/77/77 78/78/78 102/102/102
f 77/77/77 102/102/102 101/101/101
f 78/78/78 79/79/79 103/103/103
f 78/78/78 103/103/103 102/102/102
f 79/79/79 80/80/80 104/104/104
f 79/79/79 104/104/104 103/103/103
f 80/80/80 81/81/81 105/105/105
f 80/80/80 105/105/105 104/104/104
f 81/81/81 82/82/82 106/106/106
f 81/81/81 106/106/106 105/105/105
f 82/82/82 83/83/83 107/107/107
f 82/82/82 107/107/107 106/106/106
f 83/83/83 84/84/84 108/108/108
f 83/83/83 108/108/108 107/107/107
f 84/84/84 85/85/85 109/109/109
f 84/84/84 109/109/109 108/108/108
f 85/85/85 86/86/86 110/110/110
f 85/85/85 110/110/110 109/109/109
f 86/86/86 87/87/87 111/111/111
f 86/86/86 111/111/111 110/110/110
f 87/87/87 88/88/88 112/112/112
f 87/87/87 112/112/112 111/111/111
f 88/88/88 89/89/89 113/113/113
f 88/88/88 113/113/113 112/112/112
f 89/89/89 90/90/90 114/114/114
f 89/89/89 114/114/114 113/113/113
f 90/90/90 91/91/91 115/115/115
f 90/90/90 115/115/115 114/114/114
f 91/91/91 92/92/92 116/116/116
f 91/91/91 116/116/116 115/115/115
f 92/92/92 93/93/93 117/117/117
f 92/92/92 117/117/117 116/116/116
f 93/93/93 94/94/94 118/118/118
f 93/93/93 118/118/118 117/117/117
f 94/94/94 95/95/95 119/119/119
f 94/94/94 119/119/119 118/118/118
f 95/95/95 96/96/96 120/120/120
f 95/95/95 120/120/120 119/119/119
f 96/96/96 73/73/73 97/97/97
f 96/96/96 97/97/97 120/120/120
f 121/121/121 2/2/2 1/1/1
f 121/121/121 3/3/3 2/2/2
f 121/121/121 4/4/4 3/3/3
f 121/121/121 5/5/5 4/4/4
f 121/121/121 6/6/6 5/5/5
f 121/121/121 7/7/7 6/6/6
f 121/121/121 8/8/8 7/7/7
f 121/121/121 9/9/9 8/8/8
f 121/121/121 10/10/10 9/9/9
f 121/121/121 11/11/11 10/10/10
f 121/121/121 12/12/12 11/11/11
f 121/121/121 13/13/13 12/12/12
f 121/121/121 14/14/14 13/13/13
f 121/121/121 15/15/15 14/14/14
f 121/121/121 16/16/16 15/15/15
f 121/121/121 17/17/17 16/16/16
f 121/121/121 18/18/18 17/17/17
f 121/121/121 19/19/19 18/18/18
f 121/121/121 20/20/20 19/19/19
f 121/121/121 21/21/21 20/20/20
f 121/121/121 22/22/22 21/21/21
f 121/121/121 23/23/23 22/22/22
f 121/121/121 24/24/24 23/23/23
f 121/121/121 1/1/1 24/24/24
f 122/122/122 97/97/97 98/98/98
f 122/122/122 98/98/98 99/99/99
f 122/122/122 99/99/99 100/100/100
f 122/122/122 100/100/100 101/101/101
f 122/122/122 101/101/101 102/102/102
f 122/122/122 102/102/102 103/103/103
f 122/122/122 103/103/103 104/104/104
f 122/122/122 104/104/104 105/105/105
f 122/122/122 105/105/105 106/106/106
f 122/122/122 106/106/106 107/107/107
f 122/122/122 107/107/107 108/108/108
f 122/122/122 108/108/108 109/109/109
f 122/122/122 109/109/109 110/110/110
f 122/122/122 110/110/110 111/111/111
f 122/122/122 111/111/111 112/112/112
f 122/122/122 112/112/112 113/113/113
f 122/122/122 113/113/113 114/114/114
f 122/122/122 114/114/114 115/115/115
f 122/122/122 115/115/115 116/116/116
f 122/122/122 116/116/116 117/117/117
f 122/122/122 117/117/117 118/118/118
f 122/122/122 118/118/118 119/119/119
f 122/122/122 119/119/119 120/120/120
f 122/122/122 120/120/120 97/97/97
