# Original BLACKGLASS source; generator version tailored_lofts_v1
o SM_BG_VanCabin
s 1
v 49.000000 0.000000 -50.000000
v 48.577149 34.236574 -50.000000
v 47.269253 40.363028 -50.000000
v 44.933198 44.016194 -50.000000
v 41.203924 46.304574 -50.000000
v 34.949836 47.585779 -50.000000
v 0.004335 48.000000 -50.000000
v -34.949836 47.585779 -50.000000
v -41.203924 46.304574 -50.000000
v -44.933198 44.016194 -50.000000
v -47.269253 40.363028 -50.000000
v -48.577149 34.236574 -50.000000
v -49.000000 0.005049 -50.000000
v -48.577149 -34.236574 -50.000000
v -47.269253 -40.363028 -50.000000
v -44.933198 -44.016194 -50.000000
v -41.203924 -46.304574 -50.000000
v -34.949836 -47.585779 -50.000000
v -0.005705 -48.000000 -50.000000
v 34.949836 -47.585779 -50.000000
v 41.203924 -46.304574 -50.000000
v 44.933198 -44.016194 -50.000000
v 47.269253 -40.363028 -50.000000
v 48.577149 -34.236574 -50.000000
v 50.000000 0.000000 -43.000000
v 49.568520 35.663098 -43.000000
v 48.233931 42.044821 -43.000000
v 45.850202 45.850202 -43.000000
v 42.044821 48.233931 -43.000000
v 35.663098 49.568520 -43.000000
v 0.004423 50.000000 -43.000000
v -35.663098 49.568520 -43.000000
v -42.044821 48.233931 -43.000000
v -45.850202 45.850202 -43.000000
v -48.233931 42.044821 -43.000000
v -49.568520 35.663098 -43.000000
v -50.000000 0.005260 -43.000000
v -49.568520 -35.663098 -43.000000
v -48.233931 -42.044821 -43.000000
v -45.850202 -45.850202 -43.000000
v -42.044821 -48.233931 -43.000000
v -35.663098 -49.568520 -43.000000
v -0.005821 -50.000000 -43.000000
v 35.663098 -49.568520 -43.000000
v 42.044821 -48.233931 -43.000000
v 45.850202 -45.850202 -43.000000
v 48.233931 -42.044821 -43.000000
v 49.568520 -35.663098 -43.000000
v 44.000000 0.000000 -6.000000
v 43.594408 34.949836 -6.000000
v 42.339896 41.203924 -6.000000
v 40.099190 44.933198 -6.000000
v 36.522132 47.269253 -6.000000
v 30.523312 48.577149 -6.000000
v -2.995842 49.000000 -6.000000
v -36.523312 48.577149 -6.000000
v -42.522132 47.269253 -6.000000
v -46.099190 44.933198 -6.000000
v -48.339896 41.203924 -6.000000
v -49.594408 34.949836 -6.000000
v -50.000000 0.005155 -6.000000
v -49.594408 -34.949836 -6.000000
v -48.339896 -41.203924 -6.000000
v -46.099190 -44.933198 -6.000000
v -42.522132 -47.269253 -6.000000
v -36.523312 -48.577149 -6.000000
v -3.005472 -49.000000 -6.000000
v 30.523312 -48.577149 -6.000000
v 36.522132 -47.269253 -6.000000
v 40.099190 -44.933198 -6.000000
v 42.339896 -41.203924 -6.000000
v 43.594408 -34.949836 -6.000000
v 35.000000 0.000000 35.000000
v 34.628927 33.523312 35.000000
v 33.481181 39.522132 35.000000
v 31.431174 43.099190 35.000000
v 28.158546 45.339896 35.000000
v 22.670264 46.594408 35.000000
v -7.996196 47.000000 35.000000
v -38.670264 46.594408 35.000000
v -44.158546 45.339896 35.000000
v -47.431174 43.099190 35.000000
v -49.481181 39.522132 35.000000
v -50.628927 33.523312 35.000000
v -51.000000 0.004944 35.000000
v -50.628927 -33.523312 35.000000
v -49.481181 -39.522132 35.000000
v -47.431174 -43.099190 35.000000
v -44.158546 -45.339896 35.000000
v -38.670264 -46.594408 35.000000
v -8.005006 -47.000000 35.000000
v 22.670264 -46.594408 35.000000
v 28.158546 -45.339896 35.000000
v 31.431174 -43.099190 35.000000
v 33.481181 -39.522132 35.000000
v 34.628927 -33.523312 35.000000
v 30.000000 0.000000 46.000000
v 29.654816 30.670264 46.000000
v 28.587145 36.158546 46.000000
v 26.680162 39.431174 46.000000
v 23.635857 41.481181 46.000000
v 18.530478 42.628927 46.000000
v -9.996462 43.000000 46.000000
v -38.530478 42.628927 46.000000
v -43.635857 41.481181 46.000000
v -46.680162 39.431174 46.000000
v -48.587145 36.158546 46.000000
v -49.654816 30.670264 46.000000
v -50.000000 0.004523 46.000000
v -49.654816 -30.670264 46.000000
v -48.587145 -36.158546 46.000000
v -46.680162 -39.431174 46.000000
v -43.635857 -41.481181 46.000000
v -38.530478 -42.628927 46.000000
v -10.004657 -43.000000 46.000000
v 18.530478 -42.628927 46.000000
v 23.635857 -41.481181 46.000000
v 26.680162 -39.431174 46.000000
v 28.587145 -36.158546 46.000000
v 29.654816 -30.670264 46.000000
v 27.000000 0.000000 50.000000
v 26.680705 27.817216 50.000000
v 25.693109 32.794960 50.000000
v 23.929150 35.763158 50.000000
v 21.113167 37.622467 50.000000
v 16.390692 38.663445 50.000000
v -9.996727 39.000000 50.000000
v -36.390692 38.663445 50.000000
v -41.113167 37.622467 50.000000
v -43.929150 35.763158 50.000000
v -45.693109 32.794960 50.000000
v -46.680705 27.817216 50.000000
v -47.000000 0.004103 50.000000
v -46.680705 -27.817216 50.000000
v -45.693109 -32.794960 50.000000
v -43.929150 -35.763158 50.000000
v -41.113167 -37.622467 50.000000
v -36.390692 -38.663445 50.000000
v -10.004308 -39.000000 50.000000
v 16.390692 -38.663445 50.000000
v 21.113167 -37.622467 50.000000
v 23.929150 -35.763158 50.000000
v 25.693109 -32.794960 50.000000
v 26.680705 -27.817216 50.000000
v -0.000057 0.000210 -50.000000
v -10.000043 0.000171 50.000000
vt 0.000000 0.000000
vt 0.097710 0.000000
vt 0.112483 0.000000
vt 0.123359 0.000000
vt 0.134266 0.000000
vt 0.149178 0.000000
vt 0.249986 0.000000
vt 0.350822 0.000000
vt 0.365734 0.000000
vt 0.376641 0.000000
vt 0.387517 0.000000
vt 0.402290 0.000000
vt 0.499984 0.000000
vt 0.597710 0.000000
vt 0.612483 0.000000
vt 0.623359 0.000000
vt 0.634266 0.000000
vt 0.649178 0.000000
vt 0.749981 0.000000
vt 0.850822 0.000000
vt 0.865734 0.000000
vt 0.876641 0.000000
vt 0.887517 0.000000
vt 0.902290 0.000000
vt 0.000000 0.070000
vt 0.099261 0.070000
vt 0.114106 0.070000
vt 0.125000 0.070000
vt 0.135894 0.070000
vt 0.150739 0.070000
vt 0.249986 0.070000
vt 0.349261 0.070000
vt 0.364106 0.070000
vt 0.375000 0.070000
vt 0.385894 0.070000
vt 0.400739 0.070000
vt 0.499983 0.070000
vt 0.599261 0.070000
vt 0.614106 0.070000
vt 0.625000 0.070000
vt 0.635894 0.070000
vt 0.650739 0.070000
vt 0.749981 0.070000
vt 0.849261 0.070000
vt 0.864106 0.070000
vt 0.875000 0.070000
vt 0.885894 0.070000
vt 0.900739 0.070000
vt 0.000000 0.440000
vt 0.107554 0.440000
vt 0.122836 0.440000
vt 0.134038 0.440000
vt 0.145302 0.440000
vt 0.160714 0.440000
vt 0.259719 0.440000
vt 0.352606 0.440000
vt 0.366594 0.440000
vt 0.377038 0.440000
vt 0.387657 0.440000
vt 0.402298 0.440000
vt 0.499984 0.440000
vt 0.597702 0.440000
vt 0.612343 0.440000
vt 0.622962 0.440000
vt 0.633406 0.440000
vt 0.647394 0.440000
vt 0.740250 0.440000
vt 0.839286 0.440000
vt 0.854698 0.440000
vt 0.865962 0.440000
vt 0.877164 0.440000
vt 0.892446 0.440000
vt 0.000000 0.850000
vt 0.122418 0.850000
vt 0.138140 0.850000
vt 0.149716 0.850000
vt 0.161549 0.850000
vt 0.177931 0.850000
vt 0.276821 0.850000
vt 0.360251 0.850000
vt 0.372899 0.850000
vt 0.382610 0.850000
vt 0.392735 0.850000
vt 0.406917 0.850000
vt 0.499985 0.850000
vt 0.593083 0.850000
vt 0.607265 0.850000
vt 0.617390 0.850000
vt 0.627101 0.850000
vt 0.639749 0.850000
vt 0.723150 0.850000
vt 0.822069 0.850000
vt 0.838451 0.850000
vt 0.850284 0.850000
vt 0.861860 0.850000
vt 0.877582 0.850000
vt 0.000000 0.960000
vt 0.127679 0.960000
vt 0.143528 0.960000
vt 0.155324 0.960000
vt 0.167571 0.960000
vt 0.184738 0.960000
vt 0.286354 0.960000
vt 0.366970 0.960000
vt 0.379028 0.960000
vt 0.388366 0.960000
vt 0.398176 0.960000
vt 0.411938 0.960000
vt 0.499986 0.960000
vt 0.588062 0.960000
vt 0.601824 0.960000
vt 0.611634 0.960000
vt 0.620972 0.960000
vt 0.633030 0.960000
vt 0.713617 0.960000
vt 0.815262 0.960000
vt 0.832429 0.960000
vt 0.844676 0.960000
vt 0.856472 0.960000
vt 0.872321 0.960000
vt 0.000000 1.000000
vt 0.128319 1.000000
vt 0.144231 1.000000
vt 0.156149 1.000000
vt 0.168610 1.000000
vt 0.186184 1.000000
vt 0.289936 1.000000
vt 0.370182 1.000000
vt 0.382051 1.000000
vt 0.391252 1.000000
vt 0.400923 1.000000
vt 0.414470 1.000000
vt 0.499986 1.000000
vt 0.585530 1.000000
vt 0.599077 1.000000
vt 0.608748 1.000000
vt 0.617949 1.000000
vt 0.629818 1.000000
vt 0.710035 1.000000
vt 0.813816 1.000000
vt 0.831390 1.000000
vt 0.843851 1.000000
vt 0.855769 1.000000
vt 0.871681 1.000000
vt 0.292167 0.000000
vt 0.499997 1.000000
vn 0.206176 0.000854 -0.978515
vn 0.156064 0.010234 -0.987694
vn 0.148290 0.065797 -0.986753
vn 0.102761 0.121836 -0.987216
vn 0.052314 0.174571 -0.983254
vn 0.006648 0.240224 -0.970695
vn -0.000829 0.202916 -0.979196
vn -0.009899 0.155473 -0.987791
vn -0.064177 0.148643 -0.986806
vn -0.120662 0.104595 -0.987168
vn -0.175634 0.054105 -0.982968
vn -0.245853 0.006993 -0.969282
vn -0.206186 -0.000854 -0.978512
vn -0.156062 -0.010233 -0.987694
vn -0.148290 -0.065797 -0.986753
vn -0.102760 -0.121836 -0.987216
vn -0.052314 -0.174570 -0.983254
vn -0.006648 -0.240222 -0.970695
vn 0.000829 -0.202917 -0.979196
vn 0.009898 -0.155471 -0.987791
vn 0.064176 -0.148642 -0.986806
vn 0.120661 -0.104594 -0.987168
vn 0.175634 -0.054104 -0.982968
vn 0.245855 -0.006992 -0.969281
vn 0.993593 0.002562 0.112984
vn 0.994381 0.054446 0.090791
vn 0.922500 0.374905 0.091871
vn 0.673050 0.737316 0.058040
vn 0.311173 0.950228 0.015438
vn 0.032633 0.999460 -0.003896
vn -0.002756 0.999723 -0.023360
vn -0.055532 0.997349 -0.047014
vn -0.382906 0.923027 -0.037468
vn -0.744862 0.666255 -0.035856
vn -0.951766 0.305522 -0.028254
vn -0.999355 0.031958 -0.016355
vn -0.999737 -0.002578 -0.022789
vn -0.997945 -0.054634 -0.033483
vn -0.925982 -0.376320 -0.030684
vn -0.673850 -0.738193 -0.031576
vn -0.311107 -0.950027 -0.025712
vn -0.032634 -0.999435 -0.008085
vn 0.002756 -0.999736 -0.022811
vn 0.055549 -0.997691 -0.039088
vn 0.383124 -0.923554 0.016244
vn 0.743615 -0.665140 0.068005
vn 0.946947 -0.303976 0.104352
vn 0.991330 -0.031697 0.127519
vn 0.982088 -0.000091 0.188425
vn 0.982398 0.039570 0.182563
vn 0.927911 0.324399 0.183701
vn 0.713406 0.683483 0.154605
vn 0.354283 0.930077 0.097164
vn 0.043836 0.997918 0.047304
vn -0.000085 0.999269 0.038229
vn -0.043669 0.998484 0.033499
vn -0.355801 0.934264 0.023588
vn -0.721871 0.691976 0.008478
vn -0.943850 0.330326 -0.005640
vn -0.999077 0.040196 -0.015162
vn -0.999917 0.000092 -0.012848
vn -0.999146 -0.040240 -0.009419
vn -0.943971 -0.330014 -0.003131
vn -0.722045 -0.691760 0.010910
vn -0.355846 -0.934180 0.026105
vn -0.043854 -0.998290 0.038648
vn 0.000085 -0.999262 0.038416
vn 0.043652 -0.998133 0.042724
vn 0.354210 -0.930086 0.097340
vn 0.712997 -0.683470 0.156540
vn 0.927140 -0.324478 0.187416
vn 0.980026 -0.039425 0.194923
vn 0.966034 -0.002358 0.258403
vn 0.968735 0.029307 0.246362
vn 0.922690 0.278659 0.266444
vn 0.739776 0.622394 0.255651
vn 0.395058 0.896419 0.200902
vn 0.058259 0.986876 0.150604
vn 0.002700 0.993676 0.112250
vn -0.034957 0.995393 0.089285
vn -0.329843 0.939950 0.087739
vn -0.697598 0.713841 0.061558
vn -0.934577 0.354658 0.027990
vn -0.998656 0.050604 0.011217
vn -0.999997 0.002441 -0.000895
vn -0.999523 -0.030235 -0.006293
vn -0.957055 -0.289037 0.022448
vn -0.763774 -0.642585 0.061099
vn -0.401349 -0.910694 0.097753
vn -0.058389 -0.989041 0.135608
vn -0.002700 -0.993738 0.111700
vn 0.034924 -0.994491 0.098832
vn 0.325984 -0.928952 0.175451
vn 0.677829 -0.693612 0.243824
vn 0.899820 -0.341469 0.271520
vn 0.959285 -0.048603 0.278227
vn 0.883545 -0.001770 0.468344
vn 0.888173 0.027879 0.458662
vn 0.811995 0.249492 0.527653
vn 0.623676 0.532354 0.572388
vn 0.330646 0.762832 0.555662
vn 0.048251 0.852863 0.519901
vn 0.002121 0.884476 0.466582
vn -0.032876 0.901134 0.432292
vn -0.296482 0.830628 0.471334
vn -0.628826 0.634035 0.450086
vn -0.870485 0.324689 0.369911
vn -0.946235 0.046152 0.320171
vn -0.968039 0.001939 0.250792
vn -0.976789 -0.030657 0.211999
vn -0.901810 -0.277088 0.331604
vn -0.684565 -0.584327 0.435814
vn -0.347632 -0.802020 0.485712
vn -0.048605 -0.859104 0.509488
vn -0.002123 -0.884930 0.465719
vn 0.032760 -0.897983 0.438809
vn 0.285589 -0.800108 0.527510
vn 0.580383 -0.585191 0.566311
vn 0.788924 -0.294267 0.539450
vn 0.866994 -0.042282 0.496521
vn 0.147331 -0.000589 0.989087
vn 0.174486 0.004542 0.984649
vn 0.125225 0.035600 0.991490
vn 0.086206 0.069037 0.993882
vn 0.046091 0.098533 0.994066
vn 0.007238 0.103795 0.994572
vn 0.000617 0.135199 0.990818
vn -0.004666 0.159172 0.987240
vn -0.037121 0.115945 0.992562
vn -0.073004 0.080931 0.994043
vn -0.105614 0.043857 0.993440
vn -0.111887 0.006941 0.993697
vn -0.147325 0.000589 0.989088
vn -0.174488 -0.004542 0.984649
vn -0.125224 -0.035600 0.991490
vn -0.086206 -0.069037 0.993883
vn -0.046091 -0.098533 0.994066
vn -0.007238 -0.103794 0.994572
vn -0.000617 -0.135196 0.990819
vn 0.004666 -0.159171 0.987240
vn 0.037120 -0.115944 0.992562
vn 0.073004 -0.080930 0.994043
vn 0.105614 -0.043856 0.993440
vn 0.111885 -0.006940 0.993697
vn 0.000000 0.000000 -1.000000
vn 0.000000 0.000000 1.000000
f 1/1/1 2/2/2 26/26/26
f 1/1/1 26/26/26 25/25/25
f 2/2/2 3/3/3 27/27/27
f 2/2/2 27/27/27 26/26/26
f 3/3/3 4/4/4 28/28/28
f 3/3/3 28/28/28 27/27/27
f 4/4/4 5/5/5 29/29/29
f 4/4/4 29/29/29 28/28/28
f 5/5/5 6/6/6 30/30/30
f 5/5/5 30/30/30 29/29/29
f 6/6/6 7/7/7 31/31/31
f 6/6/6 31/31/31 30/30/30
f 7/7/7 8/8/8 32/32/32
f 7/7/7 32/32/32 31/31/31
f 8/8/8 9/9/9 33/33/33
f 8/8/8 33/33/33 32/32/32
f 9/9/9 10/10/10 34/34/34
f 9/9/9 34/34/34 33/33/33
f 10/10/10 11/11/11 35/35/35
f 10/10/10 35/35/35 34/34/34
f 11/11/11 12/12/12 36/36/36
f 11/11/11 36/36/36 35/35/35
f 12/12/12 13/13/13 37/37/37
f 12/12/12 37/37/37 36/36/36
f 13/13/13 14/14/14 38/38/38
f 13/13/13 38/38/38 37/37/37
f 14/14/14 15/15/15 39/39/39
f 14/14/14 39/39/39 38/38/38
f 15/15/15 16/16/16 40/40/40
f 15/15/15 40/40/40 39/39/39
f 16/16/16 17/17/17 41/41/41
f 16/16/16 41/41/41 40/40/40
f 17/17/17 18/18/18 42/42/42
f 17/17/17 42/42/42 41/41/41
f 18/18/18 19/19/19 43/43/43
f 18/18/18 43/43/43 42/42/42
f 19/19/19 20/20/20 44/44/44
f 19/19/19 44/44/44 43/43/43
f 20/20/20 21/21/21 45/45/45
f 20/20/20 45/45/45 44/44/44
f 21/21/21 22/22/22 46/46/46
f 21/21/21 46/46/46 45/45/45
f 22/22/22 23/23/23 47/47/47
f 22/22/22 47/47/47 46/46/46
f 23/23/23 24/24/24 48/48/48
f 23/23/23 48/48/48 47/47/47
f 24/24/24 1/1/1 25/25/25
f 24/24/24 25/25/25 48/48/48
f 25/25/25 26/26/26 50/50/50
f 25/25/25 50/50/50 49/49/49
f 26/26/26 27/27/27 51/51/51
f 26/26/26 51/51/51 50/50/50
f 27/27/27 28/28/28 52/52/52
f 27/27/27 52/52/52 51/51/51
f 28/28/28 29/29/29 53/53/53
f 28/28/28 53/53/53 52/52/52
f 29/29/29 30/30/30 54/54/54
f 29/29/29 54/54/54 53/53/53
f 30/30/30 31/31/31 55/55/55
f 30/30/30 55/55/55 54/54/54
f 31/31/31 32/32/32 56/56/56
f 31/31/31 56/56/56 55/55/55
f 32/32/32 33/33/33 57/57/57
f 32/32/32 57/57/57 56/56/56
f 33/33/33 34/34/34 58/58/58
f 33/33/33 58/58/58 57/57/57
f 34/34/34 35/35/35 59/59/59
f 34/34/34 59/59/59 58/58/58
f 35/35/35 36/36/36 60/60/60
f 35/35/35 60/60/60 59/59/59
f 36/36/36 37/37/37 61/61/61
f 36/36/36 61/61/61 60/60/60
f 37/37/37 38/38/38 62/62/62
f 37/37/37 62/62/62 61/61/61
f 38/38/38 39/39/39 63/63/63
f 38/38/38 63/63/63 62/62/62
f 39/39/39 40/40/40 64/64/64
f 39/39/39 64/64/64 63/63/63
f 40/40/40 41/41/41 65/65/65
f 40/40/40 65/65/65 64/64/64
f 41/41/41 42/42/42 66/66/66
f 41/41/41 66/66/66 65/65/65
f 42/42/42 43/43/43 67/67/67
f 42/42/42 67/67/67 66/66/66
f 43/43/43 44/44/44 68/68/68
f 43/43/43 68/68/68 67/67/67
f 44/44/44 45/45/45 69/69/69
f 44/44/44 69/69/69 68/68/68
f 45/45/45 46/46/46 70/70/70
f 45/45/45 70/70/70 69/69/69
f 46/46/46 47/47/47 71/71/71
f 46/46/46 71/71/71 70/70/70
f 47/47/47 48/48/48 72/72/72
f 47/47/47 72/72/72 71/71/71
f 48/48/48 25/25/25 49/49/49
f 48/48/48 49/49/49 72/72/72
f 49/49/49 50/50/50 74/74/74
f 49/49/49 74/74/74 73/73/73
f 50/50/50 51/51/51 75/75/75
f 50/50/50 75/75/75 74/74/74
f 51/51/51 52/52/52 76/76/76
f 51/51/51 76/76/76 75/75/75
f 52/52/52 53/53/53 77/77/77
f 52/52/52 77/77/77 76/76/76
f 53/53/53 54/54/54 78/78/78
f 53/53/53 78/78/78 77/77/77
f 54/54/54 55/55/55 79/79/79
f 54/54/54 79/79/79 78/78/78
f 55/55/55 56/56/56 80/80/80
f 55/55/55 80/80/80 79/79/79
f 56/56/56 57/57/57 81/81/81
f 56/56/56 81/81/81 80/80/80
f 57/57/57 58/58/58 82/82/82
f 57/57/57 82/82/82 81/81/81
f 58/58/58 59/59/59 83/83/83
f 58/58/58 83/83/83 82/82/82
f 59/59/59 60/60/60 84/84/84
f 59/59/59 84/84/84 83/83/83
f 60/60/60 61/61/61 85/85/85
f 60/60/60 85/85/85 84/84/84
f 61/61/61 62/62/62 86/86/86
f 61/61/61 86/86/86 85/85/85
f 62/62/62 63/63/63 87/87/87
f 62/62/62 87/87/87 86/86/86
f 63/63/63 64/64/64 88/88/88
f 63/63/63 88/88/88 87/87/87
f 64/64/64 65/65/65 89/89/89
f 64/64/64 89/89/89 88/88/88
f 65/65/65 66/66/66 90/90/90
f 65/65/65 90/90/90 89/89/89
f 66/66/66 67/67/67 91/91/91
f 66/66/66 91/91/91 90/90/90
f 67/67/67 68/68/68 92/92/92
f 67/67/67 92/92/92 91/91/91
f 68/68/68 69/69/69 93/93/93
f 68/68/68 93/93/93 92/92/92
f 69/69/69 70/70/70 94/94/94
f 69/69/69 94/94/94 93/93/93
f 70/70/70 71/71/71 95/95/95
f 70/70/70 95/95/95 94/94/94
f 71/71/71 72/72/72 96/96/96
f 71/71/71 96/96/96 95/95/95
f 72/72/72 49/49/49 73/73/73
f 72/72/72 73/73/73 96/96/96
f 73/73/73 74/74/74 98/98/98
f 73/73/73 98/98/98 97/97/97
f 74/74/74 75/75/75 99/99/99
f 74/74/74 99/99/99 98/98/98
f 75/75/75 76/76/76 100/100/100
f 75/75/75 100/100/100 99/99/99
f 76/76/76 77/77/77 101/101/101
f 76/76/76 101/101/101 100/100/100
f 77/77/77 78/78/78 102/102/102
f 77/77/77 102/102/102 101/101/101
f 78/78/78 79/79/79 103/103/103
f 78/78/78 103/103/103 102/102/102
f 79/79/79 80/80/80 104/104/104
f 79/79/79 104/104/104 103/103/103
f 80/80/80 81/81/81 105/105/105
f 80/80/80 105/105/105 104/104/104
f 81/81/81 82/82/82 106/106/106
f 81/81/81 106/106/106 105/105/105
f 82/82/82 83/83/83 107/107/107
f 82/82/82 107/107/107 106/106/106
f 83/83/83 84/84/84 108/108/108
f 83/83/83 108/108/108 107/107/107
f 84/84/84 85/85/85 109/109/109
f 84/84/84 109/109/109 108/108/108
f 85/85/85 86/86/86 110/110/110
f 85/85/85 110/110/110 109/109/109
f 86/86/86 87/87/87 111/111/111
f 86/86/86 111/111/111 110/110/110
f 87/87/87 88/88/88 112/112/112
f 87/87/87 112/112/112 111/111/111
f 88/88/88 89/89/89 113/113/113
f 88/88/88 113/113/113 112/112/112
f 89/89/89 90/90/90 114/114/114
f 89/89/89 114/114/114 113/113/113
f 90/90/90 91/91/91 115/115/115
f 90/90/90 115/115/115 114/114/114
f 91/91/91 92/92/92 116/116/116
f 91/91/91 116/116/116 115/115/115
f 92/92/92 93/93/93 117/117/117
f 92/92/92 117/117/117 116/116/116
f 93/93/93 94/94/94 118/118/118
f 93/93/93 118/118/118 117/117/117
f 94/94/94 95/95/95 119/119/119
f 94/94/94 119/119/119 118/118/118
f 95/95/95 96/96/96 120/120/120
f 95/95/95 120/120/120 119/119/119
f 96/96/96 73/73/73 97/97/97
f 96/96/96 97/97/97 120/120/120
f 97/97/97 98/98/98 122/122/122
f 97/97/97 122/122/122 121/121/121
f 98/98/98 99/99/99 123/123/123
f 98/98/98 123/123/123 122/122/122
f 99/99/99 100/100/100 124/124/124
f 99/99/99 124/124/124 123/123/123
f 100/100/100 101/101/101 125/125/125
f 100/100/100 125/125/125 124/124/124
f 101/101/101 102/102/102 126/126/126
f 101/101/101 126/126/126 125/125/125
f 102/102/102 103/103/103 127/127/127
f 102/102/102 127/127/127 126/126/126
f 103/103/103 104/104/104 128/128/128
f 103/103/103 128/128/128 127/127/127
f 104/104/104 105/105/105 129/129/129
f 104/104/104 129/129/129 128/128/128
f 105/105/105 106/106/106 130/130/130
f 105/105/105 130/130/130 129/129/129
f 106/106/106 107/107/107 131/131/131
f 106/106/106 131/131/131 130/130/130
f 107/107/107 108/108/108 132/132/132
f 107/107/107 132/132/132 131/131/131
f 108/108/108 109/109/109 133/133/133
f 108/108/108 133/133/133 132/132/132
f 109/109/109 110/110/110 134/134/134
f 109/109/109 134/134/134 133/133/133
f 110/110/110 111/111/111 135/135/135
f 110/110/110 135/135/135 134/134/134
f 111/111/111 112/112/112 136/136/136
f 111/111/111 136/136/136 135/135/135
f 112/112/112 113/113/113 137/137/137
f 112/112/112 137/137/137 136/136/136
f 113/113/113 114/114/114 138/138/138
f 113/113/113 138/138/138 137/137/137
f 114/114/114 115/115/115 139/139/139
f 114/114/114 139/139/139 138/138/138
f 115/115/115 116/116/116 140/140/140
f 115/115/115 140/140/140 139/139/139
f 116/116/116 117/117/117 141/141/141
f 116/116/116 141/141/141 140/140/140
f 117/117/117 118/118/118 142/142/142
f 117/117/117 142/142/142 141/141/141
f 118/118/118 119/119/119 143/143/143
f 118/118/118 143/143/143 142/142/142
f 119/119/119 120/120/120 144/144/144
f 119/119/119 144/144/144 143/143/143
f 120/120/120 97/97/97 121/121/121
f 120/120/120 121/121/121 144/144/144
f 145/145/145 2/2/2 1/1/1
f 145/145/145 3/3/3 2/2/2
f 145/145/145 4/4/4 3/3/3
f 145/145/145 5/5/5 4/4/4
f 145/145/145 6/6/6 5/5/5
f 145/145/145 7/7/7 6/6/6
f 145/145/145 8/8/8 7/7/7
f 145/145/145 9/9/9 8/8/8
f 145/145/145 10/10/10 9/9/9
f 145/145/145 11/11/11 10/10/10
f 145/145/145 12/12/12 11/11/11
f 145/145/145 13/13/13 12/12/12
f 145/145/145 14/14/14 13/13/13
f 145/145/145 15/15/15 14/14/14
f 145/145/145 16/16/16 15/15/15
f 145/145/145 17/17/17 16/16/16
f 145/145/145 18/18/18 17/17/17
f 145/145/145 19/19/19 18/18/18
f 145/145/145 20/20/20 19/19/19
f 145/145/145 21/21/21 20/20/20
f 145/145/145 22/22/22 21/21/21
f 145/145/145 23/23/23 22/22/22
f 145/145/145 24/24/24 23/23/23
f 145/145/145 1/1/1 24/24/24
f 146/146/146 121/121/121 122/122/122
f 146/146/146 122/122/122 123/123/123
f 146/146/146 123/123/123 124/124/124
f 146/146/146 124/124/124 125/125/125
f 146/146/146 125/125/125 126/126/126
f 146/146/146 126/126/126 127/127/127
f 146/146/146 127/127/127 128/128/128
f 146/146/146 128/128/128 129/129/129
f 146/146/146 129/129/129 130/130/130
f 146/146/146 130/130/130 131/131/131
f 146/146/146 131/131/131 132/132/132
f 146/146/146 132/132/132 133/133/133
f 146/146/146 133/133/133 134/134/134
f 146/146/146 134/134/134 135/135/135
f 146/146/146 135/135/135 136/136/136
f 146/146/146 136/136/136 137/137/137
f 146/146/146 137/137/137 138/138/138
f 146/146/146 138/138/138 139/139/139
f 146/146/146 139/139/139 140/140/140
f 146/146/146 140/140/140 141/141/141
f 146/146/146 141/141/141 142/142/142
f 146/146/146 142/142/142 143/143/143
f 146/146/146 143/143/143 144/144/144
f 146/146/146 144/144/144 121/121/121
