# Original BLACKGLASS source; generator version tailored_lofts_v1
o SM_BG_TrouserLeg
s 1
v 32.000000 0.000000 -50.000000
v 31.292214 15.051868 -50.000000
v 29.164005 23.019167 -50.000000
v 25.588423 28.786976 -50.000000
v 20.461482 32.809505 -50.000000
v 13.379438 35.203740 -50.000000
v 0.000000 36.000000 -50.000000
v -13.379438 35.203740 -50.000000
v -20.461482 32.809505 -50.000000
v -25.588423 28.786976 -50.000000
v -29.164005 23.019167 -50.000000
v -31.292214 15.051868 -50.000000
v -32.000000 0.000000 -50.000000
v -31.292214 -15.051868 -50.000000
v -29.164005 -23.019167 -50.000000
v -25.588423 -28.786976 -50.000000
v -20.461482 -32.809505 -50.000000
v -13.379438 -35.203740 -50.000000
v -0.000000 -36.000000 -50.000000
v 13.379438 -35.203740 -50.000000
v 20.461482 -32.809505 -50.000000
v 25.588423 -28.786976 -50.000000
v 29.164005 -23.019167 -50.000000
v 31.292214 -15.051868 -50.000000
v 39.000000 0.000000 -45.000000
v 38.137385 16.724297 -45.000000
v 35.543631 25.576852 -45.000000
v 31.185891 31.985529 -45.000000
v 24.937431 36.455006 -45.000000
v 16.306190 39.115267 -45.000000
v 0.000000 40.000000 -45.000000
v -16.306190 39.115267 -45.000000
v -24.937431 36.455006 -45.000000
v -31.185891 31.985529 -45.000000
v -35.543631 25.576852 -45.000000
v -38.137385 16.724297 -45.000000
v -39.000000 0.000000 -45.000000
v -38.137385 -16.724297 -45.000000
v -35.543631 -25.576852 -45.000000
v -31.185891 -31.985529 -45.000000
v -24.937431 -36.455006 -45.000000
v -16.306190 -39.115267 -45.000000
v -0.000000 -40.000000 -45.000000
v 16.306190 -39.115267 -45.000000
v 24.937431 -36.455006 -45.000000
v 31.185891 -31.985529 -45.000000
v 35.543631 -25.576852 -45.000000
v 38.137385 -16.724297 -45.000000
v 40.000000 0.000000 -23.000000
v 39.115267 17.978620 -23.000000
v 36.455006 27.495116 -23.000000
v 31.985529 34.384444 -23.000000
v 25.576852 39.189131 -23.000000
v 16.724297 42.048912 -23.000000
v 0.000000 43.000000 -23.000000
v -16.724297 42.048912 -23.000000
v -25.576852 39.189131 -23.000000
v -31.985529 34.384444 -23.000000
v -36.455006 27.495116 -23.000000
v -39.115267 17.978620 -23.000000
v -40.000000 0.000000 -23.000000
v -39.115267 -17.978620 -23.000000
v -36.455006 -27.495116 -23.000000
v -31.985529 -34.384444 -23.000000
v -25.576852 -39.189131 -23.000000
v -16.724297 -42.048912 -23.000000
v -0.000000 -43.000000 -23.000000
v 16.724297 -42.048912 -23.000000
v 25.576852 -39.189131 -23.000000
v 31.985529 -34.384444 -23.000000
v 36.455006 -27.495116 -23.000000
v 39.115267 -17.978620 -23.000000
v 43.000000 0.000000 0.000000
v 42.071030 18.396727 0.000000
v 39.277756 28.134537 0.000000
v 34.584806 35.184082 0.000000
v 27.855695 40.100507 0.000000
v 18.560512 43.026794 0.000000
v 1.000000 44.000000 0.000000
v -16.560512 43.026794 0.000000
v -25.855695 40.100507 0.000000
v -32.584806 35.184082 0.000000
v -37.277756 28.134537 0.000000
v -40.071030 18.396727 0.000000
v -41.000000 0.000000 0.000000
v -40.071030 -18.396727 0.000000
v -37.277756 -28.134537 0.000000
v -32.584806 -35.184082 0.000000
v -25.855695 -40.100507 0.000000
v -16.560512 -43.026794 0.000000
v 1.000000 -44.000000 0.000000
v 18.560512 -43.026794 0.000000
v 27.855695 -40.100507 0.000000
v 34.584806 -35.184082 0.000000
v 39.277756 -28.134537 0.000000
v 42.071030 -18.396727 0.000000
v 45.000000 0.000000 24.000000
v 44.004675 19.232942 24.000000
v 41.011882 29.413380 24.000000
v 35.983720 36.783359 24.000000
v 28.773959 41.923257 24.000000
v 18.814835 44.982557 24.000000
v 0.000000 46.000000 24.000000
v -18.814835 44.982557 24.000000
v -28.773959 41.923257 24.000000
v -35.983720 36.783359 24.000000
v -41.011882 29.413380 24.000000
v -44.004675 19.232942 24.000000
v -45.000000 0.000000 24.000000
v -44.004675 -19.232942 24.000000
v -41.011882 -29.413380 24.000000
v -35.983720 -36.783359 24.000000
v -28.773959 -41.923257 24.000000
v -18.814835 -44.982557 24.000000
v -0.000000 -46.000000 24.000000
v 18.814835 -44.982557 24.000000
v 28.773959 -41.923257 24.000000
v 35.983720 -36.783359 24.000000
v 41.011882 -29.413380 24.000000
v 44.004675 -19.232942 24.000000
v 49.000000 0.000000 45.000000
v 47.916202 20.905372 45.000000
v 44.657382 31.971065 45.000000
v 39.182273 39.981912 45.000000
v 31.331644 45.568757 45.000000
v 20.487264 48.894084 45.000000
v 0.000000 50.000000 45.000000
v -20.487264 48.894084 45.000000
v -31.331644 45.568757 45.000000
v -39.182273 39.981912 45.000000
v -44.657382 31.971065 45.000000
v -47.916202 20.905372 45.000000
v -49.000000 0.000000 45.000000
v -47.916202 -20.905372 45.000000
v -44.657382 -31.971065 45.000000
v -39.182273 -39.981912 45.000000
v -31.331644 -45.568757 45.000000
v -20.487264 -48.894084 45.000000
v -0.000000 -50.000000 45.000000
v 20.487264 -48.894084 45.000000
v 31.331644 -45.568757 45.000000
v 39.182273 -39.981912 45.000000
v 44.657382 -31.971065 45.000000
v 47.916202 -20.905372 45.000000
v 42.000000 0.000000 50.000000
v 41.071030 18.396727 50.000000
v 38.277756 28.134537 50.000000
v 33.584806 35.184082 50.000000
v 26.855695 40.100507 50.000000
v 17.560512 43.026794 50.000000
v 0.000000 44.000000 50.000000
v -17.560512 43.026794 50.000000
v -26.855695 40.100507 50.000000
v -33.584806 35.184082 50.000000
v -38.277756 28.134537 50.000000
v -41.071030 18.396727 50.000000
v -42.000000 0.000000 50.000000
v -41.071030 -18.396727 50.000000
v -38.277756 -28.134537 50.000000
v -33.584806 -35.184082 50.000000
v -26.855695 -40.100507 50.000000
v -17.560512 -43.026794 50.000000
v -0.000000 -44.000000 50.000000
v 17.560512 -43.026794 50.000000
v 26.855695 -40.100507 50.000000
v 33.584806 -35.184082 50.000000
v 38.277756 -28.134537 50.000000
v 41.071030 -18.396727 50.000000
v -0.000000 0.000000 -50.000000
v -0.000000 0.000000 50.000000
vt 0.000000 0.000000
vt 0.071356 0.000000
vt 0.106345 0.000000
vt 0.134351 0.000000
vt 0.161251 0.000000
vt 0.192195 0.000000
vt 0.250000 0.000000
vt 0.307805 0.000000
vt 0.338749 0.000000
vt 0.365649 0.000000
vt 0.393655 0.000000
vt 0.428644 0.000000
vt 0.500000 0.000000
vt 0.571356 0.000000
vt 0.606345 0.000000
vt 0.634351 0.000000
vt 0.661251 0.000000
vt 0.692195 0.000000
vt 0.750000 0.000000
vt 0.807805 0.000000
vt 0.838749 0.000000
vt 0.865649 0.000000
vt 0.893655 0.000000
vt 0.928644 0.000000
vt 0.000000 0.050000
vt 0.065774 0.050000
vt 0.099273 0.050000
vt 0.127015 0.050000
vt 0.154515 0.050000
vt 0.187139 0.050000
vt 0.250000 0.050000
vt 0.312861 0.050000
vt 0.345485 0.050000
vt 0.372985 0.050000
vt 0.400727 0.050000
vt 0.434226 0.050000
vt 0.500000 0.050000
vt 0.565774 0.050000
vt 0.599273 0.050000
vt 0.627015 0.050000
vt 0.654515 0.050000
vt 0.687139 0.050000
vt 0.750000 0.050000
vt 0.812861 0.050000
vt 0.845485 0.050000
vt 0.872985 0.050000
vt 0.900727 0.050000
vt 0.934226 0.050000
vt 0.000000 0.270000
vt 0.068569 0.270000
vt 0.102845 0.270000
vt 0.130750 0.270000
vt 0.157971 0.270000
vt 0.189752 0.270000
vt 0.250000 0.270000
vt 0.310248 0.270000
vt 0.342029 0.270000
vt 0.369250 0.270000
vt 0.397155 0.270000
vt 0.431431 0.270000
vt 0.500000 0.270000
vt 0.568569 0.270000
vt 0.602845 0.270000
vt 0.630750 0.270000
vt 0.657971 0.270000
vt 0.689752 0.270000
vt 0.750000 0.270000
vt 0.810248 0.270000
vt 0.842029 0.270000
vt 0.869250 0.270000
vt 0.897155 0.270000
vt 0.931431 0.270000
vt 0.000000 0.500000
vt 0.065607 0.500000
vt 0.098928 0.500000
vt 0.126367 0.500000
vt 0.153373 0.500000
vt 0.185183 0.500000
vt 0.246383 0.500000
vt 0.308475 0.500000
vt 0.341147 0.500000
vt 0.368899 0.500000
vt 0.397103 0.500000
vt 0.431500 0.500000
vt 0.500000 0.500000
vt 0.568500 0.500000
vt 0.602897 0.500000
vt 0.631101 0.500000
vt 0.658853 0.500000
vt 0.691525 0.500000
vt 0.753617 0.500000
vt 0.814817 0.500000
vt 0.846627 0.500000
vt 0.873633 0.500000
vt 0.901072 0.500000
vt 0.934393 0.500000
vt 0.000000 0.740000
vt 0.065579 0.740000
vt 0.099022 0.740000
vt 0.126749 0.740000
vt 0.154268 0.740000
vt 0.186950 0.740000
vt 0.250000 0.740000
vt 0.313050 0.740000
vt 0.345732 0.740000
vt 0.373251 0.740000
vt 0.400978 0.740000
vt 0.434421 0.740000
vt 0.500000 0.740000
vt 0.565579 0.740000
vt 0.599022 0.740000
vt 0.626749 0.740000
vt 0.654268 0.740000
vt 0.686950 0.740000
vt 0.750000 0.740000
vt 0.813050 0.740000
vt 0.845732 0.740000
vt 0.873251 0.740000
vt 0.900978 0.740000
vt 0.934421 0.740000
vt 0.000000 0.950000
vt 0.065475 0.950000
vt 0.098888 0.950000
vt 0.126608 0.950000
vt 0.154136 0.950000
vt 0.186849 0.950000
vt 0.250000 0.950000
vt 0.313151 0.950000
vt 0.345864 0.950000
vt 0.373392 0.950000
vt 0.401112 0.950000
vt 0.434525 0.950000
vt 0.500000 0.950000
vt 0.565475 0.950000
vt 0.598888 0.950000
vt 0.626608 0.950000
vt 0.654136 0.950000
vt 0.686849 0.950000
vt 0.750000 0.950000
vt 0.813151 0.950000
vt 0.845864 0.950000
vt 0.873392 0.950000
vt 0.901112 0.950000
vt 0.934525 0.950000
vt 0.000000 1.000000
vt 0.067024 1.000000
vt 0.100879 1.000000
vt 0.128701 1.000000
vt 0.156082 1.000000
vt 0.188328 1.000000
vt 0.250000 1.000000
vt 0.311672 1.000000
vt 0.343918 1.000000
vt 0.371299 1.000000
vt 0.399121 1.000000
vt 0.432976 1.000000
vt 0.500000 1.000000
vt 0.567024 1.000000
vt 0.600879 1.000000
vt 0.628701 1.000000
vt 0.656082 1.000000
vt 0.688328 1.000000
vt 0.750000 1.000000
vt 0.811672 1.000000
vt 0.843918 1.000000
vt 0.871299 1.000000
vt 0.899121 1.000000
vt 0.932976 1.000000
vt 0.334399 0.000000
vt 0.339431 1.000000
vn 0.178589 0.003290 -0.983918
vn 0.159110 0.027106 -0.986889
vn 0.145317 0.072584 -0.986719
vn 0.112296 0.117739 -0.986675
vn 0.069126 0.158709 -0.984903
vn 0.021768 0.196395 -0.980283
vn -0.003824 0.186115 -0.982521
vn -0.032219 0.160209 -0.986557
vn -0.082613 0.140069 -0.986689
vn -0.125737 0.101374 -0.986871
vn -0.159226 0.058491 -0.985508
vn -0.187235 0.017425 -0.982161
vn -0.178589 -0.003290 -0.983918
vn -0.159110 -0.027106 -0.986889
vn -0.145317 -0.072584 -0.986719
vn -0.112296 -0.117739 -0.986675
vn -0.069126 -0.158709 -0.984903
vn -0.021768 -0.196395 -0.980283
vn 0.003824 -0.186115 -0.982521
vn 0.032219 -0.160209 -0.986557
vn 0.082613 -0.140069 -0.986689
vn 0.125737 -0.101374 -0.986871
vn 0.159226 -0.058491 -0.985508
vn 0.187235 -0.017425 -0.982161
vn 0.961842 0.011149 -0.273379
vn 0.936814 0.149271 -0.316382
vn 0.854158 0.419906 -0.306744
vn 0.660924 0.687135 -0.301705
vn 0.388891 0.878109 -0.278727
vn 0.115114 0.963672 -0.241009
vn -0.012487 0.969445 -0.244993
vn -0.165166 0.949654 -0.266227
vn -0.454956 0.848013 -0.271825
vn -0.720223 0.635017 -0.279343
vn -0.891448 0.362052 -0.272469
vn -0.964108 0.105687 -0.243570
vn -0.961842 -0.011149 -0.273379
vn -0.936814 -0.149271 -0.316382
vn -0.854158 -0.419906 -0.306744
vn -0.660924 -0.687135 -0.301705
vn -0.388891 -0.878109 -0.278727
vn -0.115114 -0.963672 -0.241009
vn 0.012487 -0.969445 -0.244993
vn 0.165166 -0.949654 -0.266227
vn 0.454956 -0.848013 -0.271825
vn 0.720223 -0.635017 -0.279343
vn 0.891448 -0.362052 -0.272469
vn 0.964108 -0.105687 -0.243570
vn 0.996003 0.000988 -0.089313
vn 0.987599 0.131062 -0.086431
vn 0.910016 0.403705 -0.094299
vn 0.722019 0.684875 -0.098155
vn 0.439326 0.893232 -0.095542
vn 0.142640 0.986017 -0.086166
vn -0.001282 0.996171 -0.087420
vn -0.147577 0.984857 -0.090983
vn -0.446178 0.890977 -0.084167
vn -0.728741 0.680778 -0.074010
vn -0.915007 0.398901 -0.060329
vn -0.990714 0.127075 -0.048348
vn -0.999009 -0.000991 -0.044504
vn -0.990244 -0.131413 -0.046349
vn -0.912682 -0.404888 -0.055480
vn -0.723864 -0.686624 -0.067588
vn -0.440020 -0.894643 -0.077437
vn -0.142704 -0.986462 -0.080795
vn 0.001282 -0.996096 -0.088268
vn 0.147470 -0.984138 -0.098611
vn 0.445260 -0.889143 -0.105685
vn 0.726440 -0.678628 -0.108392
vn 0.911770 -0.397489 -0.103329
vn 0.987195 -0.126623 -0.097018
vn 0.994451 0.001351 -0.105196
vn 0.985196 0.132902 -0.108287
vn 0.906626 0.408418 -0.105948
vn 0.716969 0.690180 -0.098014
vn 0.434747 0.896627 -0.083997
vn 0.140840 0.987473 -0.071141
vn -0.001021 0.997870 -0.065225
vn -0.145792 0.986981 -0.067926
vn -0.441106 0.893525 -0.083893
vn -0.722455 0.684303 -0.098936
vn -0.909405 0.401733 -0.107675
vn -0.985380 0.127930 -0.112517
vn -0.994350 -0.001351 -0.106143
vn -0.985995 -0.133010 -0.100609
vn -0.906936 -0.408558 -0.102698
vn -0.717175 -0.690378 -0.095070
vn -0.434846 -0.896830 -0.081269
vn -0.140859 -0.987605 -0.069252
vn 0.001021 -0.997972 -0.063652
vn 0.145813 -0.987126 -0.065729
vn 0.441237 -0.893790 -0.080310
vn 0.722760 -0.684592 -0.094614
vn 0.909885 -0.401945 -0.102707
vn 0.986397 -0.128062 -0.103063
vn 0.991102 0.000176 -0.133107
vn 0.982369 0.132882 -0.131507
vn 0.900620 0.410337 -0.143204
vn 0.708139 0.690418 -0.147858
vn 0.427641 0.892341 -0.144395
vn 0.139339 0.980296 -0.140018
vn 0.000052 0.991073 -0.133319
vn -0.139582 0.980867 -0.135709
vn -0.426926 0.890298 -0.158443
vn -0.705227 0.686970 -0.175291
vn -0.895238 0.407296 -0.180716
vn -0.975206 0.131536 -0.177968
vn -0.984550 -0.000175 -0.175102
vn -0.975285 -0.131924 -0.177245
vn -0.894595 -0.407592 -0.183216
vn -0.704378 -0.686752 -0.179510
vn -0.426317 -0.889577 -0.164032
vn -0.139198 -0.979305 -0.146918
vn -0.000052 -0.990973 -0.134063
vn 0.139677 -0.981533 -0.130702
vn 0.428022 -0.892585 -0.141737
vn 0.708533 -0.690190 -0.147033
vn 0.900657 -0.409761 -0.144615
vn 0.981185 -0.132342 -0.140574
vn 0.993769 -0.010206 0.110992
vn 0.990860 0.114054 0.072033
vn 0.917233 0.385834 0.099078
vn 0.735311 0.670202 0.100737
vn 0.457801 0.883789 0.096621
vn 0.162543 0.980217 0.112935
vn 0.010629 0.997313 0.072489
vn -0.119393 0.991879 0.043824
vn -0.401164 0.912171 0.083732
vn -0.685851 0.719836 0.106980
vn -0.889117 0.440638 0.123729
vn -0.975605 0.154791 0.155676
vn -0.993769 0.010206 0.110992
vn -0.990860 -0.114054 0.072033
vn -0.917233 -0.385834 0.099078
vn -0.735311 -0.670202 0.100737
vn -0.457801 -0.883789 0.096621
vn -0.162543 -0.980217 0.112935
vn -0.010629 -0.997313 0.072489
vn 0.119393 -0.991879 0.043824
vn 0.401164 -0.912171 0.083732
vn 0.685851 -0.719836 0.106980
vn 0.889117 -0.440638 0.123729
vn 0.975605 -0.154791 0.155676
vn 0.146448 -0.002751 0.989215
vn 0.154074 0.015100 0.987944
vn 0.128559 0.049595 0.990461
vn 0.099270 0.083967 0.991511
vn 0.063719 0.113279 0.991518
vn 0.024414 0.127394 0.991552
vn 0.002910 0.146341 0.989230
vn -0.016310 0.154265 0.987895
vn -0.052713 0.126819 0.990524
vn -0.087591 0.096173 0.991503
vn -0.115953 0.060605 0.991404
vn -0.128771 0.022933 0.991409
vn -0.146448 0.002751 0.989215
vn -0.154074 -0.015100 0.987944
vn -0.128559 -0.049595 0.990461
vn -0.099270 -0.083967 0.991511
vn -0.063719 -0.113279 0.991518
vn -0.024414 -0.127394 0.991552
vn -0.002910 -0.146341 0.989230
vn 0.016310 -0.154265 0.987895
vn 0.052713 -0.126819 0.990524
vn 0.087591 -0.096173 0.991503
vn 0.115953 -0.060605 0.991404
vn 0.128771 -0.022933 0.991409
vn 0.000000 0.000000 -1.000000
vn 0.000000 0.000000 1.000000
f 1/1/1 2/2/2 26/26/26
f 1/1/1 26/26/26 25/25/25
f 2/2/2 3/3/3 27/27/27
f 2/2/2 27/27/27 26/26/26
f 3/3/3 4/4/4 28/28/28
f 3/3/3 28/28/28 27/27/27
f 4/4/4 5/5/5 29/29/29
f 4/4/4 29/29/29 28/28/28
f 5/5/5 6/6/6 30/30/30
f 5/5/5 30/30/30 29/29/29
f 6/6/6 7/7/7 31/31/31
f 6/6/6 31/31/31 30/30/30
f 7/7/7 8/8/8 32/32/32
f 7/7/7 32/32/32 31/31/31
f 8/8/8 9/9/9 33/33/33
f 8/8/8 33/33/33 32/32/32
f 9/9/9 10/10/10 34/34/34
f 9/9/9 34/34/34 33/33/33
f 10/10/10 11/11/11 35/35/35
f 10/10/10 35/35/35 34/34/34
f 11/11/11 12/12/12 36/36/36
f 11/11/11 36/36/36 35/35/35
f 12/12/12 13/13/13 37/37/37
f 12/12/12 37/37/37 36/36/36
f 13/13/13 14/14/14 38/38/38
f 13/13/13 38/38/38 37/37/37
f 14/14/14 15/15/15 39/39/39
f 14/14/14 39/39/39 38/38/38
f 15/15/15 16/16/16 40/40/40
f 15/15/15 40/40/40 39/39/39
f 16/16/16 17/17/17 41/41/41
f 16/16/16 41/41/41 40/40/40
f 17/17/17 18/18/18 42/42/42
f 17/17/17 42/42/42 41/41/41
f 18/18/18 19/19/19 43/43/43
f 18/18/18 43/43/43 42/42/42
f 19/19/19 20/20/20 44/44/44
f 19/19/19 44/44/44 43/43/43
f 20/20/20 21/21/21 45/45/45
f 20/20/20 45/45/45 44/44/44
f 21/21/21 22/22/22 46/46/46
f 21/21/21 46/46/46 45/45/45
f 22/22/22 23/23/23 47/47/47
f 22/22/22 47/47/47 46/46/46
f 23/23/23 24/24/24 48/48/48
f 23/23/23 48/48/48 47/47/47
f 24/24/24 1/1/1 25/25/25
f 24/24/24 25/25/25 48/48/48
f 25/25/25 26/26/26 50/50/50
f 25/25/25 50/50/50 49/49/49
f 26/26/26 27/27/27 51/51/51
f 26/26/26 51/51/51 50/50/50
f 27/27/27 28/28/28 52/52/52
f 27/27/27 52/52/52 51/51/51
f 28/28/28 29/29/29 53/53/53
f 28/28/28 53/53/53 52/52/52
f 29/29/29 30/30/30 54/54/54
f 29/29/29 54/54/54 53/53/53
f 30/30/30 31/31/31 55/55/55
f 30/30/30 55/55/55 54/54/54
f 31/31/31 32/32/32 56/56/56
f 31/31/31 56/56/56 55/55/55
f 32/32/32 33/33/33 57/57/57
f 32/32/32 57/57/57 56/56/56
f 33/33/33 34/34/34 58/58/58
f 33/33/33 58/58/58 57/57/57
f 34/34/34 35/35/35 59/59/59
f 34/34/34 59/59/59 58/58/58
f 35/35/35 36/36/36 60/60/60
f 35/35/35 60/60/60 59/59/59
f 36/36/36 37/37/37 61/61/61
f 36/36/36 61/61/61 60/60/60
f 37/37/37 38/38/38 62/62/62
f 37/37/37 62/62/62 61/61/61
f 38/38/38 39/39/39 63/63/63
f 38/38/38 63/63/63 62/62/62
f 39/39/39 40/40/40 64/64/64
f 39/39/39 64/64/64 63/63/63
f 40/40/40 41/41/41 65/65/65
f 40/40/40 65/65/65 64/64/64
f 41/41/41 42/42/42 66/66/66
f 41/41/41 66/66/66 65/65/65
f 42/42/42 43/43/43 67/67/67
f 42/42/42 67/67/67 66/66/66
f 43/43/43 44/44/44 68/68/68
f 43/43/43 68/68/68 67/67/67
f 44/44/44 45/45/45 69/69/69
f 44/44/44 69/69/69 68/68/68
f 45/45/45 46/46/46 70/70/70
f 45/45/45 70/70/70 69/69/69
f 46/46/46 47/47/47 71/71/71
f 46/46/46 71/71/71 70/70/70
f 47/47/47 48/48/48 72/72/72
f 47/47/47 72/72/72 71/71/71
f 48/48/48 25/25/25 49/49/49
f 48/48/48 49/49/49 72/72/72
f 49/49/49 50/50/50 74/74/74
f 49/49/49 74/74/74 73/73/73
f 50/50/50 51/51/51 75/75/75
f 50/50/50 75/75/75 74/74/74
f 51/51/51 52/52/52 76/76/76
f 51/51/51 76/76/76 75/75/75
f 52/52/52 53/53/53 77/77/77
f 52/52/52 77/77/77 76/76/76
f 53/53/53 54/54/54 78/78/78
f 53/53/53 78/78/78 77/77/77
f 54/54/54 55/55/55 79/79/79
f 54/54/54 79/79/79 78/78/78
f 55/55/55 56/56/56 80/80/80
f 55/55/55 80/80/80 79/79/79
f 56/56/56 57/57/57 81/81/81
f 56/56/56 81/81/81 80/80/80
f 57/57/57 58/58/58 82/82/82
f 57/57/57 82/82/82 81/81/81
f 58/58/58 59/59/59 83/83/83
f 58/58/58 83/83/83 82/82/82
f 59/59/59 60/60/60 84/84/84
f 59/59/59 84/84/84 83/83/83
f 60/60/60 61/61/61 85/85/85
f 60/60/60 85/85/85 84/84/84
f 61/61/61 62/62/62 86/86/86
f 61/61/61 86/86/86 85/85/85
f 62/62/62 63/63/63 87/87/87
f 62/62/62 87/87/87 86/86/86
f 63/63/63 64/64/64 88/88/88
f 63/63/63 88/88/88 87/87/87
f 64/64/64 65/65/65 89/89/89
f 64/64/64 89/89/89 88/88/88
f 65/65/65 66/66/66 90/90/90
f 65/65/65 90/90/90 89/89/89
f 66/66/66 67/67/67 91/91/91
f 66/66/66 91/91/91 90/90/90
f 67/67/67 68/68/68 92/92/92
f 67/67/67 92/92/92 91/91/91
f 68/68/68 69/69/69 93/93/93
f 68/68/68 93/93/93 92/92/92
f 69/69/69 70/70/70 94/94/94
f 69/69/69 94/94/94 93/93/93
f 70/70/70 71/71/71 95/95/95
f 70/70/70 95/95/95 94/94/94
f 71/71/71 72/72/72 96/96/96
f 71/71/71 96/96/96 95/95/95
f 72/72/72 49/49/49 73/73/73
f 72/72/72 73/73/73 96/96/96
f 73/73/73 74/74/74 98/98/98
f 73/73/73 98/98/98 97/97/97
f 74/74/74 75/75/75 99/99/99
f 74/74/74 99/99/99 98/98/98
f 75/75/75 76/76/76 100/100/100
f 75/75/75 100/100/100 99/99/99
f 76/76/76 77/77/77 101/101/101
f 76/76/76 101/101/101 100/100/100
f 77/77/77 78/78/78 102/102/102
f 77/77/77 102/102/102 101/101/101
f 78/78/78 79/79/79 103/103/103
f 78/78/78 103/103/103 102/102/102
f 79/79/79 80/80/80 104/104/104
f 79/79/79 104/104/104 103/103/103
f 80/80/80 81/81/81 105/105/105
f 80/80/80 105/105/105 104/104/104
f 81/81/81 82/82/82 106/106/106
f 81/81/81 106/106/106 105/105/105
f 82/82/82 83/83/83 107/107/107
f 82/82/82 107/107/107 106/106/106
f 83/83/83 84/84/84 108/108/108
f 83/83/83 108/108/108 107/107/107
f 84/84/84 85/85/85 109/109/109
f 84/84/84 109/109/109 108/108/108
f 85/85/85 86/86/86 110/110/110
f 85/85/85 110/110/110 109/109/109
f 86/86/86 87/87/87 111/111/111
f 86/86/86 111/111/111 110/110/110
f 87/87/87 88/88/88 112/112/112
f 87/87/87 112/112/112 111/111/111
f 88/88/88 89/89/89 113/113/113
f 88/88/88 113/113/113 112/112/112
f 89/89/89 90/90/90 114/114/114
f 89/89/89 114/114/114 113/113/113
f 90/90/90 91/91/91 115/115/115
f 90/90/90 115/115/115 114/114/114
f 91/91/91 92/92/92 116/116/116
f 91/91/91 116/116/116 115/115/115
f 92/92/92 93/93/93 117/117/117
f 92/92/92 117/117/117 116/116/116
f 93/93/93 94/94/94 118/118/118
f 93/93/93 118/118/118 117/117/117
f 94/94/94 95/95/95 119/119/119
f 94/94/94 119/119/119 118/118/118
f 95/95/95 96/96/96 120/120/120
f 95/95/95 120/120/120 119/119/119
f 96/96/96 73/73/73 97/97/97
f 96/96/96 97/97/97 120/120/120
f 97/97/97 98/98/98 122/122/122
f 97/97/97 122/122/122 121/121/121
f 98/98/98 99/99/99 123/123/123
f 98/98/98 123/123/123 122/122/122
f 99/99/99 100/100/100 124/124/124
f 99/99/99 124/124/124 123/123/123
f 100/100/100 101/101/101 125/125/125
f 100/100/100 125/125/125 124/124/124
f 101/101/101 102/102/102 126/126/126
f 101/101/101 126/126/126 125/125/125
f 102/102/102 103/103/103 127/127/127
f 102/102/102 127/127/127 126/126/126
f 103/103/103 104/104/104 128/128/128
f 103/103/103 128/128/128 127/127/127
f 104/104/104 105/105/105 129/129/129
f 104/104/104 129/129/129 128/128/128
f 105/105/105 106/106/106 130/130/130
f 105/105/105 130/130/130 129/129/129
f 106/106/106 107/107/107 131/131/131
f 106/106/106 131/131/131 130/130/130
f 107/107/107 108/108/108 132/132/132
f 107/107/107 132/132/132 131/131/131
f 108/108/108 109/109/109 133/133/133
f 108/108/108 133/133/133 132/132/132
f 109/109/109 110/110/110 134/134/134
f 109/109/109 134/134/134 133/133/133
f 110/110/110 111/111/111 135/135/135
f 110/110/110 135/135/135 134/134/134
f 111/111/111 112/112/112 136/136/136
f 111/111/111 136/136/136 135/135/135
f 112/112/112 113/113/113 137/137/137
f 112/112/112 137/137/137 136/136/136
f 113/113/113 114/114/114 138/138/138
f 113/113/113 138/138/138 137/137/137
f 114/114/114 115/115/115 139/139/139
f 114/114/114 139/139/139 138/138/138
f 115/115/115 116/116/116 140/140/140
f 115/115/115 140/140/140 139/139/139
f 116/116/116 117/117/117 141/141/141
f 116/116/116 141/141/141 140/140/140
f 117/117/117 118/118/118 142/142/142
f 117/117/117 142/142/142 141/141/141
f 118/118/118 119/119/119 143/143/143
f 118/118/118 143/143/143 142/142/142
f 119/119/119 120/120/120 144/144/144
f 119/119/119 144/144/144 143/143/143
f 120/120/120 97/97/97 121/121/121
f 120/120/120 121/121/121 144/144/144
f 121/121/121 122/122/122 146/146/146
f 121/121/121 146/146/146 145/145/145
f 122/122/122 123/123/123 147/147/147
f 122/122/122 147/147/147 146/146/146
f 123/123/123 124/124/124 148/148/148
f 123/123/123 148/148/148 147/147/147
f 124/124/124 125/125/125 149/149/149
f 124/124/124 149/149/149 148/148/148
f 125/125/125 126/126/126 150/150/150
f 125/125/125 150/150/150 149/149/149
f 126/126/126 127/127/127 151/151/151
f 126/126/126 151/151/151 150/150/150
f 127/127/127 128/128/128 152/152/152
f 127/127/127 152/152/152 151/151/151
f 128/128/128 129/129/129 153/153/153
f 128/128/128 153/153/153 152/152/152
f 129/129/129 130/130/130 154/154/154
f 129/129/129 154/154/154 153/153/153
f 130/130/130 131/131/131 155/155/155
f 130/130/130 155/155/155 154/154/154
f 131/131/131 132/132/132 156/156/156
f 131/131/131 156/156/156 155/155/155
f 132/132/132 133/133/133 157/157/157
f 132/132/132 157/157/157 156/156/156
f 133/133/133 134/134/134 158/158/158
f 133/133/133 158/158/158 157/157/157
f 134/134/134 135/135/135 159/159/159
f 134/134/134 159/159/159 158/158/158
f 135/135/135 136/136/136 160/160/160
f 135/135/135 160/160/160 159/159/159
f 136/136/136 137/137/137 161/161/161
f 136/136/136 161/161/161 160/160/160
f 137/137/137 138/138/138 162/162/162
f 137/137/137 162/162/162 161/161/161
f 138/138/138 139/139/139 163/163/163
f 138/138/138 163/163/163 162/162/162
f 139/139/139 140/140/140 164/164/164
f 139/139/139 164/164/164 163/163/163
f 140/140/140 141/141/141 165/165/165
f 140/140/140 165/165/165 164/164/164
f 141/141/141 142/142/142 166/166/166
f 141/141/141 166/166/166 165/165/165
f 142/142/142 143/143/143 167/167/167
f 142/142/142 167/167/167 166/166/166
f 143/143/143 144/144/144 168/168/168
f 143/143/143 168/168/168 167/167/167
f 144/144/144 121/121/121 145/145/145
f 144/144/144 145/145/145 168/168/168
f 169/169/169 2/2/2 1/1/1
f 169/169/169 3/3/3 2/2/2
f 169/169/169 4/4/4 3/3/3
f 169/169/169 5/5/5 4/4/4
f 169/169/169 6/6/6 5/5/5
f 169/169/169 7/7/7 6/6/6
f 169/169/169 8/8/8 7/7/7
f 169/169/169 9/9/9 8/8/8
f 169/169/169 10/10/10 9/9/9
f 169/169/169 11/11/11 10/10/10
f 169/169/169 12/12/12 11/11/11
f 169/169/169 13/13/13 12/12/12
f 169/169/169 14/14/14 13/13/13
f 169/169/169 15/15/15 14/14/14
f 169/169/169 16/16/16 15/15/15
f 169/169/169 17/17/17 16/16/16
f 169/169/169 18/18/18 17/17/17
f 169/169/169 19/19/19 18/18/18
f 169/169/169 20/20/20 19/19/19
f 169/169/169 21/21/21 20/20/20
f 169/169/169 22/22/22 21/21/21
f 169/169/169 23/23/23 22/22/22
f 169/169/169 24/24/24 23/23/23
f 169/169/169 1/1/1 24/24/24
f 170/170/170 145/145/145 146/146/146
f 170/170/170 146/146/146 147/147/147
f 170/170/170 147/147/147 148/148/148
f 170/170/170 148/148/148 149/149/149
f 170/170/170 149/149/149 150/150/150
f 170/170/170 150/150/150 151/151/151
f 170/170/170 151/151/151 152/152/152
f 170/170/170 152/152/152 153/153/153
f 170/170/170 153/153/153 154/154/154
f 170/170/170 154/154/154 155/155/155
f 170/170/170 155/155/155 156/156/156
f 170/170/170 156/156/156 157/157/157
f 170/170/170 157/157/157 158/158/158
f 170/170/170 158/158/158 159/159/159
f 170/170/170 159/159/159 160/160/160
f 170/170/170 160/160/160 161/161/161
f 170/170/170 161/161/161 162/162/162
f 170/170/170 162/162/162 163/163/163
f 170/170/170 163/163/163 164/164/164
f 170/170/170 164/164/164 165/165/165
f 170/170/170 165/165/165 166/166/166
f 170/170/170 166/166/166 167/167/167
f 170/170/170 167/167/167 168/168/168
f 170/170/170 168/168/168 145/145/145
