# Original BLACKGLASS source; generator version tailored_lofts_v1
o SM_BG_SelectionAnnulus
s 1
v 50.000000 0.000000 -50.000000
v 49.039264 9.754516 -50.000000
v 46.193977 19.134172 -50.000000
v 41.573481 27.778512 -50.000000
v 35.355339 35.355339 -50.000000
v 27.778512 41.573481 -50.000000
v 19.134172 46.193977 -50.000000
v 9.754516 49.039264 -50.000000
v 0.000000 50.000000 -50.000000
v -9.754516 49.039264 -50.000000
v -19.134172 46.193977 -50.000000
v -27.778512 41.573481 -50.000000
v -35.355339 35.355339 -50.000000
v -41.573481 27.778512 -50.000000
v -46.193977 19.134172 -50.000000
v -49.039264 9.754516 -50.000000
v -50.000000 0.000000 -50.000000
v -49.039264 -9.754516 -50.000000
v -46.193977 -19.134172 -50.000000
v -41.573481 -27.778512 -50.000000
v -35.355339 -35.355339 -50.000000
v -27.778512 -41.573481 -50.000000
v -19.134172 -46.193977 -50.000000
v -9.754516 -49.039264 -50.000000
v -0.000000 -50.000000 -50.000000
v 9.754516 -49.039264 -50.000000
v 19.134172 -46.193977 -50.000000
v 27.778512 -41.573481 -50.000000
v 35.355339 -35.355339 -50.000000
v 41.573481 -27.778512 -50.000000
v 46.193977 -19.134172 -50.000000
v 49.039264 -9.754516 -50.000000
v 43.000000 0.000000 -50.000000
v 42.173767 8.388884 -50.000000
v 39.726820 16.455388 -50.000000
v 35.753193 23.889520 -50.000000
v 30.405592 30.405592 -50.000000
v 23.889520 35.753193 -50.000000
v 16.455388 39.726820 -50.000000
v 8.388884 42.173767 -50.000000
v 0.000000 43.000000 -50.000000
v -8.388884 42.173767 -50.000000
v -16.455388 39.726820 -50.000000
v -23.889520 35.753193 -50.000000
v -30.405592 30.405592 -50.000000
v -35.753193 23.889520 -50.000000
v -39.726820 16.455388 -50.000000
v -42.173767 8.388884 -50.000000
v -43.000000 0.000000 -50.000000
v -42.173767 -8.388884 -50.000000
v -39.726820 -16.455388 -50.000000
v -35.753193 -23.889520 -50.000000
v -30.405592 -30.405592 -50.000000
v -23.889520 -35.753193 -50.000000
v -16.455388 -39.726820 -50.000000
v -8.388884 -42.173767 -50.000000
v -0.000000 -43.000000 -50.000000
v 8.388884 -42.173767 -50.000000
v 16.455388 -39.726820 -50.000000
v 23.889520 -35.753193 -50.000000
v 30.405592 -30.405592 -50.000000
v 35.753193 -23.889520 -50.000000
v 39.726820 -16.455388 -50.000000
v 42.173767 -8.388884 -50.000000
v 50.000000 0.000000 50.000000
v 49.039264 9.754516 50.000000
v 46.193977 19.134172 50.000000
v 41.573481 27.778512 50.000000
v 35.355339 35.355339 50.000000
v 27.778512 41.573481 50.000000
v 19.134172 46.193977 50.000000
v 9.754516 49.039264 50.000000
v 0.000000 50.000000 50.000000
v -9.754516 49.039264 50.000000
v -19.134172 46.193977 50.000000
v -27.778512 41.573481 50.000000
v -35.355339 35.355339 50.000000
v -41.573481 27.778512 50.000000
v -46.193977 19.134172 50.000000
v -49.039264 9.754516 50.000000
v -50.000000 0.000000 50.000000
v -49.039264 -9.754516 50.000000
v -46.193977 -19.134172 50.000000
v -41.573481 -27.778512 50.000000
v -35.355339 -35.355339 50.000000
v -27.778512 -41.573481 50.000000
v -19.134172 -46.193977 50.000000
v -9.754516 -49.039264 50.000000
v -0.000000 -50.000000 50.000000
v 9.754516 -49.039264 50.000000
v 19.134172 -46.193977 50.000000
v 27.778512 -41.573481 50.000000
v 35.355339 -35.355339 50.000000
v 41.573481 -27.778512 50.000000
v 46.193977 -19.134172 50.000000
v 49.039264 -9.754516 50.000000
v 43.000000 0.000000 50.000000
v 42.173767 8.388884 50.000000
v 39.726820 16.455388 50.000000
v 35.753193 23.889520 50.000000
v 30.405592 30.405592 50.000000
v 23.889520 35.753193 50.000000
v 16.455388 39.726820 50.000000
v 8.388884 42.173767 50.000000
v 0.000000 43.000000 50.000000
v -8.388884 42.173767 50.000000
v -16.455388 39.726820 50.000000
v -23.889520 35.753193 50.000000
v -30.405592 30.405592 50.000000
v -35.753193 23.889520 50.000000
v -39.726820 16.455388 50.000000
v -42.173767 8.388884 50.000000
v -43.000000 0.000000 50.000000
v -42.173767 -8.388884 50.000000
v -39.726820 -16.455388 50.000000
v -35.753193 -23.889520 50.000000
v -30.405592 -30.405592 50.000000
v -23.889520 -35.753193 50.000000
v -16.455388 -39.726820 50.000000
v -8.388884 -42.173767 50.000000
v -0.000000 -43.000000 50.000000
v 8.388884 -42.173767 50.000000
v 16.455388 -39.726820 50.000000
v 23.889520 -35.753193 50.000000
v 30.405592 -30.405592 50.000000
v 35.753193 -23.889520 50.000000
v 39.726820 -16.455388 50.000000
v 42.173767 -8.388884 50.000000
vt 0.000000 0.000000
vt 0.031250 0.000000
vt 0.062500 0.000000
vt 0.093750 0.000000
vt 0.125000 0.000000
vt 0.156250 0.000000
vt 0.187500 0.000000
vt 0.218750 0.000000
vt 0.250000 0.000000
vt 0.281250 0.000000
vt 0.312500 0.000000
vt 0.343750 0.000000
vt 0.375000 0.000000
vt 0.406250 0.000000
vt 0.437500 0.000000
vt 0.468750 0.000000
vt 0.500000 0.000000
vt 0.531250 0.000000
vt 0.562500 0.000000
vt 0.593750 0.000000
vt 0.625000 0.000000
vt 0.656250 0.000000
vt 0.687500 0.000000
vt 0.718750 0.000000
vt 0.750000 0.000000
vt 0.781250 0.000000
vt 0.812500 0.000000
vt 0.843750 0.000000
vt 0.875000 0.000000
vt 0.906250 0.000000
vt 0.937500 0.000000
vt 0.968750 0.000000
vt 0.000000 0.000000
vt 0.031250 0.000000
vt 0.062500 0.000000
vt 0.093750 0.000000
vt 0.125000 0.000000
vt 0.156250 0.000000
vt 0.187500 0.000000
vt 0.218750 0.000000
vt 0.250000 0.000000
vt 0.281250 0.000000
vt 0.312500 0.000000
vt 0.343750 0.000000
vt 0.375000 0.000000
vt 0.406250 0.000000
vt 0.437500 0.000000
vt 0.468750 0.000000
vt 0.500000 0.000000
vt 0.531250 0.000000
vt 0.562500 0.000000
vt 0.593750 0.000000
vt 0.625000 0.000000
vt 0.656250 0.000000
vt 0.687500 0.000000
vt 0.718750 0.000000
vt 0.750000 0.000000
vt 0.781250 0.000000
vt 0.812500 0.000000
vt 0.843750 0.000000
vt 0.875000 0.000000
vt 0.906250 0.000000
vt 0.937500 0.000000
vt 0.968750 0.000000
vt 0.000000 1.000000
vt 0.031250 1.000000
vt 0.062500 1.000000
vt 0.093750 1.000000
vt 0.125000 1.000000
vt 0.156250 1.000000
vt 0.187500 1.000000
vt 0.218750 1.000000
vt 0.250000 1.000000
vt 0.281250 1.000000
vt 0.312500 1.000000
vt 0.343750 1.000000
vt 0.375000 1.000000
vt 0.406250 1.000000
vt 0.437500 1.000000
vt 0.468750 1.000000
vt 0.500000 1.000000
vt 0.531250 1.000000
vt 0.562500 1.000000
vt 0.593750 1.000000
vt 0.625000 1.000000
vt 0.656250 1.000000
vt 0.687500 1.000000
vt 0.718750 1.000000
vt 0.750000 1.000000
vt 0.781250 1.000000
vt 0.812500 1.000000
vt 0.843750 1.000000
vt 0.875000 1.000000
vt 0.906250 1.000000
vt 0.937500 1.000000
vt 0.968750 1.000000
vt 0.000000 1.000000
vt 0.031250 1.000000
vt 0.062500 1.000000
vt 0.093750 1.000000
vt 0.125000 1.000000
vt 0.156250 1.000000
vt 0.187500 1.000000
vt 0.218750 1.000000
vt 0.250000 1.000000
vt 0.281250 1.000000
vt 0.312500 1.000000
vt 0.343750 1.000000
vt 0.375000 1.000000
vt 0.406250 1.000000
vt 0.437500 1.000000
vt 0.468750 1.000000
vt 0.500000 1.000000
vt 0.531250 1.000000
vt 0.562500 1.000000
vt 0.593750 1.000000
vt 0.625000 1.000000
vt 0.656250 1.000000
vt 0.687500 1.000000
vt 0.718750 1.000000
vt 0.750000 1.000000
vt 0.781250 1.000000
vt 0.812500 1.000000
vt 0.843750 1.000000
vt 0.875000 1.000000
vt 0.906250 1.000000
vt 0.937500 1.000000
vt 0.968750 1.000000
vn 0.997246 0.032740 -0.066550
vn 0.971697 0.226664 -0.066550
vn 0.908806 0.411877 -0.066550
vn 0.810990 0.581262 -0.066550
vn 0.682009 0.728310 -0.066550
vn 0.526818 0.847369 -0.066550
vn 0.351382 0.933864 -0.066550
vn 0.162442 0.984471 -0.066550
vn -0.032740 0.997246 -0.066550
vn -0.226664 0.971697 -0.066550
vn -0.411877 0.908806 -0.066550
vn -0.581262 0.810990 -0.066550
vn -0.728310 0.682009 -0.066550
vn -0.847369 0.526818 -0.066550
vn -0.933864 0.351382 -0.066550
vn -0.984471 0.162442 -0.066550
vn -0.997246 -0.032740 -0.066550
vn -0.971697 -0.226664 -0.066550
vn -0.908806 -0.411877 -0.066550
vn -0.810990 -0.581262 -0.066550
vn -0.682009 -0.728310 -0.066550
vn -0.526818 -0.847369 -0.066550
vn -0.351382 -0.933864 -0.066550
vn -0.162442 -0.984471 -0.066550
vn 0.032740 -0.997246 -0.066550
vn 0.226664 -0.971697 -0.066550
vn 0.411877 -0.908806 -0.066550
vn 0.581262 -0.810990 -0.066550
vn 0.728310 -0.682009 -0.066550
vn 0.847369 -0.526818 -0.066550
vn 0.933864 -0.351382 -0.066550
vn 0.984471 -0.162442 -0.066550
vn -0.996754 0.032724 -0.073559
vn -0.983986 -0.162362 -0.073559
vn -0.933403 -0.351208 -0.073559
vn -0.846951 -0.526558 -0.073559
vn -0.727951 -0.681672 -0.073559
vn -0.580976 -0.810590 -0.073559
vn -0.411674 -0.908358 -0.073559
vn -0.226552 -0.971217 -0.073559
vn -0.032724 -0.996754 -0.073559
vn 0.162362 -0.983986 -0.073559
vn 0.351208 -0.933403 -0.073559
vn 0.526558 -0.846951 -0.073559
vn 0.681672 -0.727951 -0.073559
vn 0.810590 -0.580976 -0.073559
vn 0.908358 -0.411674 -0.073559
vn 0.971217 -0.226552 -0.073559
vn 0.996754 -0.032724 -0.073559
vn 0.983986 0.162362 -0.073559
vn 0.933403 0.351208 -0.073559
vn 0.846951 0.526558 -0.073559
vn 0.727951 0.681672 -0.073559
vn 0.580976 0.810590 -0.073559
vn 0.411674 0.908358 -0.073559
vn 0.226552 0.971217 -0.073559
vn 0.032724 0.996754 -0.073559
vn -0.162362 0.983986 -0.073559
vn -0.351208 0.933403 -0.073559
vn -0.526558 0.846951 -0.073559
vn -0.681672 0.727951 -0.073559
vn -0.810590 0.580976 -0.073559
vn -0.908358 0.411674 -0.073559
vn -0.971217 0.226552 -0.073559
vn 0.997246 -0.032740 0.066550
vn 0.984471 0.162442 0.066550
vn 0.933864 0.351382 0.066550
vn 0.847369 0.526818 0.066550
vn 0.728310 0.682009 0.066550
vn 0.581262 0.810990 0.066550
vn 0.411877 0.908806 0.066550
vn 0.226664 0.971697 0.066550
vn 0.032740 0.997246 0.066550
vn -0.162442 0.984471 0.066550
vn -0.351382 0.933864 0.066550
vn -0.526818 0.847369 0.066550
vn -0.682009 0.728310 0.066550
vn -0.810990 0.581262 0.066550
vn -0.908806 0.411877 0.066550
vn -0.971697 0.226664 0.066550
vn -0.997246 0.032740 0.066550
vn -0.984471 -0.162442 0.066550
vn -0.933864 -0.351382 0.066550
vn -0.847369 -0.526818 0.066550
vn -0.728310 -0.682009 0.066550
vn -0.581262 -0.810990 0.066550
vn -0.411877 -0.908806 0.066550
vn -0.226664 -0.971697 0.066550
vn -0.032740 -0.997246 0.066550
vn 0.162442 -0.984471 0.066550
vn 0.351382 -0.933864 0.066550
vn 0.526818 -0.847369 0.066550
vn 0.682009 -0.728310 0.066550
vn 0.810990 -0.581262 0.066550
vn 0.908806 -0.411877 0.066550
vn 0.971697 -0.226664 0.066550
vn -0.996754 -0.032724 0.073559
vn -0.971217 -0.226552 0.073559
vn -0.908358 -0.411674 0.073559
vn -0.810590 -0.580976 0.073559
vn -0.681672 -0.727951 0.073559
vn -0.526558 -0.846951 0.073559
vn -0.351208 -0.933403 0.073559
vn -0.162362 -0.983986 0.073559
vn 0.032724 -0.996754 0.073559
vn 0.226552 -0.971217 0.073559
vn 0.411674 -0.908358 0.073559
vn 0.580976 -0.810590 0.073559
vn 0.727951 -0.681672 0.073559
vn 0.846951 -0.526558 0.073559
vn 0.933403 -0.351208 0.073559
vn 0.983986 -0.162362 0.073559
vn 0.996754 0.032724 0.073559
vn 0.971217 0.226552 0.073559
vn 0.908358 0.411674 0.073559
vn 0.810590 0.580976 0.073559
vn 0.681672 0.727951 0.073559
vn 0.526558 0.846951 0.073559
vn 0.351208 0.933403 0.073559
vn 0.162362 0.983986 0.073559
vn -0.032724 0.996754 0.073559
vn -0.226552 0.971217 0.073559
vn -0.411674 0.908358 0.073559
vn -0.580976 0.810590 0.073559
vn -0.727951 0.681672 0.073559
vn -0.846951 0.526558 0.073559
vn -0.933403 0.351208 0.073559
vn -0.983986 0.162362 0.073559
f 65/65/65 66/66/66 98/98/98
f 65/65/65 98/98/98 97/97/97
f 2/2/2 1/1/1 33/33/33
f 2/2/2 33/33/33 34/34/34
f 1/1/1 2/2/2 66/66/66
f 1/1/1 66/66/66 65/65/65
f 34/34/34 33/33/33 97/97/97
f 34/34/34 97/97/97 98/98/98
f 66/66/66 67/67/67 99/99/99
f 66/66/66 99/99/99 98/98/98
f 3/3/3 2/2/2 34/34/34
f 3/3/3 34/34/34 35/35/35
f 2/2/2 3/3/3 67/67/67
f 2/2/2 67/67/67 66/66/66
f 35/35/35 34/34/34 98/98/98
f 35/35/35 98/98/98 99/99/99
f 67/67/67 68/68/68 100/100/100
f 67/67/67 100/100/100 99/99/99
f 4/4/4 3/3/3 35/35/35
f 4/4/4 35/35/35 36/36/36
f 3/3/3 4/4/4 68/68/68
f 3/3/3 68/68/68 67/67/67
f 36/36/36 35/35/35 99/99/99
f 36/36/36 99/99/99 100/100/100
f 68/68/68 69/69/69 101/101/101
f 68/68/68 101/101/101 100/100/100
f 5/5/5 4/4/4 36/36/36
f 5/5/5 36/36/36 37/37/37
f 4/4/4 5/5/5 69/69/69
f 4/4/4 69/69/69 68/68/68
f 37/37/37 36/36/36 100/100/100
f 37/37/37 100/100/100 101/101/101
f 69/69/69 70/70/70 102/102/102
f 69/69/69 102/102/102 101/101/101
f 6/6/6 5/5/5 37/37/37
f 6/6/6 37/37/37 38/38/38
f 5/5/5 6/6/6 70/70/70
f 5/5/5 70/70/70 69/69/69
f 38/38/38 37/37/37 101/101/101
f 38/38/38 101/101/101 102/102/102
f 70/70/70 71/71/71 103/103/103
f 70/70/70 103/103/103 102/102/102
f 7/7/7 6/6/6 38/38/38
f 7/7/7 38/38/38 39/39/39
f 6/6/6 7/7/7 71/71/71
f 6/6/6 71/71/71 70/70/70
f 39/39/39 38/38/38 102/102/102
f 39/39/39 102/102/102 103/103/103
f 71/71/71 72/72/72 104/104/104
f 71/71/71 104/104/104 103/103/103
f 8/8/8 7/7/7 39/39/39
f 8/8/8 39/39/39 40/40/40
f 7/7/7 8/8/8 72/72/72
f 7/7/7 72/72/72 71/71/71
f 40/40/40 39/39/39 103/103/103
f 40/40/40 103/103/103 104/104/104
f 72/72/72 73/73/73 105/105/105
f 72/72/72 105/105/105 104/104/104
f 9/9/9 8/8/8 40/40/40
f 9/9/9 40/40/40 41/41/41
f 8/8/8 9/9/9 73/73/73
f 8/8/8 73/73/73 72/72/72
f 41/41/41 40/40/40 104/104/104
f 41/41/41 104/104/104 105/105/105
f 73/73/73 74/74/74 106/106/106
f 73/73/73 106/106/106 105/105/105
f 10/10/10 9/9/9 41/41/41
f 10/10/10 41/41/41 42/42/42
f 9/9/9 10/10/10 74/74/74
f 9/9/9 74/74/74 73/73/73
f 42/42/42 41/41/41 105/105/105
f 42/42/42 105/105/105 106/106/106
f 74/74/74 75/75/75 107/107/107
f 74/74/74 107/107/107 106/106/106
f 11/11/11 10/10/10 42/42/42
f 11/11/11 42/42/42 43/43/43
f 10/10/10 11/11/11 75/75/75
f 10/10/10 75/75/75 74/74/74
f 43/43/43 42/42/42 106/106/106
f 43/43/43 106/106/106 107/107/107
f 75/75/75 76/76/76 108/108/108
f 75/75/75 108/108/108 107/107/107
f 12/12/12 11/11/11 43/43/43
f 12/12/12 43/43/43 44/44/44
f 11/11/11 12/12/12 76/76/76
f 11/11/11 76/76/76 75/75/75
f 44/44/44 43/43/43 107/107/107
f 44/44/44 107/107/107 108/108/108
f 76/76/76 77/77/77 109/109/109
f 76/76/76 109/109/109 108/108/108
f 13/13/13 12/12/12 44/44/44
f 13/13/13 44/44/44 45/45/45
f 12/12/12 13/13/13 77/77/77
f 12/12/12 77/77/77 76/76/76
f 45/45/45 44/44/44 108/108/108
f 45/45/45 108/108/108 109/109/109
f 77/77/77 78/78/78 110/110/110
f 77/77/77 110/110/110 109/109/109
f 14/14/14 13/13/13 45/45/45
f 14/14/14 45/45/45 46/46/46
f 13/13/13 14/14/14 78/78/78
f 13/13/13 78/78/78 77/77/77
f 46/46/46 45/45/45 109/109/109
f 46/46/46 109/109/109 110/110/110
f 78/78/78 79/79/79 111/111/111
f 78/78/78 111/111/111 110/110/110
f 15/15/15 14/14/14 46/46/46
f 15/15/15 46/46/46 47/47/47
f 14/14/14 15/15/15 79/79/79
f 14/14/14 79/79/79 78/78/78
f 47/47/47 46/46/46 110/110/110
f 47/47/47 110/110/110 111/111/111
f 79/79/79 80/80/80 112/112/112
f 79/79/79 112/112/112 111/111/111
f 16/16/16 15/15/15 47/47/47
f 16/16/16 47/47/47 48/48/48
f 15/15/15 16/16/16 80/80/80
f 15/15/15 80/80/80 79/79/79
f 48/48/48 47/47/47 111/111/111
f 48/48/48 111/111/111 112/112/112
f 80/80/80 81/81/81 113/113/113
f 80/80/80 113/113/113 112/112/112
f 17/17/17 16/16/16 48/48/48
f 17/17/17 48/48/48 49/49/49
f 16/16/16 17/17/17 81/81/81
f 16/16/16 81/81/81 80/80/80
f 49/49/49 48/48/48 112/112/112
f 49/49/49 112/112/112 113/113/113
f 81/81/81 82/82/82 114/114/114
f 81/81/81 114/114/114 113/113/113
f 18/18/18 17/17/17 49/49/49
f 18/18/18 49/49/49 50/50/50
f 17/17/17 18/18/18 82/82/82
f 17/17/17 82/82/82 81/81/81
f 50/50/50 49/49/49 113/113/113
f 50/50/50 113/113/113 114/114/114
f 82/82/82 83/83/83 115/115/115
f 82/82/82 115/115/115 114/114/114
f 19/19/19 18/18/18 50/50/50
f 19/19/19 50/50/50 51/51/51
f 18/18/18 19/19/19 83/83/83
f 18/18/18 83/83/83 82/82/82
f 51/51/51 50/50/50 114/114/114
f 51/51/51 114/114/114 115/115/115
f 83/83/83 84/84/84 116/116/116
f 83/83/83 116/116/116 115/115/115
f 20/20/20 19/19/19 51/51/51
f 20/20/20 51/51/51 52/52/52
f 19/19/19 20/20/20 84/84/84
f 19/19/19 84/84/84 83/83/83
f 52/52/52 51/51/51 115/115/115
f 52/52/52 115/115/115 116/116/116
f 84/84/84 85/85/85 117/117/117
f 84/84/84 117/117/117 116/116/116
f 21/21/21 20/20/20 52/52/52
f 21/21/21 52/52/52 53/53/53
f 20/20/20 21/21/21 85/85/85
f 20/20/20 85/85/85 84/84/84
f 53/53/53 52/52/52 116/116/116
f 53/53/53 116/116/116 117/117/117
f 85/85/85 86/86/86 118/118/118
f 85/85/85 118/118/118 117/117/117
f 22/22/22 21/21/21 53/53/53
f 22/22/22 53/53/53 54/54/54
f 21/21/21 22/22/22 86/86/86
f 21/21/21 86/86/86 85/85/85
f 54/54/54 53/53/53 117/117/117
f 54/54/54 117/117/117 118/118/118
f 86/86/86 87/87/87 119/119/119
f 86/86/86 119/119/119 118/118/118
f 23/23/23 22/22/22 54/54/54
f 23/23/23 54/54/54 55/55/55
f 22/22/22 23/23/23 87/87/87
f 22/22/22 87/87/87 86/86/86
f 55/55/55 54/54/54 118/118/118
f 55/55/55 118/118/118 119/119/119
f 87/87/87 88/88/88 120/120/120
f 87/87/87 120/120/120 119/119/119
f 24/24/24 23/23/23 55/55/55
f 24/24/24 55/55/55 56/56/56
f 23/23/23 24/24/24 88/88/88
f 23/23/23 88/88/88 87/87/87
f 56/56/56 55/55/55 119/119/119
f 56/56/56 119/119/119 120/120/120
f 88/88/88 89/89/89 121/121/121
f 88/88/88 121/121/121 120/120/120
f 25/25/25 24/24/24 56/56/56
f 25/25/25 56/56/56 57/57/57
f 24/24/24 25/25/25 89/89/89
f 24/24/24 89/89/89 88/88/88
f 57/57/57 56/56/56 120/120/120
f 57/57/57 120/120/120 121/121/121
f 89/89/89 90/90/90 122/122/122
f 89/89/89 122/122/122 121/121/121
f 26/26/26 25/25/25 57/57/57
f 26/26/26 57/57/57 58/58/58
f 25/25/25 26/26/26 90/90/90
f 25/25/25 90/90/90 89/89/89
f 58/58/58 57/57/57 121/121/121
f 58/58/58 121/121/121 122/122/122
f 90/90/90 91/91/91 123/123/123
f 90/90/90 123/123/123 122/122/122
f 27/27/27 26/26/26 58/58/58
f 27/27/27 58/58/58 59/59/59
f 26/26/26 27/27/27 91/91/91
f 26/26/26 91/91/91 90/90/90
f 59/59/59 58/58/58 122/122/122
f 59/59/59 122/122/122 123/123/123
f 91/91/91 92/92/92 124/124/124
f 91/91/91 124/124/124 123/123/123
f 28/28/28 27/27/27 59/59/59
f 28/28/28 59/59/59 60/60/60
f 27/27/27 28/28/28 92/92/92
f 27/27/27 92/92/92 91/91/91
f 60/60/60 59/59/59 123/123/123
f 60/60/60 123/123/123 124/124/124
f 92/92/92 93/93/93 125/125/125
f 92/92/92 125/125/125 124/124/124
f 29/29/29 28/28/28 60/60/60
f 29/29/29 60/60/60 61/61/61
f 28/28/28 29/29/29 93/93/93
f 28/28/28 93/93/93 92/92/92
f 61/61/61 60/60/60 124/124/124
f 61/61/61 124/124/124 125/125/125
f 93/93/93 94/94/94 126/126/126
f 93/93/93 126/126/126 125/125/125
f 30/30/30 29/29/29 61/61/61
f 30/30/30 61/61/61 62/62/62
f 29/29/29 30/30/30 94/94/94
f 29/29/29 94/94/94 93/93/93
f 62/62/62 61/61/61 125/125/125
f 62/62/62 125/125/125 126/126/126
f 94/94/94 95/95/95 127/127/127
f 94/94/94 127/127/127 126/126/126
f 31/31/31 30/30/30 62/62/62
f 31/31/31 62/62/62 63/63/63
f 30/30/30 31/31/31 95/95/95
f 30/30/30 95/95/95 94/94/94
f 63/63/63 62/62/62 126/126/126
f 63/63/63 126/126/126 127/127/127
f 95/95/95 96/96/96 128/128/128
f 95/95/95 128/128/128 127/127/127
f 32/32/32 31/31/31 63/63/63
f 32/32/32 63/63/63 64/64/64
f 31/31/31 32/32/32 96/96/96
f 31/31/31 96/96/96 95/95/95
f 64/64/64 63/63/63 127/127/127
f 64/64/64 127/127/127 128/128/128
f 96/96/96 65/65/65 97/97/97
f 96/96/96 97/97/97 128/128/128
f 1/1/1 32/32/32 64/64/64
f 1/1/1 64/64/64 33/33/33
f 32/32/32 1/1/1 65/65/65
f 32/32/32 65/65/65 96/96/96
f 33/33/33 64/64/64 128/128/128
f 33/33/33 128/128/128 97/97/97
