# Original BLACKGLASS source; generator version tailored_lofts_v1
o SM_BG_Hair
s 1
v 41.000000 0.000000 -50.000000
v 39.851152 15.261931 -50.000000
v 36.434652 25.845713 -50.000000
v 30.830048 34.103623 -50.000000
v 23.122665 40.108555 -50.000000
v 13.244469 43.769092 -50.000000
v -1.000000 45.000000 -50.000000
v -15.244469 43.769092 -50.000000
v -25.122665 40.108555 -50.000000
v -32.830048 34.103623 -50.000000
v -38.434652 25.845713 -50.000000
v -41.851152 15.261931 -50.000000
v -43.000000 0.000000 -50.000000
v -41.851152 -15.261931 -50.000000
v -38.434652 -25.845713 -50.000000
v -32.830048 -34.103623 -50.000000
v -25.122665 -40.108555 -50.000000
v -15.244469 -43.769092 -50.000000
v -1.000000 -45.000000 -50.000000
v 13.244469 -43.769092 -50.000000
v 23.122665 -40.108555 -50.000000
v 30.830048 -34.103623 -50.000000
v 36.434652 -25.845713 -50.000000
v 39.851152 -15.261931 -50.000000
v 47.000000 0.000000 -30.000000
v 45.687031 16.957702 -30.000000
v 41.782459 28.717459 -30.000000
v 35.377198 37.892914 -30.000000
v 26.568761 44.565061 -30.000000
v 15.279394 48.632324 -30.000000
v -1.000000 50.000000 -30.000000
v -17.279394 48.632324 -30.000000
v -28.568761 44.565061 -30.000000
v -37.377198 37.892914 -30.000000
v -43.782459 28.717459 -30.000000
v -47.687031 16.957702 -30.000000
v -49.000000 0.000000 -30.000000
v -47.687031 -16.957702 -30.000000
v -43.782459 -28.717459 -30.000000
v -37.377198 -37.892914 -30.000000
v -28.568761 -44.565061 -30.000000
v -17.279394 -48.632324 -30.000000
v -1.000000 -50.000000 -30.000000
v 15.279394 -48.632324 -30.000000
v 26.568761 -44.565061 -30.000000
v 35.377198 -37.892914 -30.000000
v 41.782459 -28.717459 -30.000000
v 45.687031 -16.957702 -30.000000
v 42.000000 0.000000 15.000000
v 40.769092 15.940240 15.000000
v 37.108555 26.994411 15.000000
v 31.103623 35.619339 15.000000
v 22.845713 41.891158 15.000000
v 12.261931 45.714385 15.000000
v -3.000000 47.000000 15.000000
v -18.261931 45.714385 15.000000
v -28.845713 41.891158 15.000000
v -37.103623 35.619339 15.000000
v -43.108555 26.994411 15.000000
v -46.769092 15.940240 15.000000
v -48.000000 0.000000 15.000000
v -46.769092 -15.940240 15.000000
v -43.108555 -26.994411 15.000000
v -37.103623 -35.619339 15.000000
v -28.845713 -41.891158 15.000000
v -18.261931 -45.714385 15.000000
v -3.000000 -47.000000 15.000000
v 12.261931 -45.714385 15.000000
v 22.845713 -41.891158 15.000000
v 31.103623 -35.619339 15.000000
v 37.108555 -26.994411 15.000000
v 40.769092 -15.940240 15.000000
v 27.000000 0.000000 37.000000
v 26.124688 11.870391 37.000000
v 23.521639 20.102221 37.000000
v 19.251465 26.525040 37.000000
v 13.379174 31.195543 37.000000
v 5.852929 34.042627 37.000000
v -5.000000 35.000000 37.000000
v -15.852929 34.042627 37.000000
v -23.379174 31.195543 37.000000
v -29.251465 26.525040 37.000000
v -33.521639 20.102221 37.000000
v -36.124688 11.870391 37.000000
v -37.000000 0.000000 37.000000
v -36.124688 -11.870391 37.000000
v -33.521639 -20.102221 37.000000
v -29.251465 -26.525040 37.000000
v -23.379174 -31.195543 37.000000
v -15.852929 -34.042627 37.000000
v -5.000000 -35.000000 37.000000
v 5.852929 -34.042627 37.000000
v 13.379174 -31.195543 37.000000
v 19.251465 -26.525040 37.000000
v 23.521639 -20.102221 37.000000
v 26.124688 -11.870391 37.000000
v 2.000000 0.000000 50.000000
v 1.781172 4.069848 50.000000
v 1.130410 6.892190 50.000000
v 0.062866 9.094299 50.000000
v -1.405207 10.695615 50.000000
v -3.286768 11.671758 50.000000
v -6.000000 12.000000 50.000000
v -8.713232 11.671758 50.000000
v -10.594793 10.695615 50.000000
v -12.062866 9.094299 50.000000
v -13.130410 6.892190 50.000000
v -13.781172 4.069848 50.000000
v -14.000000 0.000000 50.000000
v -13.781172 -4.069848 50.000000
v -13.130410 -6.892190 50.000000
v -12.062866 -9.094299 50.000000
v -10.594793 -10.695615 50.000000
v -8.713232 -11.671758 50.000000
v -6.000000 -12.000000 50.000000
v -3.286768 -11.671758 50.000000
v -1.405207 -10.695615 50.000000
v 0.062866 -9.094299 50.000000
v 1.130410 -6.892190 50.000000
v 1.781172 -4.069848 50.000000
v -1.000000 0.000000 -50.000000
v -6.000000 0.000000 50.000000
vt 0.000000 0.000000
vt 0.058210 0.000000
vt 0.098197 0.000000
vt 0.133017 0.000000
vt 0.166768 0.000000
vt 0.203234 0.000000
vt 0.253536 0.000000
vt 0.303341 0.000000
vt 0.339060 0.000000
vt 0.371972 0.000000
vt 0.405780 0.000000
vt 0.444346 0.000000
vt 0.500000 0.000000
vt 0.555654 0.000000
vt 0.594220 0.000000
vt 0.628028 0.000000
vt 0.660940 0.000000
vt 0.696659 0.000000
vt 0.746464 0.000000
vt 0.796766 0.000000
vt 0.833232 0.000000
vt 0.866983 0.000000
vt 0.901803 0.000000
vt 0.941790 0.000000
vt 0.000000 0.200000
vt 0.056565 0.200000
vt 0.095836 0.200000
vt 0.130462 0.200000
vt 0.164437 0.200000
vt 0.201551 0.200000
vt 0.253183 0.200000
vt 0.304335 0.200000
vt 0.340728 0.200000
vt 0.373910 0.200000
vt 0.407607 0.200000
vt 0.445623 0.200000
vt 0.500000 0.200000
vt 0.554377 0.200000
vt 0.592393 0.200000
vt 0.626090 0.200000
vt 0.659272 0.200000
vt 0.695665 0.200000
vt 0.746817 0.200000
vt 0.798449 0.200000
vt 0.835563 0.200000
vt 0.869538 0.200000
vt 0.904164 0.200000
vt 0.943435 0.200000
vt 0.000000 0.650000
vt 0.059319 0.650000
vt 0.100094 0.650000
vt 0.135755 0.650000
vt 0.170538 0.650000
vt 0.208292 0.650000
vt 0.260145 0.650000
vt 0.310488 0.650000
vt 0.345974 0.650000
vt 0.378248 0.650000
vt 0.410959 0.650000
vt 0.447721 0.650000
vt 0.500000 0.650000
vt 0.552279 0.650000
vt 0.589041 0.650000
vt 0.621752 0.650000
vt 0.654026 0.650000
vt 0.689512 0.650000
vt 0.739855 0.650000
vt 0.791708 0.650000
vt 0.829462 0.650000
vt 0.864245 0.650000
vt 0.899906 0.650000
vt 0.940681 0.650000
vt 0.000000 0.870000
vt 0.067877 0.870000
vt 0.112550 0.870000
vt 0.150079 0.870000
vt 0.185518 0.870000
vt 0.222902 0.870000
vt 0.272584 0.870000
vt 0.319362 0.870000
vt 0.352359 0.870000
vt 0.382774 0.870000
vt 0.414027 0.870000
vt 0.449471 0.870000
vt 0.500000 0.870000
vt 0.550529 0.870000
vt 0.585973 0.870000
vt 0.617226 0.870000
vt 0.647641 0.870000
vt 0.680638 0.870000
vt 0.727416 0.870000
vt 0.777098 0.870000
vt 0.814482 0.870000
vt 0.849921 0.870000
vt 0.887450 0.870000
vt 0.932123 0.870000
vt 0.000000 1.000000
vt 0.184343 1.000000
vt 0.224127 1.000000
vt 0.248900 1.000000
vt 0.270791 1.000000
vt 0.293687 1.000000
vt 0.323792 1.000000
vt 0.352062 1.000000
vt 0.374246 1.000000
vt 0.397186 1.000000
vt 0.423069 1.000000
vt 0.454298 1.000000
vt 0.500000 1.000000
vt 0.545702 1.000000
vt 0.576931 1.000000
vt 0.602814 1.000000
vt 0.625754 1.000000
vt 0.647938 1.000000
vt 0.676208 1.000000
vt 0.706313 1.000000
vt 0.729209 1.000000
vt 0.751100 1.000000
vt 0.775873 1.000000
vt 0.815657 1.000000
vt 0.500000 0.000000
vt 0.500000 1.000000
vn 0.518383 0.014334 -0.855028
vn 0.481586 0.108468 -0.869661
vn 0.431202 0.237422 -0.870457
vn 0.336374 0.355421 -0.872083
vn 0.213917 0.449789 -0.867138
vn 0.079999 0.516386 -0.852611
vn -0.015607 0.510874 -0.859514
vn -0.118963 0.470236 -0.874486
vn -0.256234 0.413955 -0.873490
vn -0.374719 0.315229 -0.871904
vn -0.463720 0.195870 -0.864060
vn -0.524182 0.071987 -0.848558
vn -0.518383 -0.014334 -0.855028
vn -0.481586 -0.108468 -0.869661
vn -0.431202 -0.237422 -0.870457
vn -0.336374 -0.355421 -0.872083
vn -0.213917 -0.449789 -0.867138
vn -0.079999 -0.516386 -0.852611
vn 0.015607 -0.510874 -0.859514
vn 0.118963 -0.470236 -0.874486
vn 0.256234 -0.413955 -0.873490
vn 0.374719 -0.315229 -0.871904
vn 0.463720 -0.195870 -0.864060
vn 0.524182 -0.071987 -0.848558
vn 0.999851 0.010043 -0.014031
vn 0.980807 0.193582 -0.023332
vn 0.889047 0.457401 -0.019498
vn 0.708134 0.705788 -0.020236
vn 0.455114 0.890172 -0.021576
vn 0.178039 0.983804 -0.020795
vn -0.010757 0.999483 -0.030304
vn -0.210367 0.976649 -0.043612
vn -0.489090 0.870715 -0.051443
vn -0.734991 0.675241 -0.061954
vn -0.903557 0.422870 -0.069041
vn -0.984236 0.162956 -0.068737
vn -0.997087 -0.010015 -0.075609
vn -0.977807 -0.192990 -0.081536
vn -0.886848 -0.456269 -0.072935
vn -0.706893 -0.704551 -0.062532
vn -0.454688 -0.889340 -0.048304
vn -0.177994 -0.983554 -0.030669
vn 0.010757 -0.999532 -0.028641
vn 0.210476 -0.977155 -0.029462
vn 0.489642 -0.871697 -0.019875
vn 0.736320 -0.676462 -0.015211
vn 0.905653 -0.423851 -0.011929
vn 0.986552 -0.163340 -0.005862
vn 0.961709 -0.012120 0.273805
vn 0.951836 0.153548 0.265388
vn 0.873824 0.402969 0.272118
vn 0.714061 0.647694 0.265723
vn 0.479393 0.841550 0.248950
vn 0.209458 0.950127 0.231055
vn 0.013129 0.978241 0.207057
vn -0.171355 0.966037 0.193417
vn -0.443172 0.874974 0.194983
vn -0.692643 0.695676 0.190476
vn -0.872544 0.453081 0.182714
vn -0.964542 0.193983 0.178968
vn -0.986182 0.012428 0.165199
vn -0.974582 -0.157217 0.159604
vn -0.894084 -0.412313 0.174965
vn -0.727642 -0.660013 0.186868
vn -0.485323 -0.851960 0.196534
vn -0.210541 -0.955036 0.208756
vn -0.013130 -0.978349 0.206547
vn 0.170618 -0.961884 0.213701
vn 0.438028 -0.864818 0.245399
vn 0.679763 -0.682739 0.267938
vn 0.852089 -0.442459 0.279595
vn 0.939277 -0.188902 0.286487
vn 0.691656 -0.013578 0.722099
vn 0.689256 0.099370 0.717671
vn 0.631633 0.269620 0.726873
vn 0.525893 0.444526 0.725144
vn 0.367446 0.599482 0.711059
vn 0.170702 0.702266 0.691146
vn 0.015845 0.745998 0.665760
vn -0.128514 0.740613 0.659527
vn -0.335383 0.656905 0.675273
vn -0.519326 0.515268 0.681762
vn -0.653077 0.336657 0.678346
vn -0.724309 0.148618 0.673268
vn -0.754215 0.014806 0.656460
vn -0.751103 -0.108286 0.651243
vn -0.684177 -0.292049 0.668288
vn -0.562013 -0.475058 0.677097
vn -0.384556 -0.627396 0.677120
vn -0.174260 -0.716900 0.675047
vn -0.015876 -0.747469 0.664107
vn 0.126652 -0.729884 0.671736
vn 0.322479 -0.631630 0.705018
vn 0.488398 -0.484582 0.725705
vn 0.604733 -0.311736 0.732884
vn 0.665524 -0.136556 0.733778
vn 0.418506 -0.018307 0.908030
vn 0.418732 0.038942 0.907274
vn 0.389534 0.126982 0.912216
vn 0.334820 0.222830 0.915556
vn 0.248943 0.316742 0.915261
vn 0.133529 0.389865 0.911140
vn 0.025414 0.432141 0.901448
vn -0.063285 0.432237 0.899537
vn -0.189014 0.378961 0.905904
vn -0.297805 0.295485 0.907745
vn -0.376627 0.197027 0.905170
vn -0.421819 0.096854 0.901492
vn -0.444310 0.019436 0.895662
vn -0.444541 -0.041342 0.894804
vn -0.411922 -0.134280 0.901271
vn -0.351309 -0.233804 0.906597
vn -0.257953 -0.328206 0.908703
vn -0.136071 -0.397287 0.907551
vn -0.025504 -0.433669 0.900711
vn 0.062735 -0.428481 0.901370
vn 0.184149 -0.369208 0.910920
vn 0.285866 -0.283638 0.915331
vn 0.357760 -0.187157 0.914866
vn 0.398365 -0.091469 0.912655
vn 0.000000 0.000000 -1.000000
vn 0.000000 0.000000 1.000000
f 1/1/1 2/2/2 26/26/26
f 1/1/1 26/26/26 25/25/25
f 2/2/2 3/3/3 27/27/27
f 2/2/2 27/27/27 26/26/26
f 3/3/3 4/4/4 28/28/28
f 3/3/3 28/28/28 27/27/27
f 4/4/4 5/5/5 29/29/29
f 4/4/4 29/29/29 28/28/28
f 5/5/5 6/6/6 30/30/30
f 5/5/5 30/30/30 29/29/29
f 6/6/6 7/7/7 31/31/31
f 6/6/6 31/31/31 30/30/30
f 7/7/7 8/8/8 32/32/32
f 7/7/7 32/32/32 31/31/31
f 8/8/8 9/9/9 33/33/33
f 8/8/8 33/33/33 32/32/32
f 9/9/9 10/10/10 34/34/34
f 9/9/9 34/34/34 33/33/33
f 10/10/10 11/11/11 35/35/35
f 10/10/10 35/35/35 34/34/34
f 11/11/11 12/12/12 36/36/36
f 11/11/11 36/36/36 35/35/35
f 12/12/12 13/13/13 37/37/37
f 12/12/12 37/37/37 36/36/36
f 13/13/13 14/14/14 38/38/38
f 13/13/13 38/38/38 37/37/37
f 14/14/14 15/15/15 39/39/39
f 14/14/14 39/39/39 38/38/38
f 15/15/15 16/16/16 40/40/40
f 15/15/15 40/40/40 39/39/39
f 16/16/16 17/17/17 41/41/41
f 16/16/16 41/41/41 40/40/40
f 17/17/17 18/18/18 42/42/42
f 17/17/17 42/42/42 41/41/41
f 18/18/18 19/19/19 43/43/43
f 18/18/18 43/43/43 42/42/42
f 19/19/19 20/20/20 44/44/44
f 19/19/19 44/44/44 43/43/43
f 20/20/20 21/21/21 45/45/45
f 20/20/20 45/45/45 44/44/44
f 21/21/21 22/22/22 46/46/46
f 21/21/21 46/46/46 45/45/45
f 22/22/22 23/23/23 47/47/47
f 22/22/22 47/47/47 46/46/46
f 23/23/23 24/24/24 48/48/48
f 23/23/23 48/48/48 47/47/47
f 24/24/24 1/1/1 25/25/25
f 24/24/24 25/25/25 48/48/48
f 25/25/25 26/26/26 50/50/50
f 25/25/25 50/50/50 49/49/49
f 26/26/26 27/27/27 51/51/51
f 26/26/26 51/51/51 50/50/50
f 27/27/27 28/28/28 52/52/52
f 27/27/27 52/52/52 51/51/51
f 28/28/28 29/29/29 53/53/53
f 28/28/28 53/53/53 52/52/52
f 29/29/29 30/30/30 54/54/54
f 29/29/29 54/54/54 53/53/53
f 30/30/30 31/31/31 55/55/55
f 30/30/30 55/55/55 54/54/54
f 31/31/31 32/32/32 56/56/56
f 31/31/31 56/56/56 55/55/55
f 32/32/32 33/33/33 57/57/57
f 32/32/32 57/57/57 56/56/56
f 33/33/33 34/34/34 58/58/58
f 33/33/33 58/58/58 57/57/57
f 34/34/34 35/35/35 59/59/59
f 34/34/34 59/59/59 58/58/58
f 35/35/35 36/36/36 60/60/60
f 35/35/35 60/60/60 59/59/59
f 36/36/36 37/37/37 61/61/61
f 36/36/36 61/61/61 60/60/60
f 37/37/37 38/38/38 62/62/62
f 37/37/37 62/62/62 61/61/61
f 38/38/38 39/39/39 63/63/63
f 38/38/38 63/63/63 62/62/62
f 39/39/39 40/40/40 64/64/64
f 39/39/39 64/64/64 63/63/63
f 40/40/40 41/41/41 65/65/65
f 40/40/40 65/65/65 64/64/64
f 41/41/41 42/42/42 66/66/66
f 41/41/41 66/66/66 65/65/65
f 42/42/42 43/43/43 67/67/67
f 42/42/42 67/67/67 66/66/66
f 43/43/43 44/44/44 68/68/68
f 43/43/43 68/68/68 67/67/67
f 44/44/44 45/45/45 69/69/69
f 44/44/44 69/69/69 68/68/68
f 45/45/45 46/46/46 70/70/70
f 45/45/45 70/70/70 69/69/69
f 46/46/46 47/47/47 71/71/71
f 46/46/46 71/71/71 70/70/70
f 47/47/47 48/48/48 72/72/72
f 47/47/47 72/72/72 71/71/71
f 48/48/48 25/25/25 49/49/49
f 48/48/48 49/49/49 72/72/72
f 49/49/49 50/50/50 74/74/74
f 49/49/49 74/74/74 73/73/73
f 50/50/50 51/51/51 75/75/75
f 50/50/50 75/75/75 74/74/74
f 51/51/51 52/52/52 76/76/76
f 51/51/51 76/76/76 75/75/75
f 52/52/52 53/53/53 77/77/77
f 52/52/52 77/77/77 76/76/76
f 53/53/53 54/54/54 78/78/78
f 53/53/53 78/78/78 77/77/77
f 54/54/54 55/55/55 79/79/79
f 54/54/54 79/79/79 78/78/78
f 55/55/55 56/56/56 80/80/80
f 55/55/55 80/80/80 79/79/79
f 56/56/56 57/57/57 81/81/81
f 56/56/56 81/81/81 80/80/80
f 57/57/57 58/58/58 82/82/82
f 57/57/57 82/82/82 81/81/81
f 58/58/58 59/59/59 83/83/83
f 58/58/58 83/83/83 82/82/82
f 59/59/59 60/60/60 84/84/84
f 59/59/59 84/84/84 83/83/83
f 60/60/60 61/61/61 85/85/85
f 60/60/60 85/85/85 84/84/84
f 61/61/61 62/62/62 86/86/86
f 61/61/61 86/86/86 85/85/85
f 62/62/62 63/63/63 87/87/87
f 62/62/62 87/87/87 86/86/86
f 63/63/63 64/64/64 88/88/88
f 63/63/63 88/88/88 87/87/87
f 64/64/64 65/65/65 89/89/89
f 64/64/64 89/89/89 88/88/88
f 65/65/65 66/66/66 90/90/90
f 65/65/65 90/90/90 89/89/89
f 66/66/66 67/67/67 91/91/91
f 66/66/66 91/91/91 90/90/90
f 67/67/67 68/68/68 92/92/92
f 67/67/67 92/92/92 91/91/91
f 68/68/68 69/69/69 93/93/93
f 68/68/68 93/93/93 92/92/92
f 69/69/69 70/70/70 94/94/94
f 69/69/69 94/94/94 93/93/93
f 70/70/70 71/71/71 95/95/95
f 70/70/70 95/95/95 94/94/94
f 71/71/71 72/72/72 96/96/96
f 71/71/71 96/96/96 95/95/95
f 72/72/72 49/49/49 73/73/73
f 72/72/72 73/73/73 96/96/96
f 73/73/73 74/74/74 98/98/98
f 73/73/73 98/98/98 97/97/97
f 74/74/74 75/75/75 99/99/99
f 74/74/74 99/99/99 98/98/98
f 75/75/75 76/76/76 100/100/100
f 75/75/75 100/100/100 99/99/99
f 76/76/76 77/77/77 101/101/101
f 76/76/76 101/101/101 100/100/100
f 77/77/77 78/78/78 102/102/102
f 77/77/77 102/102/102 101/101/101
f 78/78/78 79/79/79 103/103/103
f 78/78/78 103/103/103 102/102/102
f 79/79/79 80/80/80 104/104/104
f 79/79/79 104/104/104 103/103/103
f 80/80/80 81/81/81 105/105/105
f 80/80/80 105/105/105 104/104/104
f 81/81/81 82/82/82 106/106/106
f 81/81/81 106/106/106 105/105/105
f 82/82/82 83/83/83 107/107/107
f 82/82/82 107/107/107 106/106/106
f 83/83/83 84/84/84 108/108/108
f 83/83/83 108/108/108 107/107/107
f 84/84/84 85/85/85 109/109/109
f 84/84/84 109/109/109 108/108/108
f 85/85/85 86/86/86 110/110/110
f 85/85/85 110/110/110 109/109/109
f 86/86/86 87/87/87 111/111/111
f 86/86/86 111/111/111 110/110/110
f 87/87/87 88/88/88 112/112/112
f 87/87/87 112/112/112 111/111/111
f 88/88/88 89/89/89 113/113/113
f 88/88/88 113/113/113 112/112/112
f 89/89/89 90/90/90 114/114/114
f 89/89/89 114/114/114 113/113/113
f 90/90/90 91/91/91 115/115/115
f 90/90/90 115/115/115 114/114/114
f 91/91/91 92/92/92 116/116/116
f 91/91/91 116/116/116 115/115/115
f 92/92/92 93/93/93 117/117/117
f 92/92/92 117/117/117 116/116/116
f 93/93/93 94/94/94 118/118/118
f 93/93/93 118/118/118 117/117/117
f 94/94/94 95/95/95 119/119/119
f 94/94/94 119/119/119 118/118/118
f 95/95/95 96/96/96 120/120/120
f 95/95/95 120/120/120 119/119/119
f 96/96/96 73/73/73 97/97/97
f 96/96/96 97/97/97 120/120/120
f 121/121/121 2/2/2 1/1/1
f 121/121/121 3/3/3 2/2/2
f 121/121/121 4/4/4 3/3/3
f 121/121/121 5/5/5 4/4/4
f 121/121/121 6/6/6 5/5/5
f 121/121/121 7/7/7 6/6/6
f 121/121/121 8/8/8 7/7/7
f 121/121/121 9/9/9 8/8/8
f 121/121/121 10/10/10 9/9/9
f 121/121/121 11/11/11 10/10/10
f 121/121/121 12/12/12 11/11/11
f 121/121/121 13/13/13 12/12/12
f 121/121/121 14/14/14 13/13/13
f 121/121/121 15/15/15 14/14/14
f 121/121/121 16/16/16 15/15/15
f 121/121/121 17/17/17 16/16/16
f 121/121/121 18/18/18 17/17/17
f 121/121/121 19/19/19 18/18/18
f 121/121/121 20/20/20 19/19/19
f 121/121/121 21/21/21 20/20/20
f 121/121/121 22/22/22 21/21/21
f 121/121/121 23/23/23 22/22/22
f 121/121/121 24/24/24 23/23/23
f 121/121/121 1/1/1 24/24/24
f 122/122/122 97/97/97 98/98/98
f 122/122/122 98/98/98 99/99/99
f 122/122/122 99/99/99 100/100/100
f 122/122/122 100/100/100 101/101/101
f 122/122/122 101/101/101 102/102/102
f 122/122/122 102/102/102 103/103/103
f 122/122/122 103/103/103 104/104/104
f 122/122/122 104/104/104 105/105/105
f 122/122/122 105/105/105 106/106/106
f 122/122/122 106/106/106 107/107/107
f 122/122/122 107/107/107 108/108/108
f 122/122/122 108/108/108 109/109/109
f 122/122/122 109/109/109 110/110/110
f 122/122/122 110/110/110 111/111/111
f 122/122/122 111/111/111 112/112/112
f 122/122/122 112/112/112 113/113/113
f 122/122/122 113/113/113 114/114/114
f 122/122/122 114/114/114 115/115/115
f 122/122/122 115/115/115 116/116/116
f 122/122/122 116/116/116 117/117/117
f 122/122/122 117/117/117 118/118/118
f 122/122/122 118/118/118 119/119/119
f 122/122/122 119/119/119 120/120/120
f 122/122/122 120/120/120 97/97/97
