# Original BLACKGLASS source; generator version tailored_lofts_v1
o SM_BG_TailoredTorso
s 1
v 32.000000 0.000000 -50.000000
v 31.249789 16.326994 -50.000000
v 28.990770 24.639952 -50.000000
v 25.183581 30.599316 -50.000000
v 19.694692 34.732836 -50.000000
v 12.038021 37.185486 -50.000000
v -3.000000 38.000000 -50.000000
v -18.038021 37.185486 -50.000000
v -25.694692 34.732836 -50.000000
v -31.183581 30.599316 -50.000000
v -34.990770 24.639952 -50.000000
v -37.249789 16.326994 -50.000000
v -38.000000 0.000000 -50.000000
v -37.249789 -16.326994 -50.000000
v -34.990770 -24.639952 -50.000000
v -31.183581 -30.599316 -50.000000
v -25.694692 -34.732836 -50.000000
v -18.038021 -37.185486 -50.000000
v -3.000000 -38.000000 -50.000000
v 12.038021 -37.185486 -50.000000
v 19.694692 -34.732836 -50.000000
v 25.183581 -30.599316 -50.000000
v 28.990770 -24.639952 -50.000000
v 31.249789 -16.326994 -50.000000
v 39.000000 0.000000 -46.000000
v 38.121182 18.045625 -46.000000
v 35.474902 27.233631 -46.000000
v 31.015052 33.820297 -46.000000
v 24.585211 38.388924 -46.000000
v 15.615968 41.099747 -46.000000
v -2.000000 42.000000 -46.000000
v -19.615968 41.099747 -46.000000
v -28.585211 38.388924 -46.000000
v -35.015052 33.820297 -46.000000
v -39.474902 27.233631 -46.000000
v -42.121182 18.045625 -46.000000
v -43.000000 0.000000 -46.000000
v -42.121182 -18.045625 -46.000000
v -39.474902 -27.233631 -46.000000
v -35.015052 -33.820297 -46.000000
v -28.585211 -38.388924 -46.000000
v -19.615968 -41.099747 -46.000000
v -2.000000 -42.000000 -46.000000
v 15.615968 -41.099747 -46.000000
v 24.585211 -38.388924 -46.000000
v 31.015052 -33.820297 -46.000000
v 35.474902 -27.233631 -46.000000
v 38.121182 -18.045625 -46.000000
v 39.000000 0.000000 -22.000000
v 38.164051 17.615968 -22.000000
v 35.646858 26.585211 -22.000000
v 31.404561 33.015052 -22.000000
v 25.288371 37.474902 -22.000000
v 16.756652 40.121182 -22.000000
v 0.000000 41.000000 -22.000000
v -16.756652 40.121182 -22.000000
v -25.288371 37.474902 -22.000000
v -31.404561 33.015052 -22.000000
v -35.646858 26.585211 -22.000000
v -38.164051 17.615968 -22.000000
v -39.000000 0.000000 -22.000000
v -38.164051 -17.615968 -22.000000
v -35.646858 -26.585211 -22.000000
v -31.404561 -33.015052 -22.000000
v -25.288371 -37.474902 -22.000000
v -16.756652 -40.121182 -22.000000
v -0.000000 -41.000000 -22.000000
v 16.756652 -40.121182 -22.000000
v 25.288371 -37.474902 -22.000000
v 31.404561 -33.015052 -22.000000
v 35.646858 -26.585211 -22.000000
v 38.164051 -17.615968 -22.000000
v 39.000000 0.000000 -4.000000
v 38.185486 18.045625 -4.000000
v 35.732836 27.233631 -4.000000
v 31.599316 33.820297 -4.000000
v 25.639952 38.388924 -4.000000
v 17.326994 41.099747 -4.000000
v 1.000000 42.000000 -4.000000
v -15.326994 41.099747 -4.000000
v -23.639952 38.388924 -4.000000
v -29.599316 33.820297 -4.000000
v -33.732836 27.233631 -4.000000
v -36.185486 18.045625 -4.000000
v -37.000000 0.000000 -4.000000
v -36.185486 -18.045625 -4.000000
v -33.732836 -27.233631 -4.000000
v -29.599316 -33.820297 -4.000000
v -23.639952 -38.388924 -4.000000
v -15.326994 -41.099747 -4.000000
v 1.000000 -42.000000 -4.000000
v 17.326994 -41.099747 -4.000000
v 25.639952 -38.388924 -4.000000
v 31.599316 -33.820297 -4.000000
v 35.732836 -27.233631 -4.000000
v 38.185486 -18.045625 -4.000000
v 43.000000 0.000000 18.000000
v 42.078313 19.764256 18.000000
v 39.302946 29.827310 18.000000
v 34.625542 37.041278 18.000000
v 27.882050 42.045012 18.000000
v 18.475283 45.014009 18.000000
v 0.000000 46.000000 18.000000
v -18.475283 45.014009 18.000000
v -27.882050 42.045012 18.000000
v -34.625542 37.041278 18.000000
v -39.302946 29.827310 18.000000
v -42.078313 19.764256 18.000000
v -43.000000 0.000000 18.000000
v -42.078313 -19.764256 18.000000
v -39.302946 -29.827310 18.000000
v -34.625542 -37.041278 18.000000
v -27.882050 -42.045012 18.000000
v -18.475283 -45.014009 18.000000
v -0.000000 -46.000000 18.000000
v 18.475283 -45.014009 18.000000
v 27.882050 -42.045012 18.000000
v 34.625542 -37.041278 18.000000
v 39.302946 -29.827310 18.000000
v 42.078313 -19.764256 18.000000
v 42.000000 0.000000 36.000000
v 41.056878 21.482887 36.000000
v 38.216968 32.420989 36.000000
v 33.430787 40.262258 36.000000
v 26.530470 45.701100 36.000000
v 16.904941 48.928271 36.000000
v -2.000000 50.000000 36.000000
v -20.904941 48.928271 36.000000
v -30.530470 45.701100 36.000000
v -37.430787 40.262258 36.000000
v -42.216968 32.420989 36.000000
v -45.056878 21.482887 36.000000
v -46.000000 0.000000 36.000000
v -45.056878 -21.482887 36.000000
v -42.216968 -32.420989 36.000000
v -37.430787 -40.262258 36.000000
v -30.530470 -45.701100 36.000000
v -20.904941 -48.928271 36.000000
v -2.000000 -50.000000 36.000000
v 16.904941 -48.928271 36.000000
v 26.530470 -45.701100 36.000000
v 33.430787 -40.262258 36.000000
v 38.216968 -32.420989 36.000000
v 41.056878 -21.482887 36.000000
v 34.000000 0.000000 44.000000
v 33.206920 19.334598 44.000000
v 30.818814 29.178890 44.000000
v 26.794071 36.236032 44.000000
v 20.991532 41.130990 44.000000
v 12.897337 44.035444 44.000000
v -3.000000 45.000000 44.000000
v -18.897337 44.035444 44.000000
v -26.991532 41.130990 44.000000
v -32.794071 36.236032 44.000000
v -36.818814 29.178890 44.000000
v -39.206920 19.334598 44.000000
v -40.000000 0.000000 44.000000
v -39.206920 -19.334598 44.000000
v -36.818814 -29.178890 44.000000
v -32.794071 -36.236032 44.000000
v -26.991532 -41.130990 44.000000
v -18.897337 -44.035444 44.000000
v -3.000000 -45.000000 44.000000
v 12.897337 -44.035444 44.000000
v 20.991532 -41.130990 44.000000
v 26.794071 -36.236032 44.000000
v 30.818814 -29.178890 44.000000
v 33.206920 -19.334598 44.000000
v 22.000000 0.000000 49.000000
v 21.464135 11.600759 49.000000
v 19.850550 17.507334 49.000000
v 17.131129 21.741619 49.000000
v 13.210494 24.678594 49.000000
v 7.741444 26.421266 49.000000
v -3.000000 27.000000 49.000000
v -13.741444 26.421266 49.000000
v -19.210494 24.678594 49.000000
v -23.131129 21.741619 49.000000
v -25.850550 17.507334 49.000000
v -27.464135 11.600759 49.000000
v -28.000000 0.000000 49.000000
v -27.464135 -11.600759 49.000000
v -25.850550 -17.507334 49.000000
v -23.131129 -21.741619 49.000000
v -19.210494 -24.678594 49.000000
v -13.741444 -26.421266 49.000000
v -3.000000 -27.000000 49.000000
v 7.741444 -26.421266 49.000000
v 13.210494 -24.678594 49.000000
v 17.131129 -21.741619 49.000000
v 19.850550 -17.507334 49.000000
v 21.464135 -11.600759 49.000000
v 19.000000 0.000000 50.000000
v 18.528439 10.311786 50.000000
v 17.108484 15.562075 50.000000
v 14.715394 19.325884 50.000000
v 11.265235 21.936528 50.000000
v 6.452470 23.485570 50.000000
v -3.000000 24.000000 50.000000
v -12.452470 23.485570 50.000000
v -17.265235 21.936528 50.000000
v -20.715394 19.325884 50.000000
v -23.108484 15.562075 50.000000
v -24.528439 10.311786 50.000000
v -25.000000 0.000000 50.000000
v -24.528439 -10.311786 50.000000
v -23.108484 -15.562075 50.000000
v -20.715394 -19.325884 50.000000
v -17.265235 -21.936528 50.000000
v -12.452470 -23.485570 50.000000
v -3.000000 -24.000000 50.000000
v 6.452470 -23.485570 50.000000
v 11.265235 -21.936528 50.000000
v 14.715394 -19.325884 50.000000
v 17.108484 -15.562075 50.000000
v 18.528439 -10.311786 50.000000
v -3.000000 0.000000 -50.000000
v -3.000000 0.000000 50.000000
vt 0.000000 0.000000
vt 0.076627 0.000000
vt 0.112117 0.000000
vt 0.140403 0.000000
vt 0.167904 0.000000
vt 0.200171 0.000000
vt 0.262539 0.000000
vt 0.321881 0.000000
vt 0.351370 0.000000
vt 0.376505 0.000000
vt 0.402354 0.000000
vt 0.434255 0.000000
vt 0.500000 0.000000
vt 0.565745 0.000000
vt 0.597646 0.000000
vt 0.623495 0.000000
vt 0.648630 0.000000
vt 0.678119 0.000000
vt 0.737461 0.000000
vt 0.799829 0.000000
vt 0.832096 0.000000
vt 0.859597 0.000000
vt 0.887883 0.000000
vt 0.923373 0.000000
vt 0.000000 0.040000
vt 0.070366 0.040000
vt 0.104203 0.040000
vt 0.131882 0.040000
vt 0.159343 0.040000
vt 0.192210 0.040000
vt 0.257573 0.040000
vt 0.320872 0.040000
vt 0.351867 0.040000
vt 0.377762 0.040000
vt 0.403884 0.040000
vt 0.435580 0.040000
vt 0.500000 0.040000
vt 0.564420 0.040000
vt 0.596116 0.040000
vt 0.622238 0.040000
vt 0.648133 0.040000
vt 0.679128 0.040000
vt 0.742427 0.040000
vt 0.807790 0.040000
vt 0.840657 0.040000
vt 0.868118 0.040000
vt 0.895797 0.040000
vt 0.929634 0.040000
vt 0.000000 0.280000
vt 0.068826 0.280000
vt 0.101987 0.280000
vt 0.128978 0.280000
vt 0.155523 0.280000
vt 0.187034 0.280000
vt 0.250000 0.280000
vt 0.312966 0.280000
vt 0.344477 0.280000
vt 0.371022 0.280000
vt 0.398013 0.280000
vt 0.431174 0.280000
vt 0.500000 0.280000
vt 0.568826 0.280000
vt 0.601987 0.280000
vt 0.628978 0.280000
vt 0.655523 0.280000
vt 0.687034 0.280000
vt 0.750000 0.280000
vt 0.812966 0.280000
vt 0.844477 0.280000
vt 0.871022 0.280000
vt 0.898013 0.280000
vt 0.931174 0.280000
vt 0.000000 0.460000
vt 0.070262 0.460000
vt 0.103646 0.460000
vt 0.130401 0.460000
vt 0.156281 0.460000
vt 0.186501 0.460000
vt 0.246211 0.460000
vt 0.306810 0.460000
vt 0.337847 0.460000
vt 0.364423 0.460000
vt 0.391903 0.460000
vt 0.426374 0.460000
vt 0.500000 0.460000
vt 0.573626 0.460000
vt 0.608097 0.460000
vt 0.635577 0.460000
vt 0.662153 0.460000
vt 0.693190 0.460000
vt 0.753789 0.460000
vt 0.813499 0.460000
vt 0.843719 0.460000
vt 0.869599 0.460000
vt 0.896354 0.460000
vt 0.929738 0.460000
vt 0.000000 0.680000
vt 0.069888 0.680000
vt 0.103320 0.680000
vt 0.130363 0.680000
vt 0.156805 0.680000
vt 0.188014 0.680000
vt 0.250000 0.680000
vt 0.311986 0.680000
vt 0.343195 0.680000
vt 0.369637 0.680000
vt 0.396680 0.680000
vt 0.430112 0.680000
vt 0.500000 0.680000
vt 0.569888 0.680000
vt 0.603320 0.680000
vt 0.630363 0.680000
vt 0.656805 0.680000
vt 0.688014 0.680000
vt 0.750000 0.680000
vt 0.811986 0.680000
vt 0.843195 0.680000
vt 0.869637 0.680000
vt 0.896680 0.680000
vt 0.930112 0.680000
vt 0.000000 0.860000
vt 0.076724 0.860000
vt 0.111970 0.860000
vt 0.139712 0.860000
vt 0.166289 0.860000
vt 0.197055 0.860000
vt 0.256363 0.860000
vt 0.314264 0.860000
vt 0.343735 0.860000
vt 0.369202 0.860000
vt 0.395770 0.860000
vt 0.429190 0.860000
vt 0.500000 0.860000
vt 0.570810 0.860000
vt 0.604230 0.860000
vt 0.630798 0.860000
vt 0.656265 0.860000
vt 0.685736 0.860000
vt 0.743637 0.860000
vt 0.802945 0.860000
vt 0.833711 0.860000
vt 0.860288 0.860000
vt 0.888030 0.860000
vt 0.923276 0.860000
vt 0.000000 0.940000
vt 0.083916 0.940000
vt 0.120651 0.940000
vt 0.148666 0.940000
vt 0.174895 0.940000
vt 0.204654 0.940000
vt 0.260595 0.940000
vt 0.314517 0.940000
vt 0.342428 0.940000
vt 0.367071 0.940000
vt 0.393342 0.940000
vt 0.427084 0.940000
vt 0.500000 0.940000
vt 0.572916 0.940000
vt 0.606658 0.940000
vt 0.632929 0.940000
vt 0.657572 0.940000
vt 0.685483 0.940000
vt 0.739405 0.940000
vt 0.795346 0.940000
vt 0.825105 0.940000
vt 0.851334 0.940000
vt 0.879349 0.940000
vt 0.916084 0.940000
vt 0.000000 0.990000
vt 0.078861 0.990000
vt 0.115030 0.990000
vt 0.143789 0.990000
vt 0.171777 0.990000
vt 0.204637 0.990000
vt 0.267612 0.990000
vt 0.326329 0.990000
vt 0.355273 0.990000
vt 0.379927 0.990000
vt 0.405256 0.990000
vt 0.436392 0.990000
vt 0.500000 0.990000
vt 0.563608 0.990000
vt 0.594744 0.990000
vt 0.620073 0.990000
vt 0.644727 0.990000
vt 0.673671 0.990000
vt 0.732388 0.990000
vt 0.795363 0.990000
vt 0.828223 0.990000
vt 0.856211 0.990000
vt 0.884970 0.990000
vt 0.921139 0.990000
vt 0.000000 1.000000
vt 0.080827 1.000000
vt 0.117472 1.000000
vt 0.146425 1.000000
vt 0.174494 1.000000
vt 0.207326 1.000000
vt 0.269792 1.000000
vt 0.327593 1.000000
vt 0.356124 1.000000
vt 0.380521 1.000000
vt 0.405673 1.000000
vt 0.436661 1.000000
vt 0.500000 1.000000
vt 0.563339 1.000000
vt 0.594327 1.000000
vt 0.619479 1.000000
vt 0.643876 1.000000
vt 0.672407 1.000000
vt 0.730208 1.000000
vt 0.792674 1.000000
vt 0.825506 1.000000
vt 0.853575 1.000000
vt 0.882528 1.000000
vt 0.919173 1.000000
vt 0.500000 0.000000
vt 0.500000 1.000000
vn 0.134245 0.002327 -0.990945
vn 0.118462 0.019805 -0.992761
vn 0.107969 0.054484 -0.992660
vn 0.082741 0.088747 -0.992612
vn 0.050431 0.119961 -0.991497
vn 0.015475 0.149687 -0.988612
vn -0.002673 0.141609 -0.989919
vn -0.023087 0.122288 -0.992226
vn -0.062226 0.109199 -0.992070
vn -0.097525 0.080431 -0.991978
vn -0.126492 0.046975 -0.990855
vn -0.152223 0.013865 -0.988249
vn -0.143804 -0.002493 -0.989603
vn -0.125860 -0.021042 -0.991825
vn -0.114080 -0.057568 -0.991802
vn -0.086283 -0.092547 -0.991963
vn -0.051724 -0.123036 -0.991053
vn -0.015594 -0.150841 -0.988435
vn 0.002670 -0.141422 -0.989946
vn 0.022826 -0.120904 -0.992402
vn 0.060362 -0.105929 -0.992540
vn 0.093024 -0.076719 -0.992704
vn 0.119028 -0.044204 -0.991906
vn 0.141566 -0.012895 -0.989845
vn 0.971313 0.011058 -0.237547
vn 0.948817 0.147461 -0.279287
vn 0.869315 0.428018 -0.247167
vn 0.672347 0.708309 -0.215051
vn 0.390789 0.905686 -0.164369
vn 0.110877 0.988704 -0.100850
vn -0.012244 0.994709 -0.101999
vn -0.163029 0.980143 -0.112876
vn -0.464827 0.882177 -0.075493
vn -0.747046 0.662761 -0.051674
vn -0.926951 0.373908 -0.030901
vn -0.994544 0.104306 -0.001725
vn -0.999447 -0.011379 -0.031243
vn -0.985646 -0.153185 -0.070973
vn -0.895553 -0.440936 -0.059660
vn -0.686774 -0.723508 -0.069844
vn -0.394935 -0.915296 -0.079120
vn -0.111125 -0.990915 -0.075749
vn 0.012242 -0.994577 -0.103280
vn 0.162340 -0.975999 -0.145162
vn 0.459391 -0.871860 -0.169765
vn 0.732374 -0.649745 -0.203618
vn 0.904783 -0.364966 -0.219472
vn 0.974060 -0.102157 -0.201918
vn 0.999996 -0.002874 -0.000506
vn 0.992856 0.119296 -0.002368
vn 0.919352 0.393367 -0.007311
vn 0.731946 0.681252 -0.012229
vn 0.445082 0.895389 -0.013422
vn 0.144407 0.989461 -0.010684
vn 0.002543 0.999997 0.000716
vn -0.132448 0.991007 0.019041
vn -0.428708 0.901886 0.053011
vn -0.715273 0.692531 0.093733
vn -0.905409 0.406016 0.124040
vn -0.982164 0.129428 0.136388
vn -0.990016 0.002845 0.140930
vn -0.982943 -0.118105 0.140977
vn -0.912231 -0.390320 0.124439
vn -0.728819 -0.678341 0.093145
vn -0.444540 -0.894298 0.051133
vn -0.144408 -0.989462 0.010597
vn -0.002543 -0.999996 0.001564
vn 0.132472 -0.991186 0.000747
vn 0.429301 -0.903133 -0.007222
vn 0.718417 -0.695575 -0.007277
vn 0.912448 -0.409173 -0.003947
vn 0.991428 -0.130649 -0.000939
vn 0.994850 0.002370 -0.101329
vn 0.987532 0.125452 -0.095090
vn 0.911920 0.394684 -0.112365
vn 0.724690 0.677677 -0.124814
vn 0.437621 0.889656 -0.130383
vn 0.135795 0.981852 -0.132391
vn -0.002893 0.992041 -0.125882
vn -0.148120 0.981100 -0.124515
vn -0.453059 0.880921 -0.136801
vn -0.736309 0.662713 -0.136603
vn -0.916363 0.379439 -0.127694
vn -0.985290 0.114728 -0.126650
vn -0.994652 -0.002369 -0.103255
vn -0.988352 -0.125556 -0.085997
vn -0.912260 -0.394831 -0.109040
vn -0.724965 -0.677934 -0.121785
vn -0.437789 -0.889999 -0.127444
vn -0.135833 -0.982124 -0.130317
vn 0.002893 -0.992269 -0.124073
vn 0.148170 -0.981431 -0.121811
vn 0.453350 -0.881486 -0.132127
vn 0.736892 -0.663238 -0.130787
vn 0.917147 -0.379763 -0.120919
vn 0.986790 -0.114903 -0.114203
vn 0.997429 -0.000398 -0.071664
vn 0.988517 0.119995 -0.091840
vn 0.914889 0.387605 -0.112870
vn 0.728392 0.669111 -0.147431
vn 0.441902 0.879510 -0.176594
vn 0.140527 0.970980 -0.193522
vn 0.000232 0.980438 -0.196830
vn -0.138796 0.968675 -0.205925
vn -0.435170 0.870530 -0.229791
vn -0.713374 0.658415 -0.239973
vn -0.894606 0.381243 -0.233095
vn -0.968869 0.118975 -0.217111
vn -0.975873 0.000389 -0.218340
vn -0.966171 -0.117282 -0.229694
vn -0.893249 -0.378437 -0.242676
vn -0.713085 -0.655050 -0.249841
vn -0.436049 -0.867861 -0.238070
vn -0.139964 -0.967089 -0.212483
vn -0.000232 -0.980653 -0.195753
vn 0.139410 -0.972963 -0.184139
vn 0.441120 -0.882433 -0.163481
vn 0.728462 -0.672340 -0.131536
vn 0.915679 -0.390223 -0.096219
vn 0.990478 -0.121629 -0.064498
vn 0.945794 -0.005954 0.324714
vn 0.951727 0.099873 0.290244
vn 0.893660 0.345264 0.286645
vn 0.742519 0.627261 0.234968
vn 0.476007 0.865660 0.155079
vn 0.163523 0.981816 0.096424
vn 0.006949 0.999451 0.032392
vn -0.132911 0.991126 -0.002174
vn -0.441617 0.896539 0.034515
vn -0.730451 0.679393 0.069762
vn -0.912819 0.395031 0.103496
vn -0.981026 0.128717 0.144982
vn -0.993701 0.006256 0.111887
vn -0.991755 -0.104073 0.074770
vn -0.929488 -0.359106 0.084232
vn -0.762248 -0.643928 0.065837
vn -0.481322 -0.875326 0.046195
vn -0.164001 -0.984685 0.059151
vn -0.006949 -0.999495 0.030998
vn 0.132857 -0.990718 0.028743
vn 0.437796 -0.888782 0.135654
vn 0.712116 -0.662339 0.232803
vn 0.875001 -0.378665 0.301640
vn 0.927902 -0.121746 0.352385
vn 0.559775 -0.003718 0.828636
vn 0.559396 0.054876 0.827082
vn 0.485959 0.177107 0.855849
vn 0.378744 0.302041 0.874828
vn 0.239222 0.409881 0.880211
vn 0.083650 0.468603 0.879440
vn 0.004761 0.518259 0.855210
vn -0.074189 0.538406 0.839413
vn -0.234354 0.457933 0.857540
vn -0.389457 0.347858 0.852829
vn -0.510160 0.212129 0.833510
vn -0.570686 0.072586 0.817954
vn -0.604994 0.004018 0.796220
vn -0.607438 -0.059589 0.792129
vn -0.522278 -0.190344 0.831261
vn -0.401139 -0.319900 0.858342
vn -0.248179 -0.425229 0.870395
vn -0.084768 -0.474866 0.875966
vn -0.004769 -0.519056 0.854727
vn 0.073518 -0.533539 0.842574
vn 0.227219 -0.443990 0.866744
vn 0.369859 -0.330353 0.868373
vn 0.477507 -0.198551 0.855900
vn 0.532090 -0.067677 0.843979
vn 0.373165 -0.005296 0.927750
vn 0.366230 0.032350 0.929962
vn 0.309832 0.109778 0.944432
vn 0.229168 0.179582 0.956678
vn 0.139508 0.232499 0.962539
vn 0.052383 0.266185 0.962498
vn 0.005419 0.274014 0.961711
vn -0.030047 0.268736 0.962745
vn -0.109508 0.242845 0.963864
vn -0.197003 0.196947 0.960417
vn -0.281863 0.132177 0.950307
vn -0.347643 0.053461 0.936102
vn -0.373165 0.005296 0.927750
vn -0.366230 -0.032350 0.929962
vn -0.309832 -0.109778 0.944432
vn -0.229168 -0.179582 0.956678
vn -0.139508 -0.232499 0.962539
vn -0.052383 -0.266185 0.962498
vn -0.005419 -0.274014 0.961711
vn 0.030047 -0.268736 0.962745
vn 0.109508 -0.242845 0.963864
vn 0.197003 -0.196947 0.960417
vn 0.281863 -0.132177 0.950307
vn 0.347643 -0.053461 0.936102
vn 0.058454 -0.000972 0.998290
vn 0.061972 0.005538 0.998063
vn 0.050996 0.018547 0.998527
vn 0.038916 0.031410 0.998749
vn 0.024619 0.042266 0.998803
vn 0.009107 0.047218 0.998843
vn 0.001065 0.054545 0.998511
vn -0.006116 0.057882 0.998305
vn -0.020351 0.047346 0.998671
vn -0.034212 0.035875 0.998770
vn -0.045699 0.022533 0.998701
vn -0.050807 0.008295 0.998674
vn -0.058454 0.000972 0.998290
vn -0.061972 -0.005538 0.998063
vn -0.050996 -0.018547 0.998527
vn -0.038916 -0.031410 0.998749
vn -0.024619 -0.042266 0.998803
vn -0.009107 -0.047218 0.998843
vn -0.001065 -0.054545 0.998511
vn 0.006116 -0.057882 0.998305
vn 0.020351 -0.047346 0.998671
vn 0.034212 -0.035875 0.998770
vn 0.045699 -0.022533 0.998701
vn 0.050807 -0.008295 0.998674
vn 0.000000 0.000000 -1.000000
vn 0.000000 0.000000 1.000000
f 1/1/1 2/2/2 26/26/26
f 1/1/1 26/26/26 25/25/25
f 2/2/2 3/3/3 27/27/27
f 2/2/2 27/27/27 26/26/26
f 3/3/3 4/4/4 28/28/28
f 3/3/3 28/28/28 27/27/27
f 4/4/4 5/5/5 29/29/29
f 4/4/4 29/29/29 28/28/28
f 5/5/5 6/6/6 30/30/30
f 5/5/5 30/30/30 29/29/29
f 6/6/6 7/7/7 31/31/31
f 6/6/6 31/31/31 30/30/30
f 7/7/7 8/8/8 32/32/32
f 7/7/7 32/32/32 31/31/31
f 8/8/8 9/9/9 33/33/33
f 8/8/8 33/33/33 32/32/32
f 9/9/9 10/10/10 34/34/34
f 9/9/9 34/34/34 33/33/33
f 10/10/10 11/11/11 35/35/35
f 10/10/10 35/35/35 34/34/34
f 11/11/11 12/12/12 36/36/36
f 11/11/11 36/36/36 35/35/35
f 12/12/12 13/13/13 37/37/37
f 12/12/12 37/37/37 36/36/36
f 13/13/13 14/14/14 38/38/38
f 13/13/13 38/38/38 37/37/37
f 14/14/14 15/15/15 39/39/39
f 14/14/14 39/39/39 38/38/38
f 15/15/15 16/16/16 40/40/40
f 15/15/15 40/40/40 39/39/39
f 16/16/16 17/17/17 41/41/41
f 16/16/16 41/41/41 40/40/40
f 17/17/17 18/18/18 42/42/42
f 17/17/17 42/42/42 41/41/41
f 18/18/18 19/19/19 43/43/43
f 18/18/18 43/43/43 42/42/42
f 19/19/19 20/20/20 44/44/44
f 19/19/19 44/44/44 43/43/43
f 20/20/20 21/21/21 45/45/45
f 20/20/20 45/45/45 44/44/44
f 21/21/21 22/22/22 46/46/46
f 21/21/21 46/46/46 45/45/45
f 22/22/22 23/23/23 47/47/47
f 22/22/22 47/47/47 46/46/46
f 23/23/23 24/24/24 48/48/48
f 23/23/23 48/48/48 47/47/47
f 24/24/24 1/1/1 25/25/25
f 24/24/24 25/25/25 48/48/48
f 25/25/25 26/26/26 50/50/50
f 25/25/25 50/50/50 49/49/49
f 26/26/26 27/27/27 51/51/51
f 26/26/26 51/51/51 50/50/50
f 27/27/27 28/28/28 52/52/52
f 27/27/27 52/52/52 51/51/51
f 28/28/28 29/29/29 53/53/53
f 28/28/28 53/53/53 52/52/52
f 29/29/29 30/30/30 54/54/54
f 29/29/29 54/54/54 53/53/53
f 30/30/30 31/31/31 55/55/55
f 30/30/30 55/55/55 54/54/54
f 31/31/31 32/32/32 56/56/56
f 31/31/31 56/56/56 55/55/55
f 32/32/32 33/33/33 57/57/57
f 32/32/32 57/57/57 56/56/56
f 33/33/33 34/34/34 58/58/58
f 33/33/33 58/58/58 57/57/57
f 34/34/34 35/35/35 59/59/59
f 34/34/34 59/59/59 58/58/58
f 35/35/35 36/36/36 60/60/60
f 35/35/35 60/60/60 59/59/59
f 36/36/36 37/37/37 61/61/61
f 36/36/36 61/61/61 60/60/60
f 37/37/37 38/38/38 62/62/62
f 37/37/37 62/62/62 61/61/61
f 38/38/38 39/39/39 63/63/63
f 38/38/38 63/63/63 62/62/62
f 39/39/39 40/40/40 64/64/64
f 39/39/39 64/64/64 63/63/63
f 40/40/40 41/41/41 65/65/65
f 40/40/40 65/65/65 64/64/64
f 41/41/41 42/42/42 66/66/66
f 41/41/41 66/66/66 65/65/65
f 42/42/42 43/43/43 67/67/67
f 42/42/42 67/67/67 66/66/66
f 43/43/43 44/44/44 68/68/68
f 43/43/43 68/68/68 67/67/67
f 44/44/44 45/45/45 69/69/69
f 44/44/44 69/69/69 68/68/68
f 45/45/45 46/46/46 70/70/70
f 45/45/45 70/70/70 69/69/69
f 46/46/46 47/47/47 71/71/71
f 46/46/46 71/71/71 70/70/70
f 47/47/47 48/48/48 72/72/72
f 47/47/47 72/72/72 71/71/71
f 48/48/48 25/25/25 49/49/49
f 48/48/48 49/49/49 72/72/72
f 49/49/49 50/50/50 74/74/74
f 49/49/49 74/74/74 73/73/73
f 50/50/50 51/51/51 75/75/75
f 50/50/50 75/75/75 74/74/74
f 51/51/51 52/52/52 76/76/76
f 51/51/51 76/76/76 75/75/75
f 52/52/52 53/53/53 77/77/77
f 52/52/52 77/77/77 76/76/76
f 53/53/53 54/54/54 78/78/78
f 53/53/53 78/78/78 77/77/77
f 54/54/54 55/55/55 79/79/79
f 54/54/54 79/79/79 78/78/78
f 55/55/55 56/56/56 80/80/80
f 55/55/55 80/80/80 79/79/79
f 56/56/56 57/57/57 81/81/81
f 56/56/56 81/81/81 80/80/80
f 57/57/57 58/58/58 82/82/82
f 57/57/57 82/82/82 81/81/81
f 58/58/58 59/59/59 83/83/83
f 58/58/58 83/83/83 82/82/82
f 59/59/59 60/60/60 84/84/84
f 59/59/59 84/84/84 83/83/83
f 60/60/60 61/61/61 85/85/85
f 60/60/60 85/85/85 84/84/84
f 61/61/61 62/62/62 86/86/86
f 61/61/61 86/86/86 85/85/85
f 62/62/62 63/63/63 87/87/87
f 62/62/62 87/87/87 86/86/86
f 63/63/63 64/64/64 88/88/88
f 63/63/63 88/88/88 87/87/87
f 64/64/64 65/65/65 89/89/89
f 64/64/64 89/89/89 88/88/88
f 65/65/65 66/66/66 90/90/90
f 65/65/65 90/90/90 89/89/89
f 66/66/66 67/67/67 91/91/91
f 66/66/66 91/91/91 90/90/90
f 67/67/67 68/68/68 92/92/92
f 67/67/67 92/92/92 91/91/91
f 68/68/68 69/69/69 93/93/93
f 68/68/68 93/93/93 92/92/92
f 69/69/69 70/70/70 94/94/94
f 69/69/69 94/94/94 93/93/93
f 70/70/70 71/71/71 95/95/95
f 70/70/70 95/95/95 94/94/94
f 71/71/71 72/72/72 96/96/96
f 71/71/71 96/96/96 95/95/95
f 72/72/72 49/49/49 73/73/73
f 72/72/72 73/73/73 96/96/96
f 73/73/73 74/74/74 98/98/98
f 73/73/73 98/98/98 97/97/97
f 74/74/74 75/75/75 99/99/99
f 74/74/74 99/99/99 98/98/98
f 75/75/75 76/76/76 100/100/100
f 75/75/75 100/100/100 99/99/99
f 76/76/76 77/77/77 101/101/101
f 76/76/76 101/101/101 100/100/100
f 77/77/77 78/78/78 102/102/102
f 77/77/77 102/102/102 101/101/101
f 78/78/78 79/79/79 103/103/103
f 78/78/78 103/103/103 102/102/102
f 79/79/79 80/80/80 104/104/104
f 79/79/79 104/104/104 103/103/103
f 80/80/80 81/81/81 105/105/105
f 80/80/80 105/105/105 104/104/104
f 81/81/81 82/82/82 106/106/106
f 81/81/81 106/106/106 105/105/105
f 82/82/82 83/83/83 107/107/107
f 82/82/82 107/107/107 106/106/106
f 83/83/83 84/84/84 108/108/108
f 83/83/83 108/108/108 107/107/107
f 84/84/84 85/85/85 109/109/109
f 84/84/84 109/109/109 108/108/108
f 85/85/85 86/86/86 110/110/110
f 85/85/85 110/110/110 109/109/109
f 86/86/86 87/87/87 111/111/111
f 86/86/86 111/111/111 110/110/110
f 87/87/87 88/88/88 112/112/112
f 87/87/87 112/112/112 111/111/111
f 88/88/88 89/89/89 113/113/113
f 88/88/88 113/113/113 112/112/112
f 89/89/89 90/90/90 114/114/114
f 89/89/89 114/114/114 113/113/113
f 90/90/90 91/91/91 115/115/115
f 90/90/90 115/115/115 114/114/114
f 91/91/91 92/92/92 116/116/116
f 91/91/91 116/116/116 115/115/115
f 92/92/92 93/93/93 117/117/117
f 92/92/92 117/117/117 116/116/116
f 93/93/93 94/94/94 118/118/118
f 93/93/93 118/118/118 117/117/117
f 94/94/94 95/95/95 119/119/119
f 94/94/94 119/119/119 118/118/118
f 95/95/95 96/96/96 120/120/120
f 95/95/95 120/120/120 119/119/119
f 96/96/96 73/73/73 97/97/97
f 96/96/96 97/97/97 120/120/120
f 97/97/97 98/98/98 122/122/122
f 97/97/97 122/122/122 121/121/121
f 98/98/98 99/99/99 123/123/123
f 98/98/98 123/123/123 122/122/122
f 99/99/99 100/100/100 124/124/124
f 99/99/99 124/124/124 123/123/123
f 100/100/100 101/101/101 125/125/125
f 100/100/100 125/125/125 124/124/124
f 101/101/101 102/102/102 126/126/126
f 101/101/101 126/126/126 125/125/125
f 102/102/102 103/103/103 127/127/127
f 102/102/102 127/127/127 126/126/126
f 103/103/103 104/104/104 128/128/128
f 103/103/103 128/128/128 127/127/127
f 104/104/104 105/105/105 129/129/129
f 104/104/104 129/129/129 128/128/128
f 105/105/105 106/106/106 130/130/130
f 105/105/105 130/130/130 129/129/129
f 106/106/106 107/107/107 131/131/131
f 106/106/106 131/131/131 130/130/130
f 107/107/107 108/108/108 132/132/132
f 107/107/107 132/132/132 131/131/131
f 108/108/108 109/109/109 133/133/133
f 108/108/108 133/133/133 132/132/132
f 109/109/109 110/110/110 134/134/134
f 109/109/109 134/134/134 133/133/133
f 110/110/110 111/111/111 135/135/135
f 110/110/110 135/135/135 134/134/134
f 111/111/111 112/112/112 136/136/136
f 111/111/111 136/136/136 135/135/135
f 112/112/112 113/113/113 137/137/137
f 112/112/112 137/137/137 136/136/136
f 113/113/113 114/114/114 138/138/138
f 113/113/113 138/138/138 137/137/137
f 114/114/114 115/115/115 139/139/139
f 114/114/114 139/139/139 138/138/138
f 115/115/115 116/116/116 140/140/140
f 115/115/115 140/140/140 139/139/139
f 116/116/116 117/117/117 141/141/141
f 116/116/116 141/141/141 140/140/140
f 117/117/117 118/118/118 142/142/142
f 117/117/117 142/142/142 141/141/141
f 118/118/118 119/119/119 143/143/143
f 118/118/118 143/143/143 142/142/142
f 119/119/119 120/120/120 144/144/144
f 119/119/119 144/144/144 143/143/143
f 120/120/120 97/97/97 121/121/121
f 120/120/120 121/121/121 144/144/144
f 121/121/121 122/122/122 146/146/146
f 121/121/121 146/146/146 145/145/145
f 122/122/122 123/123/123 147/147/147
f 122/122/122 147/147/147 146/146/146
f 123/123/123 124/124/124 148/148/148
f 123/123/123 148/148/148 147/147/147
f 124/124/124 125/125/125 149/149/149
f 124/124/124 149/149/149 148/148/148
f 125/125/125 126/126/126 150/150/150
f 125/125/125 150/150/150 149/149/149
f 126/126/126 127/127/127 151/151/151
f 126/126/126 151/151/151 150/150/150
f 127/127/127 128/128/128 152/152/152
f 127/127/127 152/152/152 151/151/151
f 128/128/128 129/129/129 153/153/153
f 128/128/128 153/153/153 152/152/152
f 129/129/129 130/130/130 154/154/154
f 129/129/129 154/154/154 153/153/153
f 130/130/130 131/131/131 155/155/155
f 130/130/130 155/155/155 154/154/154
f 131/131/131 132/132/132 156/156/156
f 131/131/131 156/156/156 155/155/155
f 132/132/132 133/133/133 157/157/157
f 132/132/132 157/157/157 156/156/156
f 133/133/133 134/134/134 158/158/158
f 133/133/133 158/158/158 157/157/157
f 134/134/134 135/135/135 159/159/159
f 134/134/134 159/159/159 158/158/158
f 135/135/135 136/136/136 160/160/160
f 135/135/135 160/160/160 159/159/159
f 136/136/136 137/137/137 161/161/161
f 136/136/136 161/161/161 160/160/160
f 137/137/137 138/138/138 162/162/162
f 137/137/137 162/162/162 161/161/161
f 138/138/138 139/139/139 163/163/163
f 138/138/138 163/163/163 162/162/162
f 139/139/139 140/140/140 164/164/164
f 139/139/139 164/164/164 163/163/163
f 140/140/140 141/141/141 165/165/165
f 140/140/140 165/165/165 164/164/164
f 141/141/141 142/142/142 166/166/166
f 141/141/141 166/166/166 165/165/165
f 142/142/142 143/143/143 167/167/167
f 142/142/142 167/167/167 166/166/166
f 143/143/143 144/144/144 168/168/168
f 143/143/143 168/168/168 167/167/167
f 144/144/144 121/121/121 145/145/145
f 144/144/144 145/145/145 168/168/168
f 145/145/145 146/146/146 170/170/170
f 145/145/145 170/170/170 169/169/169
f 146/146/146 147/147/147 171/171/171
f 146/146/146 171/171/171 170/170/170
f 147/147/147 148/148/148 172/172/172
f 147/147/147 172/172/172 171/171/171
f 148/148/148 149/149/149 173/173/173
f 148/148/148 173/173/173 172/172/172
f 149/149/149 150/150/150 174/174/174
f 149/149/149 174/174/174 173/173/173
f 150/150/150 151/151/151 175/175/175
f 150/150/150 175/175/175 174/174/174
f 151/151/151 152/152/152 176/176/176
f 151/151/151 176/176/176 175/175/175
f 152/152/152 153/153/153 177/177/177
f 152/152/152 177/177/177 176/176/176
f 153/153/153 154/154/154 178/178/178
f 153/153/153 178/178/178 177/177/177
f 154/154/154 155/155/155 179/179/179
f 154/154/154 179/179/179 178/178/178
f 155/155/155 156/156/156 180/180/180
f 155/155/155 180/180/180 179/179/179
f 156/156/156 157/157/157 181/181/181
f 156/156/156 181/181/181 180/180/180
f 157/157/157 158/158/158 182/182/182
f 157/157/157 182/182/182 181/181/181
f 158/158/158 159/159/159 183/183/183
f 158/158/158 183/183/183 182/182/182
f 159/159/159 160/160/160 184/184/184
f 159/159/159 184/184/184 183/183/183
f 160/160/160 161/161/161 185/185/185
f 160/160/160 185/185/185 184/184/184
f 161/161/161 162/162/162 186/186/186
f 161/161/161 186/186/186 185/185/185
f 162/162/162 163/163/163 187/187/187
f 162/162/162 187/187/187 186/186/186
f 163/163/163 164/164/164 188/188/188
f 163/163/163 188/188/188 187/187/187
f 164/164/164 165/165/165 189/189/189
f 164/164/164 189/189/189 188/188/188
f 165/165/165 166/166/166 190/190/190
f 165/165/165 190/190/190 189/189/189
f 166/166/166 167/167/167 191/191/191
f 166/166/166 191/191/191 190/190/190
f 167/167/167 168/168/168 192/192/192
f 167/167/167 192/192/192 191/191/191
f 168/168/168 145/145/145 169/169/169
f 168/168/168 169/169/169 192/192/192
f 169/169/169 170/170/170 194/194/194
f 169/169/169 194/194/194 193/193/193
f 170/170/170 171/171/171 195/195/195
f 170/170/170 195/195/195 194/194/194
f 171/171/171 172/172/172 196/196/196
f 171/171/171 196/196/196 195/195/195
f 172/172/172 173/173/173 197/197/197
f 172/172/172 197/197/197 196/196/196
f 173/173/173 174/174/174 198/198/198
f 173/173/173 198/198/198 197/197/197
f 174/174/174 175/175/175 199/199/199
f 174/174/174 199/199/199 198/198/198
f 175/175/175 176/176/176 200/200/200
f 175/175/175 200/200/200 199/199/199
f 176/176/176 177/177/177 201/201/201
f 176/176/176 201/201/201 200/200/200
f 177/177/177 178/178/178 202/202/202
f 177/177/177 202/202/202 201/201/201
f 178/178/178 179/179/179 203/203/203
f 178/178/178 203/203/203 202/202/202
f 179/179/179 180/180/180 204/204/204
f 179/179/179 204/204/204 203/203/203
f 180/180/180 181/181/181 205/205/205
f 180/180/180 205/205/205 204/204/204
f 181/181/181 182/182/182 206/206/206
f 181/181/181 206/206/206 205/205/205
f 182/182/182 183/183/183 207/207/207
f 182/182/182 207/207/207 206/206/206
f 183/183/183 184/184/184 208/208/208
f 183/183/183 208/208/208 207/207/207
f 184/184/184 185/185/185 209/209/209
f 184/184/184 209/209/209 208/208/208
f 185/185/185 186/186/186 210/210/210
f 185/185/185 210/210/210 209/209/209
f 186/186/186 187/187/187 211/211/211
f 186/186/186 211/211/211 210/210/210
f 187/187/187 188/188/188 212/212/212
f 187/187/187 212/212/212 211/211/211
f 188/188/188 189/189/189 213/213/213
f 188/188/188 213/213/213 212/212/212
f 189/189/189 190/190/190 214/214/214
f 189/189/189 214/214/214 213/213/213
f 190/190/190 191/191/191 215/215/215
f 190/190/190 215/215/215 214/214/214
f 191/191/191 192/192/192 216/216/216
f 191/191/191 216/216/216 215/215/215
f 192/192/192 169/169/169 193/193/193
f 192/192/192 193/193/193 216/216/216
f 217/217/217 2/2/2 1/1/1
f 217/217/217 3/3/3 2/2/2
f 217/217/217 4/4/4 3/3/3
f 217/217/217 5/5/5 4/4/4
f 217/217/217 6/6/6 5/5/5
f 217/217/217 7/7/7 6/6/6
f 217/217/217 8/8/8 7/7/7
f 217/217/217 9/9/9 8/8/8
f 217/217/217 10/10/10 9/9/9
f 217/217/217 11/11/11 10/10/10
f 217/217/217 12/12/12 11/11/11
f 217/217/217 13/13/13 12/12/12
f 217/217/217 14/14/14 13/13/13
f 217/217/217 15/15/15 14/14/14
f 217/217/217 16/16/16 15/15/15
f 217/217/217 17/17/17 16/16/16
f 217/217/217 18/18/18 17/17/17
f 217/217/217 19/19/19 18/18/18
f 217/217/217 20/20/20 19/19/19
f 217/217/217 21/21/21 20/20/20
f 217/217/217 22/22/22 21/21/21
f 217/217/217 23/23/23 22/22/22
f 217/217/217 24/24/24 23/23/23
f 217/217/217 1/1/1 24/24/24
f 218/218/218 193/193/193 194/194/194
f 218/218/218 194/194/194 195/195/195
f 218/218/218 195/195/195 196/196/196
f 218/218/218 196/196/196 197/197/197
f 218/218/218 197/197/197 198/198/198
f 218/218/218 198/198/198 199/199/199
f 218/218/218 199/199/199 200/200/200
f 218/218/218 200/200/200 201/201/201
f 218/218/218 201/201/201 202/202/202
f 218/218/218 202/202/202 203/203/203
f 218/218/218 203/203/203 204/204/204
f 218/218/218 204/204/204 205/205/205
f 218/218/218 205/205/205 206/206/206
f 218/218/218 206/206/206 207/207/207
f 218/218/218 207/207/207 208/208/208
f 218/218/218 208/208/208 209/209/209
f 218/218/218 209/209/209 210/210/210
f 218/218/218 210/210/210 211/211/211
f 218/218/218 211/211/211 212/212/212
f 218/218/218 212/212/212 213/213/213
f 218/218/218 213/213/213 214/214/214
f 218/218/218 214/214/214 215/215/215
f 218/218/218 215/215/215 216/216/216
f 218/218/218 216/216/216 193/193/193
