# Original BLACKGLASS source; generator version tailored_lofts_v1
o SM_BG_BevelTrim
s 1
v 43.000000 0.000000 -50.000000
v 42.576178 29.224904 -50.000000
v 41.268631 35.274420 -50.000000
v 38.946118 38.946118 -50.000000
v 35.274420 41.268631 -50.000000
v 29.224904 42.576178 -50.000000
v 0.001003 43.000000 -50.000000
v -29.224904 42.576178 -50.000000
v -35.274420 41.268631 -50.000000
v -38.946118 38.946118 -50.000000
v -41.268631 35.274420 -50.000000
v -42.576178 29.224904 -50.000000
v -43.000000 0.001222 -50.000000
v -42.576178 -29.224904 -50.000000
v -41.268631 -35.274420 -50.000000
v -38.946118 -38.946118 -50.000000
v -35.274420 -41.268631 -50.000000
v -29.224904 -42.576178 -50.000000
v -0.001372 -43.000000 -50.000000
v 29.224904 -42.576178 -50.000000
v 35.274420 -41.268631 -50.000000
v 38.946118 -38.946118 -50.000000
v 41.268631 -35.274420 -50.000000
v 42.576178 -29.224904 -50.000000
v 50.000000 0.000000 -43.000000
v 49.507184 33.982446 -43.000000
v 47.986780 41.016768 -43.000000
v 45.286183 45.286183 -43.000000
v 41.016768 47.986780 -43.000000
v 33.982446 49.507184 -43.000000
v 0.001166 50.000000 -43.000000
v -33.982446 49.507184 -43.000000
v -41.016768 47.986780 -43.000000
v -45.286183 45.286183 -43.000000
v -47.986780 41.016768 -43.000000
v -49.507184 33.982446 -43.000000
v -50.000000 0.001421 -43.000000
v -49.507184 -33.982446 -43.000000
v -47.986780 -41.016768 -43.000000
v -45.286183 -45.286183 -43.000000
v -41.016768 -47.986780 -43.000000
v -33.982446 -49.507184 -43.000000
v -0.001596 -50.000000 -43.000000
v 33.982446 -49.507184 -43.000000
v 41.016768 -47.986780 -43.000000
v 45.286183 -45.286183 -43.000000
v 47.986780 -41.016768 -43.000000
v 49.507184 -33.982446 -43.000000
v 50.000000 0.000000 43.000000
v 49.507184 33.982446 43.000000
v 47.986780 41.016768 43.000000
v 45.286183 45.286183 43.000000
v 41.016768 47.986780 43.000000
v 33.982446 49.507184 43.000000
v 0.001166 50.000000 43.000000
v -33.982446 49.507184 43.000000
v -41.016768 47.986780 43.000000
v -45.286183 45.286183 43.000000
v -47.986780 41.016768 43.000000
v -49.507184 33.982446 43.000000
v -50.000000 0.001421 43.000000
v -49.507184 -33.982446 43.000000
v -47.986780 -41.016768 43.000000
v -45.286183 -45.286183 43.000000
v -41.016768 -47.986780 43.000000
v -33.982446 -49.507184 43.000000
v -0.001596 -50.000000 43.000000
v 33.982446 -49.507184 43.000000
v 41.016768 -47.986780 43.000000
v 45.286183 -45.286183 43.000000
v 47.986780 -41.016768 43.000000
v 49.507184 -33.982446 43.000000
v 43.000000 0.000000 50.000000
v 42.576178 29.224904 50.000000
v 41.268631 35.274420 50.000000
v 38.946118 38.946118 50.000000
v 35.274420 41.268631 50.000000
v 29.224904 42.576178 50.000000
v 0.001003 43.000000 50.000000
v -29.224904 42.576178 50.000000
v -35.274420 41.268631 50.000000
v -38.946118 38.946118 50.000000
v -41.268631 35.274420 50.000000
v -42.576178 29.224904 50.000000
v -43.000000 0.001222 50.000000
v -42.576178 -29.224904 50.000000
v -41.268631 -35.274420 50.000000
v -38.946118 -38.946118 50.000000
v -35.274420 -41.268631 50.000000
v -29.224904 -42.576178 50.000000
v -0.001372 -43.000000 50.000000
v 29.224904 -42.576178 50.000000
v 35.274420 -41.268631 50.000000
v 38.946118 -38.946118 50.000000
v 41.268631 -35.274420 50.000000
v 42.576178 -29.224904 50.000000
v -0.000015 0.000051 -50.000000
v -0.000015 0.000051 50.000000
vt 0.000000 0.000000
vt 0.095740 0.000000
vt 0.112562 0.000000
vt 0.125000 0.000000
vt 0.137438 0.000000
vt 0.154260 0.000000
vt 0.249996 0.000000
vt 0.345740 0.000000
vt 0.362562 0.000000
vt 0.375000 0.000000
vt 0.387438 0.000000
vt 0.404260 0.000000
vt 0.499995 0.000000
vt 0.595740 0.000000
vt 0.612562 0.000000
vt 0.625000 0.000000
vt 0.637438 0.000000
vt 0.654260 0.000000
vt 0.749995 0.000000
vt 0.845740 0.000000
vt 0.862562 0.000000
vt 0.875000 0.000000
vt 0.887438 0.000000
vt 0.904260 0.000000
vt 0.000000 0.070000
vt 0.095740 0.070000
vt 0.112562 0.070000
vt 0.125000 0.070000
vt 0.137438 0.070000
vt 0.154260 0.070000
vt 0.249996 0.070000
vt 0.345740 0.070000
vt 0.362562 0.070000
vt 0.375000 0.070000
vt 0.387438 0.070000
vt 0.404260 0.070000
vt 0.499995 0.070000
vt 0.595740 0.070000
vt 0.612562 0.070000
vt 0.625000 0.070000
vt 0.637438 0.070000
vt 0.654260 0.070000
vt 0.749995 0.070000
vt 0.845740 0.070000
vt 0.862562 0.070000
vt 0.875000 0.070000
vt 0.887438 0.070000
vt 0.904260 0.070000
vt 0.000000 0.930000
vt 0.095740 0.930000
vt 0.112562 0.930000
vt 0.125000 0.930000
vt 0.137438 0.930000
vt 0.154260 0.930000
vt 0.249996 0.930000
vt 0.345740 0.930000
vt 0.362562 0.930000
vt 0.375000 0.930000
vt 0.387438 0.930000
vt 0.404260 0.930000
vt 0.499995 0.930000
vt 0.595740 0.930000
vt 0.612562 0.930000
vt 0.625000 0.930000
vt 0.637438 0.930000
vt 0.654260 0.930000
vt 0.749995 0.930000
vt 0.845740 0.930000
vt 0.862562 0.930000
vt 0.875000 0.930000
vt 0.887438 0.930000
vt 0.904260 0.930000
vt 0.000000 1.000000
vt 0.095740 1.000000
vt 0.112562 1.000000
vt 0.125000 1.000000
vt 0.137438 1.000000
vt 0.154260 1.000000
vt 0.249996 1.000000
vt 0.345740 1.000000
vt 0.362562 1.000000
vt 0.375000 1.000000
vt 0.387438 1.000000
vt 0.404260 1.000000
vt 0.499995 1.000000
vt 0.595740 1.000000
vt 0.612562 1.000000
vt 0.625000 1.000000
vt 0.637438 1.000000
vt 0.654260 1.000000
vt 0.749995 1.000000
vt 0.845740 1.000000
vt 0.862562 1.000000
vt 0.875000 1.000000
vt 0.887438 1.000000
vt 0.904260 1.000000
vt 0.296750 0.000000
vt 0.296750 1.000000
vn 0.200571 0.001069 -0.979679
vn 0.157138 0.012077 -0.987503
vn 0.146548 0.066312 -0.986978
vn 0.102360 0.120829 -0.987382
vn 0.052826 0.171854 -0.983705
vn 0.007415 0.230873 -0.972956
vn -0.001069 0.200573 -0.979678
vn -0.012077 0.157138 -0.987503
vn -0.066312 0.146548 -0.986978
vn -0.120829 0.102360 -0.987382
vn -0.171854 0.052826 -0.983705
vn -0.230873 0.007415 -0.972956
vn -0.200573 -0.001069 -0.979678
vn -0.157138 -0.012077 -0.987503
vn -0.146548 -0.066312 -0.986978
vn -0.102360 -0.120829 -0.987382
vn -0.052826 -0.171853 -0.983705
vn -0.007415 -0.230873 -0.972956
vn 0.001069 -0.200573 -0.979678
vn 0.012077 -0.157138 -0.987503
vn 0.066312 -0.146548 -0.986978
vn 0.120829 -0.102360 -0.987382
vn 0.171853 -0.052826 -0.983705
vn 0.230874 -0.007415 -0.972955
vn 0.997409 0.004161 -0.071823
vn 0.991882 0.068845 -0.106917
vn 0.913382 0.396399 -0.092746
vn 0.657161 0.748157 -0.091655
vn 0.304542 0.949300 -0.077993
vn 0.035154 0.998113 -0.050354
vn -0.004161 0.997409 -0.071821
vn -0.068843 0.991882 -0.106918
vn -0.396399 0.913382 -0.092746
vn -0.748157 0.657161 -0.091655
vn -0.949300 0.304542 -0.077993
vn -0.998113 0.035154 -0.050354
vn -0.997409 -0.004161 -0.071821
vn -0.991882 -0.068843 -0.106918
vn -0.913382 -0.396399 -0.092746
vn -0.657161 -0.748157 -0.091655
vn -0.304542 -0.949300 -0.077993
vn -0.035154 -0.998113 -0.050355
vn 0.004161 -0.997409 -0.071821
vn 0.068843 -0.991882 -0.106918
vn 0.396399 -0.913382 -0.092746
vn 0.748157 -0.657161 -0.091655
vn 0.949300 -0.304542 -0.077993
vn 0.998113 -0.035153 -0.050354
vn 0.997409 -0.004161 0.071823
vn 0.998113 0.035153 0.050354
vn 0.949300 0.304542 0.077993
vn 0.748157 0.657161 0.091655
vn 0.396399 0.913382 0.092746
vn 0.068847 0.991882 0.106916
vn 0.004161 0.997409 0.071824
vn -0.035152 0.998113 0.050354
vn -0.304542 0.949300 0.077993
vn -0.657161 0.748157 0.091655
vn -0.913382 0.396399 0.092746
vn -0.991882 0.068847 0.106916
vn -0.997409 0.004161 0.071824
vn -0.998113 -0.035151 0.050354
vn -0.949300 -0.304542 0.077993
vn -0.748157 -0.657161 0.091655
vn -0.396399 -0.913382 0.092746
vn -0.068847 -0.991882 0.106916
vn -0.004161 -0.997409 0.071825
vn 0.035151 -0.998113 0.050354
vn 0.304542 -0.949300 0.077993
vn 0.657161 -0.748157 0.091655
vn 0.913382 -0.396399 0.092746
vn 0.991882 -0.068845 0.106917
vn 0.200571 -0.001069 0.979679
vn 0.230874 0.007415 0.972955
vn 0.171854 0.052826 0.983705
vn 0.120829 0.102360 0.987382
vn 0.066312 0.146548 0.986978
vn 0.012078 0.157139 0.987503
vn 0.001069 0.200569 0.979679
vn -0.007414 0.230875 0.972955
vn -0.052826 0.171854 0.983705
vn -0.102360 0.120829 0.987382
vn -0.146548 0.066312 0.986978
vn -0.157139 0.012078 0.987503
vn -0.200568 0.001069 0.979679
vn -0.230875 -0.007414 0.972955
vn -0.171854 -0.052826 0.983705
vn -0.120829 -0.102360 0.987382
vn -0.066312 -0.146548 0.986978
vn -0.012078 -0.157139 0.987503
vn -0.001069 -0.200568 0.979679
vn 0.007414 -0.230875 0.972955
vn 0.052826 -0.171853 0.983705
vn 0.102360 -0.120829 0.987382
vn 0.146548 -0.066312 0.986978
vn 0.157138 -0.012077 0.987503
vn 0.000000 0.000000 -1.000000
vn 0.000000 0.000000 1.000000
f 1/1/1 2/2/2 26/26/26
f 1/1/1 26/26/26 25/25/25
f 2/2/2 3/3/3 27/27/27
f 2/2/2 27/27/27 26/26/26
f 3/3/3 4/4/4 28/28/28
f 3/3/3 28/28/28 27/27/27
f 4/4/4 5/5/5 29/29/29
f 4/4/4 29/29/29 28/28/28
f 5/5/5 6/6/6 30/30/30
f 5/5/5 30/30/30 29/29/29
f 6/6/6 7/7/7 31/31/31
f 6/6/6 31/31/31 30/30/30
f 7/7/7 8/8/8 32/32/32
f 7/7/7 32/32/32 31/31/31
f 8/8/8 9/9/9 33/33/33
f 8/8/8 33/33/33 32/32/32
f 9/9/9 10/10/10 34/34/34
f 9/9/9 34/34/34 33/33/33
f 10/10/10 11/11/11 35/35/35
f 10/10/10 35/35/35 34/34/34
f 11/11/11 12/12/12 36/36/36
f 11/11/11 36/36/36 35/35/35
f 12/12/12 13/13/13 37/37/37
f 12/12/12 37/37/37 36/36/36
f 13/13/13 14/14/14 38/38/38
f 13/13/13 38/38/38 37/37/37
f 14/14/14 15/15/15 39/39/39
f 14/14/14 39/39/39 38/38/38
f 15/15/15 16/16/16 40/40/40
f 15/15/15 40/40/40 39/39/39
f 16/16/16 17/17/17 41/41/41
f 16/16/16 41/41/41 40/40/40
f 17/17/17 18/18/18 42/42/42
f 17/17/17 42/42/42 41/41/41
f 18/18/18 19/19/19 43/43/43
f 18/18/18 43/43/43 42/42/42
f 19/19/19 20/20/20 44/44/44
f 19/19/19 44/44/44 43/43/43
f 20/20/20 21/21/21 45/45/45
f 20/20/20 45/45/45 44/44/44
f 21/21/21 22/22/22 46/46/46
f 21/21/21 46/46/46 45/45/45
f 22/22/22 23/23/23 47/47/47
f 22/22/22 47/47/47 46/46/46
f 23/23/23 24/24/24 48/48/48
f 23/23/23 48/48/48 47/47/47
f 24/24/24 1/1/1 25/25/25
f 24/24/24 25/25/25 48/48/48
f 25/25/25 26/26/26 50/50/50
f 25/25/25 50/50/50 49/49/49
f 26/26/26 27/27/27 51/51/51
f 26/26/26 51/51/51 50/50/50
f 27/27/27 28/28/28 52/52/52
f 27/27/27 52/52/52 51/51/51
f 28/28/28 29/29/29 53/53/53
f 28/28/28 53/53/53 52/52/52
f 29/29/29 30/30/30 54/54/54
f 29/29/29 54/54/54 53/53/53
f 30/30/30 31/31/31 55/55/55
f 30/30/30 55/55/55 54/54/54
f 31/31/31 32/32/32 56/56/56
f 31/31/31 56/56/56 55/55/55
f 32/32/32 33/33/33 57/57/57
f 32/32/32 57/57/57 56/56/56
f 33/33/33 34/34/34 58/58/58
f 33/33/33 58/58/58 57/57/57
f 34/34/34 35/35/35 59/59/59
f 34/34/34 59/59/59 58/58/58
f 35/35/35 36/36/36 60/60/60
f 35/35/35 60/60/60 59/59/59
f 36/36/36 37/37/37 61/61/61
f 36/36/36 61/61/61 60/60/60
f 37/37/37 38/38/38 62/62/62
f 37/37/37 62/62/62 61/61/61
f 38/38/38 39/39/39 63/63/63
f 38/38/38 63/63/63 62/62/62
f 39/39/39 40/40/40 64/64/64
f 39/39/39 64/64/64 63/63/63
f 40/40/40 41/41/41 65/65/65
f 40/40/40 65/65/65 64/64/64
f 41/41/41 42/42/42 66/66/66
f 41/41/41 66/66/66 65/65/65
f 42/42/42 43/43/43 67/67/67
f 42/42/42 67/67/67 66/66/66
f 43/43/43 44/44/44 68/68/68
f 43/43/43 68/68/68 67/67/67
f 44/44/44 45/45/45 69/69/69
f 44/44/44 69/69/69 68/68/68
f 45/45/45 46/46/46 70/70/70
f 45/45/45 70/70/70 69/69/69
f 46/46/46 47/47/47 71/71/71
f 46/46/46 71/71/71 70/70/70
f 47/47/47 48/48/48 72/72/72
f 47/47/47 72/72/72 71/71/71
f 48/48/48 25/25/25 49/49/49
f 48/48/48 49/49/49 72/72/72
f 49/49/49 50/50/50 74/74/74
f 49/49/49 74/74/74 73/73/73
f 50/50/50 51/51/51 75/75/75
f 50/50/50 75/75/75 74/74/74
f 51/51/51 52/52/52 76/76/76
f 51/51/51 76/76/76 75/75/75
f 52/52/52 53/53/53 77/77/77
f 52/52/52 77/77/77 76/76/76
f 53/53/53 54/54/54 78/78/78
f 53/53/53 78/78/78 77/77/77
f 54/54/54 55/55/55 79/79/79
f 54/54/54 79/79/79 78/78/78
f 55/55/55 56/56/56 80/80/80
f 55/55/55 80/80/80 79/79/79
f 56/56/56 57/57/57 81/81/81
f 56/56/56 81/81/81 80/80/80
f 57/57/57 58/58/58 82/82/82
f 57/57/57 82/82/82 81/81/81
f 58/58/58 59/59/59 83/83/83
f 58/58/58 83/83/83 82/82/82
f 59/59/59 60/60/60 84/84/84
f 59/59/59 84/84/84 83/83/83
f 60/60/60 61/61/61 85/85/85
f 60/60/60 85/85/85 84/84/84
f 61/61/61 62/62/62 86/86/86
f 61/61/61 86/86/86 85/85/85
f 62/62/62 63/63/63 87/87/87
f 62/62/62 87/87/87 86/86/86
f 63/63/63 64/64/64 88/88/88
f 63/63/63 88/88/88 87/87/87
f 64/64/64 65/65/65 89/89/89
f 64/64/64 89/89/89 88/88/88
f 65/65/65 66/66/66 90/90/90
f 65/65/65 90/90/90 89/89/89
f 66/66/66 67/67/67 91/91/91
f 66/66/66 91/91/91 90/90/90
f 67/67/67 68/68/68 92/92/92
f 67/67/67 92/92/92 91/91/91
f 68/68/68 69/69/69 93/93/93
f 68/68/68 93/93/93 92/92/92
f 69/69/69 70/70/70 94/94/94
f 69/69/69 94/94/94 93/93/93
f 70/70/70 71/71/71 95/95/95
f 70/70/70 95/95/95 94/94/94
f 71/71/71 72/72/72 96/96/96
f 71/71/71 96/96/96 95/95/95
f 72/72/72 49/49/49 73/73/73
f 72/72/72 73/73/73 96/96/96
f 97/97/97 2/2/2 1/1/1
f 97/97/97 3/3/3 2/2/2
f 97/97/97 4/4/4 3/3/3
f 97/97/97 5/5/5 4/4/4
f 97/97/97 6/6/6 5/5/5
f 97/97/97 7/7/7 6/6/6
f 97/97/97 8/8/8 7/7/7
f 97/97/97 9/9/9 8/8/8
f 97/97/97 10/10/10 9/9/9
f 97/97/97 11/11/11 10/10/10
f 97/97/97 12/12/12 11/11/11
f 97/97/97 13/13/13 12/12/12
f 97/97/97 14/14/14 13/13/13
f 97/97/97 15/15/15 14/14/14
f 97/97/97 16/16/16 15/15/15
f 97/97/97 17/17/17 16/16/16
f 97/97/97 18/18/18 17/17/17
f 97/97/97 19/19/19 18/18/18
f 97/97/97 20/20/20 19/19/19
f 97/97/97 21/21/21 20/20/20
f 97/97/97 22/22/22 21/21/21
f 97/97/97 23/23/23 22/22/22
f 97/97/97 24/24/24 23/23/23
f 97/97/97 1/1/1 24/24/24
f 98/98/98 73/73/73 74/74/74
f 98/98/98 74/74/74 75/75/75
f 98/98/98 75/75/75 76/76/76
f 98/98/98 76/76/76 77/77/77
f 98/98/98 77/77/77 78/78/78
f 98/98/98 78/78/78 79/79/79
f 98/98/98 79/79/79 80/80/80
f 98/98/98 80/80/80 81/81/81
f 98/98/98 81/81/81 82/82/82
f 98/98/98 82/82/82 83/83/83
f 98/98/98 83/83/83 84/84/84
f 98/98/98 84/84/84 85/85/85
f 98/98/98 85/85/85 86/86/86
f 98/98/98 86/86/86 87/87/87
f 98/98/98 87/87/87 88/88/88
f 98/98/98 88/88/88 89/89/89
f 98/98/98 89/89/89 90/90/90
f 98/98/98 90/90/90 91/91/91
f 98/98/98 91/91/91 92/92/92
f 98/98/98 92/92/92 93/93/93
f 98/98/98 93/93/93 94/94/94
f 98/98/98 94/94/94 95/95/95
f 98/98/98 95/95/95 96/96/96
f 98/98/98 96/96/96 73/73/73
