# Original BLACKGLASS source; generator version tailored_lofts_v1
o SM_BG_CoatTail
s 1
v 38.000000 0.000000 -50.000000
v 37.421593 26.788989 -50.000000
v 35.651675 34.861481 -50.000000
v 32.563124 40.045326 -50.000000
v 27.830048 43.428026 -50.000000
v 20.459512 45.366507 -50.000000
v -3.999986 46.000000 -50.000000
v -28.459512 45.366507 -50.000000
v -35.830048 43.428026 -50.000000
v -40.563124 40.045326 -50.000000
v -43.651675 34.861481 -50.000000
v -45.421593 26.788989 -50.000000
v -46.000000 0.000020 -50.000000
v -45.421593 -26.788989 -50.000000
v -43.651675 -34.861481 -50.000000
v -40.563124 -40.045326 -50.000000
v -35.830048 -43.428026 -50.000000
v -28.459512 -45.366507 -50.000000
v -4.000021 -46.000000 -50.000000
v 20.459512 -45.366507 -50.000000
v 27.830048 -43.428026 -50.000000
v 32.563124 -40.045326 -50.000000
v 35.651675 -34.861481 -50.000000
v 37.421593 -26.788989 -50.000000
v 45.000000 0.000000 -46.000000
v 44.338964 29.118466 -46.000000
v 42.316201 37.892914 -46.000000
v 38.786427 43.527528 -46.000000
v 33.377198 47.204376 -46.000000
v 24.953728 49.311421 -46.000000
v -2.999984 50.000000 -46.000000
v -30.953728 49.311421 -46.000000
v -39.377198 47.204376 -46.000000
v -44.786427 43.527528 -46.000000
v -48.316201 37.892914 -46.000000
v -50.338964 29.118466 -46.000000
v -51.000000 0.000022 -46.000000
v -50.338964 -29.118466 -46.000000
v -48.316201 -37.892914 -46.000000
v -44.786427 -43.527528 -46.000000
v -39.377198 -47.204376 -46.000000
v -30.953728 -49.311421 -46.000000
v -3.000024 -50.000000 -46.000000
v 24.953728 -49.311421 -46.000000
v 33.377198 -47.204376 -46.000000
v 38.786427 -43.527528 -46.000000
v 42.316201 -37.892914 -46.000000
v 44.338964 -29.118466 -46.000000
v 44.000000 0.000000 -28.000000
v 43.366507 28.536097 -28.000000
v 41.428026 37.135056 -28.000000
v 38.045326 42.656978 -28.000000
v 32.861481 46.260288 -28.000000
v 24.788989 48.325192 -28.000000
v -1.999985 49.000000 -28.000000
v -28.788989 48.325192 -28.000000
v -36.861481 46.260288 -28.000000
v -42.045326 42.656978 -28.000000
v -45.428026 37.135056 -28.000000
v -47.366507 28.536097 -28.000000
v -48.000000 0.000021 -28.000000
v -47.366507 -28.536097 -28.000000
v -45.428026 -37.135056 -28.000000
v -42.045326 -42.656978 -28.000000
v -36.861481 -46.260288 -28.000000
v -28.788989 -48.325192 -28.000000
v -2.000023 -49.000000 -28.000000
v 24.788989 -48.325192 -28.000000
v 32.861481 -46.260288 -28.000000
v 38.045326 -42.656978 -28.000000
v 41.428026 -37.135056 -28.000000
v 43.366507 -28.536097 -28.000000
v 42.000000 0.000000 0.000000
v 41.421593 26.206620 0.000000
v 39.651675 34.103623 0.000000
v 36.563124 39.174775 0.000000
v 31.830048 42.483938 0.000000
v 24.459512 44.380279 0.000000
v 0.000014 45.000000 0.000000
v -24.459512 44.380279 0.000000
v -31.830048 42.483938 0.000000
v -36.563124 39.174775 0.000000
v -39.651675 34.103623 0.000000
v -41.421593 26.206620 0.000000
v -42.000000 0.000019 0.000000
v -41.421593 -26.206620 0.000000
v -39.651675 -34.103623 0.000000
v -36.563124 -39.174775 0.000000
v -31.830048 -42.483938 0.000000
v -24.459512 -44.380279 0.000000
v -0.000021 -45.000000 0.000000
v 24.459512 -44.380279 0.000000
v 31.830048 -42.483938 0.000000
v 36.563124 -39.174775 0.000000
v 39.651675 -34.103623 0.000000
v 41.421593 -26.206620 0.000000
v 39.000000 0.000000 30.000000
v 38.476680 23.294773 30.000000
v 36.875325 30.314331 30.000000
v 34.080921 34.822023 30.000000
v 29.798615 37.763500 30.000000
v 23.130034 39.449137 30.000000
v 1.000012 40.000000 30.000000
v -21.130034 39.449137 30.000000
v -27.798615 37.763500 30.000000
v -32.080921 34.822023 30.000000
v -34.875325 30.314331 30.000000
v -36.476680 23.294773 30.000000
v -37.000000 0.000017 30.000000
v -36.476680 -23.294773 30.000000
v -34.875325 -30.314331 30.000000
v -32.080921 -34.822023 30.000000
v -27.798615 -37.763500 30.000000
v -21.130034 -39.449137 30.000000
v 0.999981 -40.000000 30.000000
v 23.130034 -39.449137 30.000000
v 29.798615 -37.763500 30.000000
v 34.080921 -34.822023 30.000000
v 36.875325 -30.314331 30.000000
v 38.476680 -23.294773 30.000000
v 37.000000 0.000000 47.000000
v 36.504223 21.547665 47.000000
v 34.987150 28.040756 47.000000
v 32.339820 32.210371 47.000000
v 28.282898 34.931238 47.000000
v 21.965296 36.490451 47.000000
v 1.000012 37.000000 47.000000
v -19.965296 36.490451 47.000000
v -26.282898 34.931238 47.000000
v -30.339820 32.210371 47.000000
v -32.987150 28.040756 47.000000
v -34.504223 21.547665 47.000000
v -35.000000 0.000016 47.000000
v -34.504223 -21.547665 47.000000
v -32.987150 -28.040756 47.000000
v -30.339820 -32.210371 47.000000
v -26.282898 -34.931238 47.000000
v -19.965296 -36.490451 47.000000
v 0.999982 -37.000000 47.000000
v 21.965296 -36.490451 47.000000
v 28.282898 -34.931238 47.000000
v 32.339820 -32.210371 47.000000
v 34.987150 -28.040756 47.000000
v 36.504223 -21.547665 47.000000
v 32.000000 0.000000 50.000000
v 31.559309 19.800557 50.000000
v 30.210800 25.767182 50.000000
v 27.857618 29.598719 50.000000
v 24.251465 32.098975 50.000000
v 18.635818 33.531766 50.000000
v 0.000010 34.000000 50.000000
v -18.635818 33.531766 50.000000
v -24.251465 32.098975 50.000000
v -27.857618 29.598719 50.000000
v -30.210800 25.767182 50.000000
v -31.559309 19.800557 50.000000
v -32.000000 0.000015 50.000000
v -31.559309 -19.800557 50.000000
v -30.210800 -25.767182 50.000000
v -27.857618 -29.598719 50.000000
v -24.251465 -32.098975 50.000000
v -18.635818 -33.531766 50.000000
v -0.000016 -34.000000 50.000000
v 18.635818 -33.531766 50.000000
v 24.251465 -32.098975 50.000000
v 27.857618 -29.598719 50.000000
v 30.210800 -25.767182 50.000000
v 31.559309 -19.800557 50.000000
v -4.000000 0.000001 -50.000000
v -0.000000 0.000001 50.000000
vt 0.000000 0.000000
vt 0.098883 0.000000
vt 0.123217 0.000000
vt 0.141343 0.000000
vt 0.159297 0.000000
vt 0.182571 0.000000
vt 0.263805 0.000000
vt 0.339170 0.000000
vt 0.359789 0.000000
vt 0.376022 0.000000
vt 0.392745 0.000000
vt 0.415190 0.000000
vt 0.500000 0.000000
vt 0.584810 0.000000
vt 0.607255 0.000000
vt 0.623978 0.000000
vt 0.640211 0.000000
vt 0.660830 0.000000
vt 0.736195 0.000000
vt 0.817429 0.000000
vt 0.840703 0.000000
vt 0.858657 0.000000
vt 0.876783 0.000000
vt 0.901117 0.000000
vt 0.000000 0.040000
vt 0.092483 0.040000
vt 0.116232 0.040000
vt 0.134157 0.040000
vt 0.152046 0.040000
vt 0.175441 0.040000
vt 0.259538 0.040000
vt 0.339215 0.040000
vt 0.360651 0.040000
vt 0.377269 0.040000
vt 0.394150 0.040000
vt 0.416536 0.040000
vt 0.500000 0.040000
vt 0.583464 0.040000
vt 0.605850 0.040000
vt 0.622731 0.040000
vt 0.639349 0.040000
vt 0.660785 0.040000
vt 0.740462 0.040000
vt 0.824559 0.040000
vt 0.847954 0.040000
vt 0.865843 0.040000
vt 0.883768 0.040000
vt 0.907517 0.040000
vt 0.000000 0.220000
vt 0.092627 0.220000
vt 0.116312 0.220000
vt 0.134085 0.220000
vt 0.151699 0.220000
vt 0.174566 0.220000
vt 0.256492 0.220000
vt 0.335510 0.220000
vt 0.357080 0.220000
vt 0.373851 0.220000
vt 0.390933 0.220000
vt 0.413703 0.220000
vt 0.500000 0.220000
vt 0.586297 0.220000
vt 0.609067 0.220000
vt 0.626149 0.220000
vt 0.642920 0.220000
vt 0.664490 0.220000
vt 0.743507 0.220000
vt 0.825434 0.220000
vt 0.848301 0.220000
vt 0.865915 0.220000
vt 0.883688 0.220000
vt 0.907373 0.220000
vt 0.000000 0.500000
vt 0.089780 0.500000
vt 0.113050 0.500000
vt 0.130486 0.500000
vt 0.147663 0.500000
vt 0.169831 0.500000
vt 0.250000 0.500000
vt 0.330169 0.500000
vt 0.352337 0.500000
vt 0.369514 0.500000
vt 0.386950 0.500000
vt 0.410220 0.500000
vt 0.500000 0.500000
vt 0.589780 0.500000
vt 0.613050 0.500000
vt 0.630486 0.500000
vt 0.647663 0.500000
vt 0.669831 0.500000
vt 0.750000 0.500000
vt 0.830169 0.500000
vt 0.852337 0.500000
vt 0.869514 0.500000
vt 0.886950 0.500000
vt 0.910220 0.500000
vt 0.000000 0.800000
vt 0.086644 0.800000
vt 0.109508 0.800000
vt 0.126712 0.800000
vt 0.143677 0.800000
vt 0.165599 0.800000
vt 0.246022 0.800000
vt 0.328263 0.800000
vt 0.350994 0.800000
vt 0.368483 0.800000
vt 0.386117 0.800000
vt 0.409547 0.800000
vt 0.500000 0.800000
vt 0.590453 0.800000
vt 0.613883 0.800000
vt 0.631517 0.800000
vt 0.649006 0.800000
vt 0.671737 0.800000
vt 0.753978 0.800000
vt 0.834401 0.800000
vt 0.856323 0.800000
vt 0.873288 0.800000
vt 0.890492 0.800000
vt 0.913356 0.800000
vt 0.000000 0.970000
vt 0.084868 0.970000
vt 0.107530 0.970000
vt 0.124681 0.970000
vt 0.141677 0.970000
vt 0.163762 0.970000
vt 0.245700 0.970000
vt 0.329680 0.970000
vt 0.352662 0.970000
vt 0.370242 0.970000
vt 0.387872 0.970000
vt 0.411154 0.970000
vt 0.500000 0.970000
vt 0.588846 0.970000
vt 0.612128 0.970000
vt 0.629758 0.970000
vt 0.647338 0.970000
vt 0.670320 0.970000
vt 0.754300 0.970000
vt 0.836238 0.970000
vt 0.858323 0.970000
vt 0.875319 0.970000
vt 0.892470 0.970000
vt 0.915132 0.970000
vt 0.000000 1.000000
vt 0.089179 1.000000
vt 0.112392 1.000000
vt 0.129821 1.000000
vt 0.147023 1.000000
vt 0.169267 1.000000
vt 0.250000 1.000000
vt 0.330733 1.000000
vt 0.352977 1.000000
vt 0.370179 1.000000
vt 0.387608 1.000000
vt 0.410821 1.000000
vt 0.500000 1.000000
vt 0.589179 1.000000
vt 0.612392 1.000000
vt 0.629821 1.000000
vt 0.647023 1.000000
vt 0.669267 1.000000
vt 0.750000 1.000000
vt 0.830733 1.000000
vt 0.852977 1.000000
vt 0.870179 1.000000
vt 0.887608 1.000000
vt 0.910821 1.000000
vt 0.500000 0.000000
vt 0.309682 1.000000
vn 0.116165 0.000929 -0.993230
vn 0.095557 0.009572 -0.995378
vn 0.088954 0.039498 -0.995252
vn 0.065187 0.070444 -0.995383
vn 0.036341 0.100425 -0.994281
vn 0.007357 0.134891 -0.990833
vn -0.001069 0.119351 -0.992852
vn -0.011101 0.095500 -0.995367
vn -0.045111 0.087800 -0.995116
vn -0.077765 0.062160 -0.995032
vn -0.106866 0.033379 -0.993713
vn -0.138539 0.006516 -0.990335
vn -0.123273 -0.000985 -0.992372
vn -0.100327 -0.010050 -0.994904
vn -0.093073 -0.041327 -0.994801
vn -0.067372 -0.072806 -0.995068
vn -0.037010 -0.102272 -0.994068
vn -0.007384 -0.135384 -0.990766
vn 0.001069 -0.119288 -0.992859
vn 0.011040 -0.094976 -0.995418
vn 0.044121 -0.085872 -0.995329
vn 0.074868 -0.059844 -0.995396
vn 0.101476 -0.031696 -0.994333
vn 0.129640 -0.006098 -0.991542
vn 0.966129 0.004617 -0.258018
vn 0.933862 0.082042 -0.348095
vn 0.880618 0.373151 -0.292010
vn 0.669508 0.696879 -0.257136
vn 0.348498 0.917649 -0.190971
vn 0.061617 0.993071 -0.100069
vn -0.005265 0.991368 -0.131002
vn -0.094945 0.978889 -0.181002
vn -0.419897 0.897345 -0.135859
vn -0.749475 0.652073 -0.114405
vn -0.942244 0.324088 -0.084519
vn -0.998090 0.056088 -0.025899
vn -0.996276 -0.004761 -0.086092
vn -0.982211 -0.086290 -0.166778
vn -0.912920 -0.386838 -0.130131
vn -0.686546 -0.714614 -0.134098
vn -0.352218 -0.927445 -0.125650
vn -0.061689 -0.994230 -0.087751
vn 0.005265 -0.991362 -0.131047
vn 0.094667 -0.976027 -0.195981
vn 0.414805 -0.886463 -0.205232
vn 0.732610 -0.637400 -0.238756
vn 0.917736 -0.315659 -0.241083
vn 0.981130 -0.055135 -0.185324
vn 0.997896 0.001104 0.064818
vn 0.995109 0.072912 0.066654
vn 0.929238 0.359820 0.083941
vn 0.717202 0.689491 0.101115
vn 0.381794 0.917799 0.108987
vn 0.073621 0.990835 0.113250
vn -0.001349 0.994210 0.107446
vn -0.082016 0.990596 0.109509
vn -0.396180 0.905039 0.154744
vn -0.722378 0.664824 0.190207
vn -0.919355 0.338451 0.200594
vn -0.978350 0.064315 0.196710
vn -0.981489 -0.001086 0.191517
vn -0.979093 -0.071739 0.190344
vn -0.913601 -0.353766 0.200455
vn -0.707607 -0.680267 0.191127
vn -0.379310 -0.911829 0.157135
vn -0.073540 -0.989739 0.122507
vn 0.001350 -0.994242 0.107150
vn 0.082109 -0.991720 0.098743
vn 0.398863 -0.911169 0.103340
vn 0.732360 -0.674010 0.096744
vn 0.935321 -0.344328 0.081322
vn 0.995537 -0.065445 0.067991
vn 0.996343 -0.000448 0.085447
vn 0.993934 0.067196 0.087063
vn 0.931197 0.346593 0.112893
vn 0.725571 0.673733 0.140112
vn 0.392593 0.906807 0.153530
vn 0.079284 0.984797 0.154559
vn 0.000551 0.988263 0.152759
vn -0.075837 0.984533 0.157937
vn -0.383231 0.903804 0.190450
vn -0.710349 0.671449 0.211095
vn -0.914780 0.347578 0.205832
vn -0.979982 0.069252 0.186654
vn -0.982337 0.000441 0.187119
vn -0.978622 -0.066161 0.194736
vn -0.916379 -0.341078 0.209561
vn -0.715658 -0.664528 0.215027
vn -0.389713 -0.900155 0.194538
vn -0.079173 -0.983422 0.163134
vn -0.000551 -0.988207 0.153121
vn 0.075925 -0.985666 0.150657
vn 0.385801 -0.909866 0.152650
vn 0.719528 -0.680126 0.140384
vn 0.928674 -0.352857 0.114262
vn 0.993286 -0.070193 0.091955
vn 0.994397 -0.002655 0.105674
vn 0.992241 0.061125 0.108268
vn 0.932669 0.334505 0.135034
vn 0.732942 0.660422 0.163214
vn 0.403500 0.898186 0.174499
vn 0.086757 0.981626 0.169954
vn 0.003088 0.985894 0.167344
vn -0.067285 0.983073 0.170410
vn -0.363464 0.912318 0.188599
vn -0.694152 0.693262 0.193753
vn -0.912674 0.368846 0.176006
vn -0.985680 0.078439 0.149269
vn -0.988957 0.002641 0.148177
vn -0.985952 -0.060737 0.155595
vn -0.926511 -0.332297 0.176509
vn -0.728568 -0.656481 0.195502
vn -0.402123 -0.895121 0.192498
vn -0.086694 -0.980917 0.174030
vn -0.003087 -0.985830 0.167718
vn 0.067314 -0.983499 0.167924
vn 0.364442 -0.914773 0.174277
vn 0.697755 -0.696861 0.165901
vn 0.918126 -0.371050 0.139162
vn 0.990501 -0.078823 0.112673
vn 0.946907 -0.005445 0.321462
vn 0.960031 0.052397 0.274947
vn 0.891077 0.304476 0.336564
vn 0.705158 0.611326 0.359210
vn 0.400037 0.849615 0.343692
vn 0.093961 0.940365 0.326934
vn 0.006010 0.959406 0.281965
vn -0.056539 0.964309 0.258674
vn -0.328700 0.895394 0.300377
vn -0.647170 0.694689 0.313971
vn -0.875194 0.383417 0.295005
vn -0.954274 0.088779 0.285446
vn -0.971484 0.005586 0.237038
vn -0.975946 -0.053266 0.211405
vn -0.911781 -0.311550 0.267567
vn -0.719441 -0.623708 0.305604
vn -0.404385 -0.858850 0.314403
vn -0.094165 -0.942402 0.320954
vn -0.006009 -0.959215 0.282615
vn 0.056432 -0.962494 0.265368
vn 0.324931 -0.885127 0.333121
vn 0.632003 -0.678409 0.374611
vn 0.848168 -0.371577 0.377547
vn 0.915825 -0.085201 0.392434
vn 0.115862 -0.000939 0.993265
vn 0.129493 0.006254 0.991561
vn 0.100959 0.032341 0.994365
vn 0.074195 0.060808 0.995388
vn 0.043553 0.086916 0.995263
vn 0.010866 0.095993 0.995323
vn 0.001052 0.120215 0.992747
vn -0.007271 0.136386 0.990629
vn -0.036697 0.103828 0.993918
vn -0.067370 0.074541 0.994940
vn -0.093816 0.042644 0.994676
vn -0.101439 0.010396 0.994787
vn -0.125483 0.001017 0.992095
vn -0.141605 -0.006839 0.989900
vn -0.108198 -0.034660 0.993525
vn -0.078036 -0.063956 0.994897
vn -0.044849 -0.089502 0.994976
vn -0.010945 -0.096690 0.995254
vn -0.001053 -0.120299 0.992737
vn 0.007236 -0.135734 0.990719
vn 0.035826 -0.101363 0.994204
vn 0.064488 -0.071352 0.995364
vn 0.088320 -0.040146 0.995283
vn 0.095043 -0.009741 0.995426
vn 0.000000 0.000000 -1.000000
vn 0.000000 0.000000 1.000000
f 1/1/1 2/2/2 26/26/26
f 1/1/1 26/26/26 25/25/25
f 2/2/2 3/3/3 27/27/27
f 2/2/2 27/27/27 26/26/26
f 3/3/3 4/4/4 28/28/28
f 3/3/3 28/28/28 27/27/27
f 4/4/4 5/5/5 29/29/29
f 4/4/4 29/29/29 28/28/28
f 5/5/5 6/6/6 30/30/30
f 5/5/5 30/30/30 29/29/29
f 6/6/6 7/7/7 31/31/31
f 6/6/6 31/31/31 30/30/30
f 7/7/7 8/8/8 32/32/32
f 7/7/7 32/32/32 31/31/31
f 8/8/8 9/9/9 33/33/33
f 8/8/8 33/33/33 32/32/32
f 9/9/9 10/10/10 34/34/34
f 9/9/9 34/34/34 33/33/33
f 10/10/10 11/11/11 35/35/35
f 10/10/10 35/35/35 34/34/34
f 11/11/11 12/12/12 36/36/36
f 11/11/11 36/36/36 35/35/35
f 12/12/12 13/13/13 37/37/37
f 12/12/12 37/37/37 36/36/36
f 13/13/13 14/14/14 38/38/38
f 13/13/13 38/38/38 37/37/37
f 14/14/14 15/15/15 39/39/39
f 14/14/14 39/39/39 38/38/38
f 15/15/15 16/16/16 40/40/40
f 15/15/15 40/40/40 39/39/39
f 16/16/16 17/17/17 41/41/41
f 16/16/16 41/41/41 40/40/40
f 17/17/17 18/18/18 42/42/42
f 17/17/17 42/42/42 41/41/41
f 18/18/18 19/19/19 43/43/43
f 18/18/18 43/43/43 42/42/42
f 19/19/19 20/20/20 44/44/44
f 19/19/19 44/44/44 43/43/43
f 20/20/20 21/21/21 45/45/45
f 20/20/20 45/45/45 44/44/44
f 21/21/21 22/22/22 46/46/46
f 21/21/21 46/46/46 45/45/45
f 22/22/22 23/23/23 47/47/47
f 22/22/22 47/47/47 46/46/46
f 23/23/23 24/24/24 48/48/48
f 23/23/23 48/48/48 47/47/47
f 24/24/24 1/1/1 25/25/25
f 24/24/24 25/25/25 48/48/48
f 25/25/25 26/26/26 50/50/50
f 25/25/25 50/50/50 49/49/49
f 26/26/26 27/27/27 51/51/51
f 26/26/26 51/51/51 50/50/50
f 27/27/27 28/28/28 52/52/52
f 27/27/27 52/52/52 51/51/51
f 28/28/28 29/29/29 53/53/53
f 28/28/28 53/53/53 52/52/52
f 29/29/29 30/30/30 54/54/54
f 29/29/29 54/54/54 53/53/53
f 30/30/30 31/31/31 55/55/55
f 30/30/30 55/55/55 54/54/54
f 31/31/31 32/32/32 56/56/56
f 31/31/31 56/56/56 55/55/55
f 32/32/32 33/33/33 57/57/57
f 32/32/32 57/57/57 56/56/56
f 33/33/33 34/34/34 58/58/58
f 33/33/33 58/58/58 57/57/57
f 34/34/34 35/35/35 59/59/59
f 34/34/34 59/59/59 58/58/58
f 35/35/35 36/36/36 60/60/60
f 35/35/35 60/60/60 59/59/59
f 36/36/36 37/37/37 61/61/61
f 36/36/36 61/61/61 60/60/60
f 37/37/37 38/38/38 62/62/62
f 37/37/37 62/62/62 61/61/61
f 38/38/38 39/39/39 63/63/63
f 38/38/38 63/63/63 62/62/62
f 39/39/39 40/40/40 64/64/64
f 39/39/39 64/64/64 63/63/63
f 40/40/40 41/41/41 65/65/65
f 40/40/40 65/65/65 64/64/64
f 41/41/41 42/42/42 66/66/66
f 41/41/41 66/66/66 65/65/65
f 42/42/42 43/43/43 67/67/67
f 42/42/42 67/67/67 66/66/66
f 43/43/43 44/44/44 68/68/68
f 43/43/43 68/68/68 67/67/67
f 44/44/44 45/45/45 69/69/69
f 44/44/44 69/69/69 68/68/68
f 45/45/45 46/46/46 70/70/70
f 45/45/45 70/70/70 69/69/69
f 46/46/46 47/47/47 71/71/71
f 46/46/46 71/71/71 70/70/70
f 47/47/47 48/48/48 72/72/72
f 47/47/47 72/72/72 71/71/71
f 48/48/48 25/25/25 49/49/49
f 48/48/48 49/49/49 72/72/72
f 49/49/49 50/50/50 74/74/74
f 49/49/49 74/74/74 73/73/73
f 50/50/50 51/51/51 75/75/75
f 50/50/50 75/75/75 74/74/74
f 51/51/51 52/52/52 76/76/76
f 51/51/51 76/76/76 75/75/75
f 52/52/52 53/53/53 77/77/77
f 52/52/52 77/77/77 76/76/76
f 53/53/53 54/54/54 78/78/78
f 53/53/53 78/78/78 77/77/77
f 54/54/54 55/55/55 79/79/79
f 54/54/54 79/79/79 78/78/78
f 55/55/55 56/56/56 80/80/80
f 55/55/55 80/80/80 79/79/79
f 56/56/56 57/57/57 81/81/81
f 56/56/56 81/81/81 80/80/80
f 57/57/57 58/58/58 82/82/82
f 57/57/57 82/82/82 81/81/81
f 58/58/58 59/59/59 83/83/83
f 58/58/58 83/83/83 82/82/82
f 59/59/59 60/60/60 84/84/84
f 59/59/59 84/84/84 83/83/83
f 60/60/60 61/61/61 85/85/85
f 60/60/60 85/85/85 84/84/84
f 61/61/61 62/62/62 86/86/86
f 61/61/61 86/86/86 85/85/85
f 62/62/62 63/63/63 87/87/87
f 62/62/62 87/87/87 86/86/86
f 63/63/63 64/64/64 88/88/88
f 63/63/63 88/88/88 87/87/87
f 64/64/64 65/65/65 89/89/89
f 64/64/64 89/89/89 88/88/88
f 65/65/65 66/66/66 90/90/90
f 65/65/65 90/90/90 89/89/89
f 66/66/66 67/67/67 91/91/91
f 66/66/66 91/91/91 90/90/90
f 67/67/67 68/68/68 92/92/92
f 67/67/67 92/92/92 91/91/91
f 68/68/68 69/69/69 93/93/93
f 68/68/68 93/93/93 92/92/92
f 69/69/69 70/70/70 94/94/94
f 69/69/69 94/94/94 93/93/93
f 70/70/70 71/71/71 95/95/95
f 70/70/70 95/95/95 94/94/94
f 71/71/71 72/72/72 96/96/96
f 71/71/71 96/96/96 95/95/95
f 72/72/72 49/49/49 73/73/73
f 72/72/72 73/73/73 96/96/96
f 73/73/73 74/74/74 98/98/98
f 73/73/73 98/98/98 97/97/97
f 74/74/74 75/75/75 99/99/99
f 74/74/74 99/99/99 98/98/98
f 75/75/75 76/76/76 100/100/100
f 75/75/75 100/100/100 99/99/99
f 76/76/76 77/77/77 101/101/101
f 76/76/76 101/101/101 100/100/100
f 77/77/77 78/78/78 102/102/102
f 77/77/77 102/102/102 101/101/101
f 78/78/78 79/79/79 103/103/103
f 78/78/78 103/103/103 102/102/102
f 79/79/79 80/80/80 104/104/104
f 79/79/79 104/104/104 103/103/103
f 80/80/80 81/81/81 105/105/105
f 80/80/80 105/105/105 104/104/104
f 81/81/81 82/82/82 106/106/106
f 81/81/81 106/106/106 105/105/105
f 82/82/82 83/83/83 107/107/107
f 82/82/82 107/107/107 106/106/106
f 83/83/83 84/84/84 108/108/108
f 83/83/83 108/108/108 107/107/107
f 84/84/84 85/85/85 109/109/109
f 84/84/84 109/109/109 108/108/108
f 85/85/85 86/86/86 110/110/110
f 85/85/85 110/110/110 109/109/109
f 86/86/86 87/87/87 111/111/111
f 86/86/86 111/111/111 110/110/110
f 87/87/87 88/88/88 112/112/112
f 87/87/87 112/112/112 111/111/111
f 88/88/88 89/89/89 113/113/113
f 88/88/88 113/113/113 112/112/112
f 89/89/89 90/90/90 114/114/114
f 89/89/89 114/114/114 113/113/113
f 90/90/90 91/91/91 115/115/115
f 90/90/90 115/115/115 114/114/114
f 91/91/91 92/92/92 116/116/116
f 91/91/91 116/116/116 115/115/115
f 92/92/92 93/93/93 117/117/117
f 92/92/92 117/117/117 116/116/116
f 93/93/93 94/94/94 118/118/118
f 93/93/93 118/118/118 117/117/117
f 94/94/94 95/95/95 119/119/119
f 94/94/94 119/119/119 118/118/118
f 95/95/95 96/96/96 120/120/120
f 95/95/95 120/120/120 119/119/119
f 96/96/96 73/73/73 97/97/97
f 96/96/96 97/97/97 120/120/120
f 97/97/97 98/98/98 122/122/122
f 97/97/97 122/122/122 121/121/121
f 98/98/98 99/99/99 123/123/123
f 98/98/98 123/123/123 122/122/122
f 99/99/99 100/100/100 124/124/124
f 99/99/99 124/124/124 123/123/123
f 100/100/100 101/101/101 125/125/125
f 100/100/100 125/125/125 124/124/124
f 101/101/101 102/102/102 126/126/126
f 101/101/101 126/126/126 125/125/125
f 102/102/102 103/103/103 127/127/127
f 102/102/102 127/127/127 126/126/126
f 103/103/103 104/104/104 128/128/128
f 103/103/103 128/128/128 127/127/127
f 104/104/104 105/105/105 129/129/129
f 104/104/104 129/129/129 128/128/128
f 105/105/105 106/106/106 130/130/130
f 105/105/105 130/130/130 129/129/129
f 106/106/106 107/107/107 131/131/131
f 106/106/106 131/131/131 130/130/130
f 107/107/107 108/108/108 132/132/132
f 107/107/107 132/132/132 131/131/131
f 108/108/108 109/109/109 133/133/133
f 108/108/108 133/133/133 132/132/132
f 109/109/109 110/110/110 134/134/134
f 109/109/109 134/134/134 133/133/133
f 110/110/110 111/111/111 135/135/135
f 110/110/110 135/135/135 134/134/134
f 111/111/111 112/112/112 136/136/136
f 111/111/111 136/136/136 135/135/135
f 112/112/112 113/113/113 137/137/137
f 112/112/112 137/137/137 136/136/136
f 113/113/113 114/114/114 138/138/138
f 113/113/113 138/138/138 137/137/137
f 114/114/114 115/115/115 139/139/139
f 114/114/114 139/139/139 138/138/138
f 115/115/115 116/116/116 140/140/140
f 115/115/115 140/140/140 139/139/139
f 116/116/116 117/117/117 141/141/141
f 116/116/116 141/141/141 140/140/140
f 117/117/117 118/118/118 142/142/142
f 117/117/117 142/142/142 141/141/141
f 118/118/118 119/119/119 143/143/143
f 118/118/118 143/143/143 142/142/142
f 119/119/119 120/120/120 144/144/144
f 119/119/119 144/144/144 143/143/143
f 120/120/120 97/97/97 121/121/121
f 120/120/120 121/121/121 144/144/144
f 121/121/121 122/122/122 146/146/146
f 121/121/121 146/146/146 145/145/145
f 122/122/122 123/123/123 147/147/147
f 122/122/122 147/147/147 146/146/146
f 123/123/123 124/124/124 148/148/148
f 123/123/123 148/148/148 147/147/147
f 124/124/124 125/125/125 149/149/149
f 124/124/124 149/149/149 148/148/148
f 125/125/125 126/126/126 150/150/150
f 125/125/125 150/150/150 149/149/149
f 126/126/126 127/127/127 151/151/151
f 126/126/126 151/151/151 150/150/150
f 127/127/127 128/128/128 152/152/152
f 127/127/127 152/152/152 151/151/151
f 128/128/128 129/129/129 153/153/153
f 128/128/128 153/153/153 152/152/152
f 129/129/129 130/130/130 154/154/154
f 129/129/129 154/154/154 153/153/153
f 130/130/130 131/131/131 155/155/155
f 130/130/130 155/155/155 154/154/154
f 131/131/131 132/132/132 156/156/156
f 131/131/131 156/156/156 155/155/155
f 132/132/132 133/133/133 157/157/157
f 132/132/132 157/157/157 156/156/156
f 133/133/133 134/134/134 158/158/158
f 133/133/133 158/158/158 157/157/157
f 134/134/134 135/135/135 159/159/159
f 134/134/134 159/159/159 158/158/158
f 135/135/135 136/136/136 160/160/160
f 135/135/135 160/160/160 159/159/159
f 136/136/136 137/137/137 161/161/161
f 136/136/136 161/161/161 160/160/160
f 137/137/137 138/138/138 162/162/162
f 137/137/137 162/162/162 161/161/161
f 138/138/138 139/139/139 163/163/163
f 138/138/138 163/163/163 162/162/162
f 139/139/139 140/140/140 164/164/164
f 139/139/139 164/164/164 163/163/163
f 140/140/140 141/141/141 165/165/165
f 140/140/140 165/165/165 164/164/164
f 141/141/141 142/142/142 166/166/166
f 141/141/141 166/166/166 165/165/165
f 142/142/142 143/143/143 167/167/167
f 142/142/142 167/167/167 166/166/166
f 143/143/143 144/144/144 168/168/168
f 143/143/143 168/168/168 167/167/167
f 144/144/144 121/121/121 145/145/145
f 144/144/144 145/145/145 168/168/168
f 169/169/169 2/2/2 1/1/1
f 169/169/169 3/3/3 2/2/2
f 169/169/169 4/4/4 3/3/3
f 169/169/169 5/5/5 4/4/4
f 169/169/169 6/6/6 5/5/5
f 169/169/169 7/7/7 6/6/6
f 169/169/169 8/8/8 7/7/7
f 169/169/169 9/9/9 8/8/8
f 169/169/169 10/10/10 9/9/9
f 169/169/169 11/11/11 10/10/10
f 169/169/169 12/12/12 11/11/11
f 169/169/169 13/13/13 12/12/12
f 169/169/169 14/14/14 13/13/13
f 169/169/169 15/15/15 14/14/14
f 169/169/169 16/16/16 15/15/15
f 169/169/169 17/17/17 16/16/16
f 169/169/169 18/18/18 17/17/17
f 169/169/169 19/19/19 18/18/18
f 169/169/169 20/20/20 19/19/19
f 169/169/169 21/21/21 20/20/20
f 169/169/169 22/22/22 21/21/21
f 169/169/169 23/23/23 22/22/22
f 169/169/169 24/24/24 23/23/23
f 169/169/169 1/1/1 24/24/24
f 170/170/170 145/145/145 146/146/146
f 170/170/170 146/146/146 147/147/147
f 170/170/170 147/147/147 148/148/148
f 170/170/170 148/148/148 149/149/149
f 170/170/170 149/149/149 150/150/150
f 170/170/170 150/150/150 151/151/151
f 170/170/170 151/151/151 152/152/152
f 170/170/170 152/152/152 153/153/153
f 170/170/170 153/153/153 154/154/154
f 170/170/170 154/154/154 155/155/155
f 170/170/170 155/155/155 156/156/156
f 170/170/170 156/156/156 157/157/157
f 170/170/170 157/157/157 158/158/158
f 170/170/170 158/158/158 159/159/159
f 170/170/170 159/159/159 160/160/160
f 170/170/170 160/160/160 161/161/161
f 170/170/170 161/161/161 162/162/162
f 170/170/170 162/162/162 163/163/163
f 170/170/170 163/163/163 164/164/164
f 170/170/170 164/164/164 165/165/165
f 170/170/170 165/165/165 166/166/166
f 170/170/170 166/166/166 167/167/167
f 170/170/170 167/167/167 168/168/168
f 170/170/170 168/168/168 145/145/145
