# Original BLACKGLASS source; generator version tailored_lofts_v1
o SM_BG_Sleeve
s 1
v 36.000000 0.000000 -50.000000
v 35.143937 13.328450 -50.000000
v 32.582541 21.332739 -50.000000
v 28.324821 27.324821 -50.000000
v 22.332739 31.582541 -50.000000
v 14.328450 34.143937 -50.000000
v 1.000000 35.000000 -50.000000
v -12.328450 34.143937 -50.000000
v -20.332739 31.582541 -50.000000
v -26.324821 27.324821 -50.000000
v -30.582541 21.332739 -50.000000
v -33.143937 13.328450 -50.000000
v -34.000000 0.000000 -50.000000
v -33.143937 -13.328450 -50.000000
v -30.582541 -21.332739 -50.000000
v -26.324821 -27.324821 -50.000000
v -20.332739 -31.582541 -50.000000
v -12.328450 -34.143937 -50.000000
v 1.000000 -35.000000 -50.000000
v 14.328450 -34.143937 -50.000000
v 22.332739 -31.582541 -50.000000
v 28.324821 -27.324821 -50.000000
v 32.582541 -21.332739 -50.000000
v 35.143937 -13.328450 -50.000000
v 43.000000 0.000000 -45.000000
v 41.972725 15.994140 -45.000000
v 38.899049 25.599287 -45.000000
v 33.789786 32.789786 -45.000000
v 26.599287 37.899049 -45.000000
v 16.994140 40.972725 -45.000000
v 1.000000 42.000000 -45.000000
v -14.994140 40.972725 -45.000000
v -24.599287 37.899049 -45.000000
v -31.789786 32.789786 -45.000000
v -36.899049 25.599287 -45.000000
v -39.972725 15.994140 -45.000000
v -41.000000 0.000000 -45.000000
v -39.972725 -15.994140 -45.000000
v -36.899049 -25.599287 -45.000000
v -31.789786 -32.789786 -45.000000
v -24.599287 -37.899049 -45.000000
v -14.994140 -40.972725 -45.000000
v 1.000000 -42.000000 -45.000000
v 16.994140 -40.972725 -45.000000
v 26.599287 -37.899049 -45.000000
v 33.789786 -32.789786 -45.000000
v 38.899049 -25.599287 -45.000000
v 41.972725 -15.994140 -45.000000
v 41.000000 0.000000 -30.000000
v 39.997184 15.994140 -30.000000
v 36.996691 25.599287 -30.000000
v 32.009076 32.789786 -30.000000
v 24.989780 37.899049 -30.000000
v 15.613327 40.972725 -30.000000
v 0.000000 42.000000 -30.000000
v -15.613327 40.972725 -30.000000
v -24.989780 37.899049 -30.000000
v -32.009076 32.789786 -30.000000
v -36.996691 25.599287 -30.000000
v -39.997184 15.994140 -30.000000
v -41.000000 0.000000 -30.000000
v -39.997184 -15.994140 -30.000000
v -36.996691 -25.599287 -30.000000
v -32.009076 -32.789786 -30.000000
v -24.989780 -37.899049 -30.000000
v -15.613327 -40.972725 -30.000000
v -0.000000 -42.000000 -30.000000
v 15.613327 -40.972725 -30.000000
v 24.989780 -37.899049 -30.000000
v 32.009076 -32.789786 -30.000000
v 36.996691 -25.599287 -30.000000
v 39.997184 -15.994140 -30.000000
v 44.000000 0.000000 -4.000000
v 42.923807 16.755765 -4.000000
v 39.703766 26.818300 -4.000000
v 34.351204 34.351204 -4.000000
v 26.818300 39.703766 -4.000000
v 16.755765 42.923807 -4.000000
v 0.000000 44.000000 -4.000000
v -16.755765 42.923807 -4.000000
v -26.818300 39.703766 -4.000000
v -34.351204 34.351204 -4.000000
v -39.703766 26.818300 -4.000000
v -42.923807 16.755765 -4.000000
v -44.000000 0.000000 -4.000000
v -42.923807 -16.755765 -4.000000
v -39.703766 -26.818300 -4.000000
v -34.351204 -34.351204 -4.000000
v -26.818300 -39.703766 -4.000000
v -16.755765 -42.923807 -4.000000
v -0.000000 -44.000000 -4.000000
v 16.755765 -42.923807 -4.000000
v 26.818300 -39.703766 -4.000000
v 34.351204 -34.351204 -4.000000
v 39.703766 -26.818300 -4.000000
v 42.923807 -16.755765 -4.000000
v 46.000000 0.000000 20.000000
v 44.850430 18.279017 20.000000
v 41.410841 29.256328 20.000000
v 35.693332 37.474041 20.000000
v 27.646821 43.313199 20.000000
v 16.898204 46.825971 20.000000
v -1.000000 48.000000 20.000000
v -18.898204 46.825971 20.000000
v -29.646821 43.313199 20.000000
v -37.693332 37.474041 20.000000
v -43.410841 29.256328 20.000000
v -46.850430 18.279017 20.000000
v -48.000000 0.000000 20.000000
v -46.850430 -18.279017 20.000000
v -43.410841 -29.256328 20.000000
v -37.693332 -37.474041 20.000000
v -29.646821 -43.313199 20.000000
v -18.898204 -46.825971 20.000000
v -1.000000 -48.000000 20.000000
v 16.898204 -46.825971 20.000000
v 27.646821 -43.313199 20.000000
v 35.693332 -37.474041 20.000000
v 41.410841 -29.256328 20.000000
v 44.850430 -18.279017 20.000000
v 46.000000 0.000000 41.000000
v 44.825971 19.040642 41.000000
v 41.313199 30.475341 41.000000
v 35.474041 39.035459 41.000000
v 27.256328 45.117916 41.000000
v 16.279017 48.777053 41.000000
v -2.000000 50.000000 41.000000
v -20.279017 48.777053 41.000000
v -31.256328 45.117916 41.000000
v -39.474041 39.035459 41.000000
v -45.313199 30.475341 41.000000
v -48.825971 19.040642 41.000000
v -50.000000 0.000000 41.000000
v -48.825971 -19.040642 41.000000
v -45.313199 -30.475341 41.000000
v -39.474041 -39.035459 41.000000
v -31.256328 -45.117916 41.000000
v -20.279017 -48.777053 41.000000
v -2.000000 -50.000000 41.000000
v 16.279017 -48.777053 41.000000
v 27.256328 -45.117916 41.000000
v 35.474041 -39.035459 41.000000
v 41.313199 -30.475341 41.000000
v 44.825971 -19.040642 41.000000
v 36.000000 0.000000 49.000000
v 35.095019 14.851701 49.000000
v 32.387258 23.770766 49.000000
v 27.886240 30.447658 49.000000
v 21.551753 35.191974 49.000000
v 13.090075 38.046102 49.000000
v -1.000000 39.000000 49.000000
v -15.090075 38.046102 49.000000
v -23.551753 35.191974 49.000000
v -29.886240 30.447658 49.000000
v -34.387258 23.770766 49.000000
v -37.095019 14.851701 49.000000
v -38.000000 0.000000 49.000000
v -37.095019 -14.851701 49.000000
v -34.387258 -23.770766 49.000000
v -29.886240 -30.447658 49.000000
v -23.551753 -35.191974 49.000000
v -15.090075 -38.046102 49.000000
v -1.000000 -39.000000 49.000000
v 13.090075 -38.046102 49.000000
v 21.551753 -35.191974 49.000000
v 27.886240 -30.447658 49.000000
v 32.387258 -23.770766 49.000000
v 35.095019 -14.851701 49.000000
v 32.000000 0.000000 50.000000
v 31.192855 13.328450 50.000000
v 28.777824 21.332739 50.000000
v 24.763403 27.324821 50.000000
v 19.113725 31.582541 50.000000
v 11.566824 34.143937 50.000000
v -1.000000 35.000000 50.000000
v -13.566824 34.143937 50.000000
v -21.113725 31.582541 50.000000
v -26.763403 27.324821 50.000000
v -30.777824 21.332739 50.000000
v -33.192855 13.328450 50.000000
v -34.000000 0.000000 50.000000
v -33.192855 -13.328450 50.000000
v -30.777824 -21.332739 50.000000
v -26.763403 -27.324821 50.000000
v -21.113725 -31.582541 50.000000
v -13.566824 -34.143937 50.000000
v -1.000000 -35.000000 50.000000
v 11.566824 -34.143937 50.000000
v 19.113725 -31.582541 50.000000
v 24.763403 -27.324821 50.000000
v 28.777824 -21.332739 50.000000
v 31.192855 -13.328450 50.000000
v 1.000000 0.000000 -50.000000
v -1.000000 0.000000 50.000000
vt 0.000000 0.000000
vt 0.057693 0.000000
vt 0.092261 0.000000
vt 0.122140 0.000000
vt 0.152042 0.000000
vt 0.186763 0.000000
vt 0.245454 0.000000
vt 0.305148 0.000000
vt 0.341037 0.000000
vt 0.372034 0.000000
vt 0.403062 0.000000
vt 0.439147 0.000000
vt 0.500000 0.000000
vt 0.560853 0.000000
vt 0.596938 0.000000
vt 0.627966 0.000000
vt 0.658963 0.000000
vt 0.694852 0.000000
vt 0.754546 0.000000
vt 0.813237 0.000000
vt 0.847958 0.000000
vt 0.877860 0.000000
vt 0.907739 0.000000
vt 0.942307 0.000000
vt 0.000000 0.050000
vt 0.057944 0.050000
vt 0.092635 0.050000
vt 0.122610 0.050000
vt 0.152603 0.050000
vt 0.187425 0.050000
vt 0.246211 0.050000
vt 0.305834 0.050000
vt 0.341629 0.050000
vt 0.372536 0.050000
vt 0.403468 0.050000
vt 0.439423 0.050000
vt 0.500000 0.050000
vt 0.560577 0.050000
vt 0.596532 0.050000
vt 0.627464 0.050000
vt 0.658371 0.050000
vt 0.694166 0.050000
vt 0.753789 0.050000
vt 0.812575 0.050000
vt 0.847397 0.050000
vt 0.877390 0.050000
vt 0.907365 0.050000
vt 0.942056 0.050000
vt 0.000000 0.200000
vt 0.060543 0.200000
vt 0.096335 0.200000
vt 0.126917 0.200000
vt 0.157222 0.200000
vt 0.192055 0.200000
vt 0.250000 0.200000
vt 0.307945 0.200000
vt 0.342778 0.200000
vt 0.373083 0.200000
vt 0.403665 0.200000
vt 0.439457 0.200000
vt 0.500000 0.200000
vt 0.560543 0.200000
vt 0.596335 0.200000
vt 0.626917 0.200000
vt 0.657222 0.200000
vt 0.692055 0.200000
vt 0.750000 0.200000
vt 0.807945 0.200000
vt 0.842778 0.200000
vt 0.873083 0.200000
vt 0.903665 0.200000
vt 0.939457 0.200000
vt 0.000000 0.460000
vt 0.059233 0.460000
vt 0.094548 0.460000
vt 0.125000 0.460000
vt 0.155452 0.460000
vt 0.190767 0.460000
vt 0.250000 0.460000
vt 0.309233 0.460000
vt 0.344548 0.460000
vt 0.375000 0.460000
vt 0.405452 0.460000
vt 0.440767 0.460000
vt 0.500000 0.460000
vt 0.559233 0.460000
vt 0.594548 0.460000
vt 0.625000 0.460000
vt 0.655452 0.460000
vt 0.690767 0.460000
vt 0.750000 0.460000
vt 0.809233 0.460000
vt 0.844548 0.460000
vt 0.875000 0.460000
vt 0.905452 0.460000
vt 0.940767 0.460000
vt 0.000000 0.700000
vt 0.061593 0.700000
vt 0.097891 0.700000
vt 0.128873 0.700000
vt 0.159583 0.700000
vt 0.194880 0.700000
vt 0.253315 0.700000
vt 0.311051 0.700000
vt 0.345530 0.700000
vt 0.375464 0.700000
vt 0.405618 0.700000
vt 0.440796 0.700000
vt 0.500000 0.700000
vt 0.559204 0.700000
vt 0.594382 0.700000
vt 0.624536 0.700000
vt 0.654470 0.700000
vt 0.688949 0.700000
vt 0.746685 0.700000
vt 0.805120 0.700000
vt 0.840417 0.700000
vt 0.871127 0.700000
vt 0.902109 0.700000
vt 0.938407 0.700000
vt 0.000000 0.910000
vt 0.063928 0.910000
vt 0.101153 0.910000
vt 0.132602 0.910000
vt 0.163509 0.910000
vt 0.198733 0.910000
vt 0.256363 0.910000
vt 0.312708 0.910000
vt 0.346425 0.910000
vt 0.375889 0.910000
vt 0.405770 0.910000
vt 0.440821 0.910000
vt 0.500000 0.910000
vt 0.559179 0.910000
vt 0.594230 0.910000
vt 0.624111 0.910000
vt 0.653575 0.910000
vt 0.687292 0.910000
vt 0.743637 0.910000
vt 0.801267 0.910000
vt 0.836491 0.910000
vt 0.867398 0.910000
vt 0.898847 0.910000
vt 0.936072 0.910000
vt 0.000000 0.990000
vt 0.063715 0.990000
vt 0.100769 0.990000
vt 0.131984 0.990000
vt 0.162546 0.990000
vt 0.197261 0.990000
vt 0.254080 0.990000
vt 0.310096 0.990000
vt 0.343866 0.990000
vt 0.373519 0.990000
vt 0.403737 0.990000
vt 0.439390 0.990000
vt 0.500000 0.990000
vt 0.560610 0.990000
vt 0.596263 0.990000
vt 0.626481 0.990000
vt 0.656134 0.990000
vt 0.689904 0.990000
vt 0.745920 0.990000
vt 0.802739 0.990000
vt 0.837454 0.990000
vt 0.868016 0.990000
vt 0.899231 0.990000
vt 0.936285 0.990000
vt 0.000000 1.000000
vt 0.064268 1.000000
vt 0.101526 1.000000
vt 0.132820 1.000000
vt 0.163383 1.000000
vt 0.198015 1.000000
vt 0.254546 1.000000
vt 0.310194 1.000000
vt 0.343788 1.000000
vt 0.373348 1.000000
vt 0.403537 1.000000
vt 0.439229 1.000000
vt 0.500000 1.000000
vt 0.560771 1.000000
vt 0.596463 1.000000
vt 0.626652 1.000000
vt 0.656212 1.000000
vt 0.689806 1.000000
vt 0.745454 1.000000
vt 0.801985 1.000000
vt 0.836617 1.000000
vt 0.867180 1.000000
vt 0.898474 1.000000
vt 0.935732 1.000000
vt 0.000000 0.000000
vt 0.500000 1.000000
vn 0.170620 0.004109 -0.985328
vn 0.152420 0.031980 -0.987798
vn 0.135511 0.076294 -0.987834
vn 0.102603 0.116506 -0.987876
vn 0.062673 0.149521 -0.986770
vn 0.021015 0.176484 -0.984079
vn -0.004109 0.170620 -0.985328
vn -0.031980 0.152420 -0.987798
vn -0.076294 0.135511 -0.987834
vn -0.116506 0.102603 -0.987876
vn -0.149521 0.062673 -0.986770
vn -0.176484 0.021015 -0.984079
vn -0.170620 -0.004109 -0.985328
vn -0.152420 -0.031980 -0.987798
vn -0.135511 -0.076294 -0.987834
vn -0.102603 -0.116506 -0.987876
vn -0.062673 -0.149521 -0.986770
vn -0.021015 -0.176484 -0.984079
vn 0.004109 -0.170620 -0.985328
vn 0.031980 -0.152420 -0.987798
vn 0.076294 -0.135511 -0.987834
vn 0.116506 -0.102603 -0.987876
vn 0.149521 -0.062673 -0.986770
vn 0.176484 -0.021015 -0.984079
vn 0.973591 0.011072 -0.228031
vn 0.945924 0.171863 -0.275121
vn 0.852470 0.442770 -0.277938
vn 0.656068 0.693242 -0.298314
vn 0.394973 0.865872 -0.307022
vn 0.132887 0.947765 -0.289970
vn -0.011208 0.947311 -0.320118
vn -0.168856 0.917295 -0.360634
vn -0.435091 0.827232 -0.355503
vn -0.683377 0.638981 -0.353127
vn -0.858928 0.387321 -0.335001
vn -0.946092 0.131258 -0.296111
vn -0.947975 -0.010781 -0.318164
vn -0.919109 -0.166991 -0.356865
vn -0.830293 -0.431251 -0.353038
vn -0.642448 -0.678850 -0.355561
vn -0.390105 -0.855200 -0.341249
vn -0.132403 -0.944313 -0.301233
vn 0.011216 -0.947937 -0.318259
vn 0.169953 -0.923253 -0.344558
vn 0.441860 -0.840102 -0.314624
vn 0.699332 -0.653899 -0.288704
vn 0.882020 -0.397734 -0.252682
vn 0.970149 -0.134595 -0.201732
vn 0.999660 0.006325 -0.025279
vn 0.985760 0.167311 -0.016888
vn 0.894636 0.446019 -0.026336
vn 0.700419 0.712970 -0.032961
vn 0.429463 0.902221 -0.039490
vn 0.149127 0.987700 -0.047002
vn -0.006420 0.998803 -0.048492
vn -0.172269 0.983663 -0.052245
vn -0.456548 0.887334 -0.064829
vn -0.722399 0.687546 -0.073622
vn -0.905401 0.417463 -0.077288
vn -0.986420 0.144226 -0.078584
vn -0.997284 -0.006310 -0.073382
vn -0.983510 -0.166929 -0.069595
vn -0.892617 -0.445013 -0.072100
vn -0.699121 -0.711649 -0.069173
vn -0.428960 -0.901163 -0.062441
vn -0.149059 -0.987252 -0.055810
vn 0.006420 -0.998752 -0.049538
vn 0.172325 -0.983982 -0.045649
vn 0.457044 -0.888298 -0.045142
vn 0.723746 -0.688828 -0.041319
vn 0.907518 -0.418440 -0.036324
vn 0.988837 -0.144579 -0.036045
vn 0.995073 0.000596 -0.099148
vn 0.982014 0.157220 -0.104549
vn 0.893852 0.433787 -0.113387
vn 0.703455 0.700342 -0.121127
vn 0.436008 0.891382 -0.123834
vn 0.157061 0.979741 -0.124254
vn -0.000580 0.992701 -0.120600
vn -0.159205 0.979595 -0.122665
vn -0.437833 0.888696 -0.136095
vn -0.703420 0.695952 -0.144401
vn -0.891305 0.429416 -0.145526
vn -0.977643 0.154360 -0.142784
vn -0.990263 -0.000594 -0.139209
vn -0.977608 -0.156514 -0.140659
vn -0.889814 -0.431827 -0.147500
vn -0.700900 -0.697798 -0.147709
vn -0.435071 -0.889469 -0.139852
vn -0.156955 -0.979080 -0.129488
vn 0.000580 -0.992812 -0.119685
vn 0.159350 -0.980485 -0.115139
vn 0.438913 -0.890889 -0.116928
vn 0.706205 -0.698707 -0.114381
vn 0.895650 -0.431509 -0.107757
vn 0.982826 -0.155179 -0.099859
vn 0.999037 -0.000479 -0.043873
vn 0.986683 0.154192 -0.051789
vn 0.900804 0.428989 -0.067234
vn 0.712028 0.696392 -0.089750
vn 0.443127 0.889660 -0.110202
vn 0.160564 0.979375 -0.122656
vn 0.000061 0.991331 -0.131387
vn -0.159425 0.977041 -0.141332
vn -0.439875 0.885482 -0.149770
vn -0.705640 0.692147 -0.151674
vn -0.892666 0.426844 -0.144749
vn -0.979014 0.154235 -0.133207
vn -0.991280 0.000476 -0.131770
vn -0.978557 -0.152923 -0.137991
vn -0.893183 -0.425360 -0.145920
vn -0.706635 -0.691117 -0.151737
vn -0.440887 -0.885163 -0.148676
vn -0.160271 -0.977584 -0.136542
vn -0.000061 -0.991347 -0.131268
vn 0.159732 -0.978927 -0.127231
vn 0.442146 -0.890052 -0.110971
vn 0.711047 -0.697450 -0.089309
vn 0.900224 -0.430458 -0.065590
vn 0.986774 -0.155457 -0.045947
vn 0.949866 -0.009990 0.312496
vn 0.948009 0.128658 0.291078
vn 0.867407 0.381035 0.320026
vn 0.698827 0.636368 0.326613
vn 0.449898 0.833989 0.319459
vn 0.174775 0.930289 0.322515
vn 0.010553 0.960071 0.279559
vn -0.140007 0.956730 0.255082
vn -0.408116 0.862397 0.299520
vn -0.662700 0.675897 0.322477
vn -0.843319 0.422733 0.331827
vn -0.923069 0.161232 0.349210
vn -0.951064 0.010002 0.308833
vn -0.951603 -0.129146 0.278878
vn -0.869782 -0.382078 0.312242
vn -0.700557 -0.637944 0.319760
vn -0.450793 -0.835650 0.313806
vn -0.175000 -0.931488 0.318914
vn -0.010560 -0.960776 0.277124
vn 0.140095 -0.957334 0.252753
vn 0.408427 -0.863054 0.297196
vn 0.663094 -0.676299 0.320820
vn 0.843721 -0.422934 0.330548
vn 0.924929 -0.161557 0.344101
vn 0.548913 -0.010884 0.835809
vn 0.547782 0.064870 0.834102
vn 0.484232 0.197484 0.852361
vn 0.383280 0.327278 0.863704
vn 0.251122 0.433462 0.865476
vn 0.105166 0.495368 0.862294
vn 0.011309 0.522416 0.852616
vn -0.067348 0.515388 0.854306
vn -0.199940 0.444610 0.873124
vn -0.321839 0.341939 0.882892
vn -0.416268 0.218851 0.882511
vn -0.470851 0.090736 0.877534
vn -0.496582 0.009846 0.867934
vn -0.494973 -0.058617 0.866929
vn -0.442087 -0.180296 0.878665
vn -0.356120 -0.304086 0.883578
vn -0.239138 -0.412776 0.878879
vn -0.102993 -0.485130 0.868356
vn -0.011279 -0.521039 0.853458
vn 0.068193 -0.521854 0.850305
vn 0.207908 -0.462329 0.861990
vn 0.343323 -0.364765 0.865491
vn 0.452864 -0.238091 0.859201
vn 0.517365 -0.099700 0.849937
vn 0.039666 -0.000865 0.999213
vn 0.041211 0.004701 0.999139
vn 0.034745 0.013854 0.999300
vn 0.027049 0.022636 0.999378
vn 0.017703 0.029901 0.999396
vn 0.007366 0.033563 0.999409
vn 0.000920 0.037810 0.999285
vn -0.005022 0.039295 0.999215
vn -0.014746 0.033016 0.999346
vn -0.023985 0.025592 0.999385
vn -0.031540 0.016676 0.999363
vn -0.035291 0.006918 0.999353
vn -0.039666 0.000865 0.999213
vn -0.041211 -0.004701 0.999139
vn -0.034745 -0.013854 0.999300
vn -0.027049 -0.022636 0.999378
vn -0.017703 -0.029901 0.999396
vn -0.007366 -0.033563 0.999409
vn -0.000920 -0.037810 0.999285
vn 0.005022 -0.039295 0.999215
vn 0.014746 -0.033016 0.999346
vn 0.023985 -0.025592 0.999385
vn 0.031540 -0.016676 0.999363
vn 0.035291 -0.006918 0.999353
vn 0.000000 0.000000 -1.000000
vn 0.000000 0.000000 1.000000
f 1/1/1 2/2/2 26/26/26
f 1/1/1 26/26/26 25/25/25
f 2/2/2 3/3/3 27/27/27
f 2/2/2 27/27/27 26/26/26
f 3/3/3 4/4/4 28/28/28
f 3/3/3 28/28/28 27/27/27
f 4/4/4 5/5/5 29/29/29
f 4/4/4 29/29/29 28/28/28
f 5/5/5 6/6/6 30/30/30
f 5/5/5 30/30/30 29/29/29
f 6/6/6 7/7/7 31/31/31
f 6/6/6 31/31/31 30/30/30
f 7/7/7 8/8/8 32/32/32
f 7/7/7 32/32/32 31/31/31
f 8/8/8 9/9/9 33/33/33
f 8/8/8 33/33/33 32/32/32
f 9/9/9 10/10/10 34/34/34
f 9/9/9 34/34/34 33/33/33
f 10/10/10 11/11/11 35/35/35
f 10/10/10 35/35/35 34/34/34
f 11/11/11 12/12/12 36/36/36
f 11/11/11 36/36/36 35/35/35
f 12/12/12 13/13/13 37/37/37
f 12/12/12 37/37/37 36/36/36
f 13/13/13 14/14/14 38/38/38
f 13/13/13 38/38/38 37/37/37
f 14/14/14 15/15/15 39/39/39
f 14/14/14 39/39/39 38/38/38
f 15/15/15 16/16/16 40/40/40
f 15/15/15 40/40/40 39/39/39
f 16/16/16 17/17/17 41/41/41
f 16/16/16 41/41/41 40/40/40
f 17/17/17 18/18/18 42/42/42
f 17/17/17 42/42/42 41/41/41
f 18/18/18 19/19/19 43/43/43
f 18/18/18 43/43/43 42/42/42
f 19/19/19 20/20/20 44/44/44
f 19/19/19 44/44/44 43/43/43
f 20/20/20 21/21/21 45/45/45
f 20/20/20 45/45/45 44/44/44
f 21/21/21 22/22/22 46/46/46
f 21/21/21 46/46/46 45/45/45
f 22/22/22 23/23/23 47/47/47
f 22/22/22 47/47/47 46/46/46
f 23/23/23 24/24/24 48/48/48
f 23/23/23 48/48/48 47/47/47
f 24/24/24 1/1/1 25/25/25
f 24/24/24 25/25/25 48/48/48
f 25/25/25 26/26/26 50/50/50
f 25/25/25 50/50/50 49/49/49
f 26/26/26 27/27/27 51/51/51
f 26/26/26 51/51/51 50/50/50
f 27/27/27 28/28/28 52/52/52
f 27/27/27 52/52/52 51/51/51
f 28/28/28 29/29/29 53/53/53
f 28/28/28 53/53/53 52/52/52
f 29/29/29 30/30/30 54/54/54
f 29/29/29 54/54/54 53/53/53
f 30/30/30 31/31/31 55/55/55
f 30/30/30 55/55/55 54/54/54
f 31/31/31 32/32/32 56/56/56
f 31/31/31 56/56/56 55/55/55
f 32/32/32 33/33/33 57/57/57
f 32/32/32 57/57/57 56/56/56
f 33/33/33 34/34/34 58/58/58
f 33/33/33 58/58/58 57/57/57
f 34/34/34 35/35/35 59/59/59
f 34/34/34 59/59/59 58/58/58
f 35/35/35 36/36/36 60/60/60
f 35/35/35 60/60/60 59/59/59
f 36/36/36 37/37/37 61/61/61
f 36/36/36 61/61/61 60/60/60
f 37/37/37 38/38/38 62/62/62
f 37/37/37 62/62/62 61/61/61
f 38/38/38 39/39/39 63/63/63
f 38/38/38 63/63/63 62/62/62
f 39/39/39 40/40/40 64/64/64
f 39/39/39 64/64/64 63/63/63
f 40/40/40 41/41/41 65/65/65
f 40/40/40 65/65/65 64/64/64
f 41/41/41 42/42/42 66/66/66
f 41/41/41 66/66/66 65/65/65
f 42/42/42 43/43/43 67/67/67
f 42/42/42 67/67/67 66/66/66
f 43/43/43 44/44/44 68/68/68
f 43/43/43 68/68/68 67/67/67
f 44/44/44 45/45/45 69/69/69
f 44/44/44 69/69/69 68/68/68
f 45/45/45 46/46/46 70/70/70
f 45/45/45 70/70/70 69/69/69
f 46/46/46 47/47/47 71/71/71
f 46/46/46 71/71/71 70/70/70
f 47/47/47 48/48/48 72/72/72
f 47/47/47 72/72/72 71/71/71
f 48/48/48 25/25/25 49/49/49
f 48/48/48 49/49/49 72/72/72
f 49/49/49 50/50/50 74/74/74
f 49/49/49 74/74/74 73/73/73
f 50/50/50 51/51/51 75/75/75
f 50/50/50 75/75/75 74/74/74
f 51/51/51 52/52/52 76/76/76
f 51/51/51 76/76/76 75/75/75
f 52/52/52 53/53/53 77/77/77
f 52/52/52 77/77/77 76/76/76
f 53/53/53 54/54/54 78/78/78
f 53/53/53 78/78/78 77/77/77
f 54/54/54 55/55/55 79/79/79
f 54/54/54 79/79/79 78/78/78
f 55/55/55 56/56/56 80/80/80
f 55/55/55 80/80/80 79/79/79
f 56/56/56 57/57/57 81/81/81
f 56/56/56 81/81/81 80/80/80
f 57/57/57 58/58/58 82/82/82
f 57/57/57 82/82/82 81/81/81
f 58/58/58 59/59/59 83/83/83
f 58/58/58 83/83/83 82/82/82
f 59/59/59 60/60/60 84/84/84
f 59/59/59 84/84/84 83/83/83
f 60/60/60 61/61/61 85/85/85
f 60/60/60 85/85/85 84/84/84
f 61/61/61 62/62/62 86/86/86
f 61/61/61 86/86/86 85/85/85
f 62/62/62 63/63/63 87/87/87
f 62/62/62 87/87/87 86/86/86
f 63/63/63 64/64/64 88/88/88
f 63/63/63 88/88/88 87/87/87
f 64/64/64 65/65/65 89/89/89
f 64/64/64 89/89/89 88/88/88
f 65/65/65 66/66/66 90/90/90
f 65/65/65 90/90/90 89/89/89
f 66/66/66 67/67/67 91/91/91
f 66/66/66 91/91/91 90/90/90
f 67/67/67 68/68/68 92/92/92
f 67/67/67 92/92/92 91/91/91
f 68/68/68 69/69/69 93/93/93
f 68/68/68 93/93/93 92/92/92
f 69/69/69 70/70/70 94/94/94
f 69/69/69 94/94/94 93/93/93
f 70/70/70 71/71/71 95/95/95
f 70/70/70 95/95/95 94/94/94
f 71/71/71 72/72/72 96/96/96
f 71/71/71 96/96/96 95/95/95
f 72/72/72 49/49/49 73/73/73
f 72/72/72 73/73/73 96/96/96
f 73/73/73 74/74/74 98/98/98
f 73/73/73 98/98/98 97/97/97
f 74/74/74 75/75/75 99/99/99
f 74/74/74 99/99/99 98/98/98
f 75/75/75 76/76/76 100/100/100
f 75/75/75 100/100/100 99/99/99
f 76/76/76 77/77/77 101/101/101
f 76/76/76 101/101/101 100/100/100
f 77/77/77 78/78/78 102/102/102
f 77/77/77 102/102/102 101/101/101
f 78/78/78 79/79/79 103/103/103
f 78/78/78 103/103/103 102/102/102
f 79/79/79 80/80/80 104/104/104
f 79/79/79 104/104/104 103/103/103
f 80/80/80 81/81/81 105/105/105
f 80/80/80 105/105/105 104/104/104
f 81/81/81 82/82/82 106/106/106
f 81/81/81 106/106/106 105/105/105
f 82/82/82 83/83/83 107/107/107
f 82/82/82 107/107/107 106/106/106
f 83/83/83 84/84/84 108/108/108
f 83/83/83 108/108/108 107/107/107
f 84/84/84 85/85/85 109/109/109
f 84/84/84 109/109/109 108/108/108
f 85/85/85 86/86/86 110/110/110
f 85/85/85 110/110/110 109/109/109
f 86/86/86 87/87/87 111/111/111
f 86/86/86 111/111/111 110/110/110
f 87/87/87 88/88/88 112/112/112
f 87/87/87 112/112/112 111/111/111
f 88/88/88 89/89/89 113/113/113
f 88/88/88 113/113/113 112/112/112
f 89/89/89 90/90/90 114/114/114
f 89/89/89 114/114/114 113/113/113
f 90/90/90 91/91/91 115/115/115
f 90/90/90 115/115/115 114/114/114
f 91/91/91 92/92/92 116/116/116
f 91/91/91 116/116/116 115/115/115
f 92/92/92 93/93/93 117/117/117
f 92/92/92 117/117/117 116/116/116
f 93/93/93 94/94/94 118/118/118
f 93/93/93 118/118/118 117/117/117
f 94/94/94 95/95/95 119/119/119
f 94/94/94 119/119/119 118/118/118
f 95/95/95 96/96/96 120/120/120
f 95/95/95 120/120/120 119/119/119
f 96/96/96 73/73/73 97/97/97
f 96/96/96 97/97/97 120/120/120
f 97/97/97 98/98/98 122/122/122
f 97/97/97 122/122/122 121/121/121
f 98/98/98 99/99/99 123/123/123
f 98/98/98 123/123/123 122/122/122
f 99/99/99 100/100/100 124/124/124
f 99/99/99 124/124/124 123/123/123
f 100/100/100 101/101/101 125/125/125
f 100/100/100 125/125/125 124/124/124
f 101/101/101 102/102/102 126/126/126
f 101/101/101 126/126/126 125/125/125
f 102/102/102 103/103/103 127/127/127
f 102/102/102 127/127/127 126/126/126
f 103/103/103 104/104/104 128/128/128
f 103/103/103 128/128/128 127/127/127
f 104/104/104 105/105/105 129/129/129
f 104/104/104 129/129/129 128/128/128
f 105/105/105 106/106/106 130/130/130
f 105/105/105 130/130/130 129/129/129
f 106/106/106 107/107/107 131/131/131
f 106/106/106 131/131/131 130/130/130
f 107/107/107 108/108/108 132/132/132
f 107/107/107 132/132/132 131/131/131
f 108/108/108 109/109/109 133/133/133
f 108/108/108 133/133/133 132/132/132
f 109/109/109 110/110/110 134/134/134
f 109/109/109 134/134/134 133/133/133
f 110/110/110 111/111/111 135/135/135
f 110/110/110 135/135/135 134/134/134
f 111/111/111 112/112/112 136/136/136
f 111/111/111 136/136/136 135/135/135
f 112/112/112 113/113/113 137/137/137
f 112/112/112 137/137/137 136/136/136
f 113/113/113 114/114/114 138/138/138
f 113/113/113 138/138/138 137/137/137
f 114/114/114 115/115/115 139/139/139
f 114/114/114 139/139/139 138/138/138
f 115/115/115 116/116/116 140/140/140
f 115/115/115 140/140/140 139/139/139
f 116/116/116 117/117/117 141/141/141
f 116/116/116 141/141/141 140/140/140
f 117/117/117 118/118/118 142/142/142
f 117/117/117 142/142/142 141/141/141
f 118/118/118 119/119/119 143/143/143
f 118/118/118 143/143/143 142/142/142
f 119/119/119 120/120/120 144/144/144
f 119/119/119 144/144/144 143/143/143
f 120/120/120 97/97/97 121/121/121
f 120/120/120 121/121/121 144/144/144
f 121/121/121 122/122/122 146/146/146
f 121/121/121 146/146/146 145/145/145
f 122/122/122 123/123/123 147/147/147
f 122/122/122 147/147/147 146/146/146
f 123/123/123 124/124/124 148/148/148
f 123/123/123 148/148/148 147/147/147
f 124/124/124 125/125/125 149/149/149
f 124/124/124 149/149/149 148/148/148
f 125/125/125 126/126/126 150/150/150
f 125/125/125 150/150/150 149/149/149
f 126/126/126 127/127/127 151/151/151
f 126/126/126 151/151/151 150/150/150
f 127/127/127 128/128/128 152/152/152
f 127/127/127 152/152/152 151/151/151
f 128/128/128 129/129/129 153/153/153
f 128/128/128 153/153/153 152/152/152
f 129/129/129 130/130/130 154/154/154
f 129/129/129 154/154/154 153/153/153
f 130/130/130 131/131/131 155/155/155
f 130/130/130 155/155/155 154/154/154
f 131/131/131 132/132/132 156/156/156
f 131/131/131 156/156/156 155/155/155
f 132/132/132 133/133/133 157/157/157
f 132/132/132 157/157/157 156/156/156
f 133/133/133 134/134/134 158/158/158
f 133/133/133 158/158/158 157/157/157
f 134/134/134 135/135/135 159/159/159
f 134/134/134 159/159/159 158/158/158
f 135/135/135 136/136/136 160/160/160
f 135/135/135 160/160/160 159/159/159
f 136/136/136 137/137/137 161/161/161
f 136/136/136 161/161/161 160/160/160
f 137/137/137 138/138/138 162/162/162
f 137/137/137 162/162/162 161/161/161
f 138/138/138 139/139/139 163/163/163
f 138/138/138 163/163/163 162/162/162
f 139/139/139 140/140/140 164/164/164
f 139/139/139 164/164/164 163/163/163
f 140/140/140 141/141/141 165/165/165
f 140/140/140 165/165/165 164/164/164
f 141/141/141 142/142/142 166/166/166
f 141/141/141 166/166/166 165/165/165
f 142/142/142 143/143/143 167/167/167
f 142/142/142 167/167/167 166/166/166
f 143/143/143 144/144/144 168/168/168
f 143/143/143 168/168/168 167/167/167
f 144/144/144 121/121/121 145/145/145
f 144/144/144 145/145/145 168/168/168
f 145/145/145 146/146/146 170/170/170
f 145/145/145 170/170/170 169/169/169
f 146/146/146 147/147/147 171/171/171
f 146/146/146 171/171/171 170/170/170
f 147/147/147 148/148/148 172/172/172
f 147/147/147 172/172/172 171/171/171
f 148/148/148 149/149/149 173/173/173
f 148/148/148 173/173/173 172/172/172
f 149/149/149 150/150/150 174/174/174
f 149/149/149 174/174/174 173/173/173
f 150/150/150 151/151/151 175/175/175
f 150/150/150 175/175/175 174/174/174
f 151/151/151 152/152/152 176/176/176
f 151/151/151 176/176/176 175/175/175
f 152/152/152 153/153/153 177/177/177
f 152/152/152 177/177/177 176/176/176
f 153/153/153 154/154/154 178/178/178
f 153/153/153 178/178/178 177/177/177
f 154/154/154 155/155/155 179/179/179
f 154/154/154 179/179/179 178/178/178
f 155/155/155 156/156/156 180/180/180
f 155/155/155 180/180/180 179/179/179
f 156/156/156 157/157/157 181/181/181
f 156/156/156 181/181/181 180/180/180
f 157/157/157 158/158/158 182/182/182
f 157/157/157 182/182/182 181/181/181
f 158/158/158 159/159/159 183/183/183
f 158/158/158 183/183/183 182/182/182
f 159/159/159 160/160/160 184/184/184
f 159/159/159 184/184/184 183/183/183
f 160/160/160 161/161/161 185/185/185
f 160/160/160 185/185/185 184/184/184
f 161/161/161 162/162/162 186/186/186
f 161/161/161 186/186/186 185/185/185
f 162/162/162 163/163/163 187/187/187
f 162/162/162 187/187/187 186/186/186
f 163/163/163 164/164/164 188/188/188
f 163/163/163 188/188/188 187/187/187
f 164/164/164 165/165/165 189/189/189
f 164/164/164 189/189/189 188/188/188
f 165/165/165 166/166/166 190/190/190
f 165/165/165 190/190/190 189/189/189
f 166/166/166 167/167/167 191/191/191
f 166/166/166 191/191/191 190/190/190
f 167/167/167 168/168/168 192/192/192
f 167/167/167 192/192/192 191/191/191
f 168/168/168 145/145/145 169/169/169
f 168/168/168 169/169/169 192/192/192
f 193/193/193 2/2/2 1/1/1
f 193/193/193 3/3/3 2/2/2
f 193/193/193 4/4/4 3/3/3
f 193/193/193 5/5/5 4/4/4
f 193/193/193 6/6/6 5/5/5
f 193/193/193 7/7/7 6/6/6
f 193/193/193 8/8/8 7/7/7
f 193/193/193 9/9/9 8/8/8
f 193/193/193 10/10/10 9/9/9
f 193/193/193 11/11/11 10/10/10
f 193/193/193 12/12/12 11/11/11
f 193/193/193 13/13/13 12/12/12
f 193/193/193 14/14/14 13/13/13
f 193/193/193 15/15/15 14/14/14
f 193/193/193 16/16/16 15/15/15
f 193/193/193 17/17/17 16/16/16
f 193/193/193 18/18/18 17/17/17
f 193/193/193 19/19/19 18/18/18
f 193/193/193 20/20/20 19/19/19
f 193/193/193 21/21/21 20/20/20
f 193/193/193 22/22/22 21/21/21
f 193/193/193 23/23/23 22/22/22
f 193/193/193 24/24/24 23/23/23
f 193/193/193 1/1/1 24/24/24
f 194/194/194 169/169/169 170/170/170
f 194/194/194 170/170/170 171/171/171
f 194/194/194 171/171/171 172/172/172
f 194/194/194 172/172/172 173/173/173
f 194/194/194 173/173/173 174/174/174
f 194/194/194 174/174/174 175/175/175
f 194/194/194 175/175/175 176/176/176
f 194/194/194 176/176/176 177/177/177
f 194/194/194 177/177/177 178/178/178
f 194/194/194 178/178/178 179/179/179
f 194/194/194 179/179/179 180/180/180
f 194/194/194 180/180/180 181/181/181
f 194/194/194 181/181/181 182/182/182
f 194/194/194 182/182/182 183/183/183
f 194/194/194 183/183/183 184/184/184
f 194/194/194 184/184/184 185/185/185
f 194/194/194 185/185/185 186/186/186
f 194/194/194 186/186/186 187/187/187
f 194/194/194 187/187/187 188/188/188
f 194/194/194 188/188/188 189/189/189
f 194/194/194 189/189/189 190/190/190
f 194/194/194 190/190/190 191/191/191
f 194/194/194 191/191/191 192/192/192
f 194/194/194 192/192/192 169/169/169
